<?xml version="1.0" encoding="UTF-8" standalone="no"?>
<svg width="609.6mm" height="7595.39mm"
 viewBox="0 0 2304 28707"
 xmlns="http://www.w3.org/2000/svg" xmlns:xlink="http://www.w3.org/1999/xlink"  version="1.2" baseProfile="tiny">
<title>Valentina. Pattern layout</title>
<defs>
</defs>
<g fill="none" stroke="black" stroke-width="1" fill-rule="evenodd" stroke-linecap="square" stroke-linejoin="bevel" >

<g fill="none" stroke="#000000" stroke-opacity="1" stroke-width="1.51181" stroke-linecap="round" stroke-linejoin="round" transform="matrix(1,0,0,1,0,0)"
font-family="Arial" font-size="10.6667" font-weight="400" font-style="normal" 
>
</g>

<g fill="none" stroke="#000000" stroke-opacity="1" stroke-width="1.51181" stroke-linecap="round" stroke-linejoin="round" transform="matrix(1,0,0,1,0,0)"
font-family="Arial" font-size="10.6667" font-weight="400" font-style="normal" 
>
</g>

<g fill="none" stroke="#000000" stroke-opacity="1" stroke-width="1.51181" stroke-linecap="round" stroke-linejoin="round" transform="matrix(1,0,0,1,0,0)"
font-family="Arial" font-size="10.6667" font-weight="400" font-style="normal" 
>
</g>

<g fill="none" stroke="#000000" stroke-opacity="1" stroke-width="1" stroke-linecap="square" stroke-linejoin="bevel" transform="matrix(1,0,0,1,0,0)"
font-family="Arial" font-size="10.6667" font-weight="400" font-style="normal" 
>
<path vector-effect="none" fill-rule="nonzero" d="M2299,8579 L976,8579 L976,8315 L712,8295 L1317,320 L1581,340 L1581,75 L2299,75 L2299,8579 M2299,0 L2299,8655 L900,8655 L900,8385 L631,8364 L1247,239 L1505,258 L1505,0 L2299,0"/>
</g>

<g fill="none" stroke="#000000" stroke-opacity="1" stroke-width="1.51181" stroke-linecap="round" stroke-linejoin="round" transform="matrix(1,0,0,1,0,0)"
font-family="Arial" font-size="10.6667" font-weight="400" font-style="normal" 
>
</g>

<g fill="none" stroke="#000000" stroke-opacity="1" stroke-width="1.51181" stroke-linecap="round" stroke-linejoin="round" transform="matrix(1,0,0,1,0,0)"
font-family="Arial" font-size="10.6667" font-weight="400" font-style="normal" 
>
</g>

<g fill="#000000" fill-opacity="1" stroke="#000000" stroke-opacity="1" stroke-width="1" stroke-linecap="square" stroke-linejoin="bevel" transform="matrix(1,0,0,1,0,0)"
font-family="Arial" font-size="10.6667" font-weight="400" font-style="normal" 
>
<path vector-effect="none" fill-rule="evenodd" d="M1521,3435.48 L1506.7,3435.48 L1506.7,3440.45 L1526.42,3440.45 L1526.42,3410 L1521,3410 L1521,3421.58 L1508.47,3421.58 L1508.47,3426.55 L1521,3426.55 L1521,3435.48"/>
</g>

<g fill="none" stroke="#000000" stroke-opacity="1" stroke-width="1.51181" stroke-linecap="round" stroke-linejoin="round" transform="matrix(1,0,0,1,0,0)"
font-family="Arial" font-size="10.6667" font-weight="400" font-style="normal" 
>
</g>

<g fill="none" stroke="#000000" stroke-opacity="1" stroke-width="1.51181" stroke-linecap="round" stroke-linejoin="round" transform="matrix(1,0,0,1,0,0)"
font-family="Arial" font-size="10.6667" font-weight="400" font-style="normal" 
>
</g>

<g fill="#000000" fill-opacity="1" stroke="#000000" stroke-opacity="1" stroke-width="1" stroke-linecap="square" stroke-linejoin="bevel" transform="matrix(1,0,0,1,0,0)"
font-family="Arial" font-size="10.6667" font-weight="400" font-style="normal" 
>
<path vector-effect="none" fill-rule="evenodd" d="M1557.78,3382.16 L1544.78,3382.16 L1544.78,3386.67 L1562.7,3386.67 L1562.7,3359 L1557.78,3359 L1557.78,3369.52 L1546.39,3369.52 L1546.39,3374.03 L1557.78,3374.03 L1557.78,3382.16 M1533.66,3362.36 C1535.55,3362.36 1535.91,3363.52 1535.91,3365.41 L1535.91,3387.72 L1540.83,3387.72 L1540.83,3364 C1540.83,3361.28 1539.98,3358.59 1535.91,3358.59 C1533.7,3358.59 1531.58,3359.56 1531.58,3359.56 L1532.38,3362.48 C1532.38,3362.48 1532.98,3362.36 1533.66,3362.36 M1519.98,3358.59 C1513.91,3358.59 1509.91,3362.67 1509.91,3368.72 C1509.91,3374.72 1513.83,3378.67 1519.91,3378.67 C1526.06,3378.67 1529.98,3374.75 1529.98,3368.64 C1529.98,3362.64 1526.06,3358.59 1519.98,3358.59 M1519.98,3374.88 C1516.66,3374.88 1514.83,3372.12 1514.83,3368.64 C1514.83,3365.12 1516.55,3362.44 1519.98,3362.44 C1523.27,3362.44 1525.06,3365.23 1525.06,3368.64 C1525.06,3372 1523.27,3374.88 1519.98,3374.88 M1496.98,3358.59 C1490.91,3358.59 1486.91,3362.67 1486.91,3368.72 C1486.91,3374.72 1490.83,3378.67 1496.91,3378.67 C1503.06,3378.67 1506.98,3374.75 1506.98,3368.64 C1506.98,3362.64 1503.06,3358.59 1496.98,3358.59 M1496.98,3374.88 C1493.66,3374.88 1491.83,3372.12 1491.83,3368.64 C1491.83,3365.12 1493.55,3362.44 1496.98,3362.44 C1500.27,3362.44 1502.06,3365.23 1502.06,3368.64 C1502.06,3372 1500.27,3374.88 1496.98,3374.88 M1482.86,3378.23 L1482.86,3359 L1478.06,3359 L1478.06,3373.8 C1477.06,3374.23 1475.98,3374.48 1474.86,3374.48 C1473.22,3374.48 1471.86,3374.12 1470.7,3373.44 L1470.47,3373.52 L1469.5,3377.92 C1470.62,3378.44 1471.83,3378.67 1473.06,3378.67 C1475.11,3378.67 1477.02,3378.11 1478.83,3377 L1479.42,3378.23 L1482.86,3378.23"/>
</g>

<g fill="none" stroke="#000000" stroke-opacity="1" stroke-width="1.51181" stroke-linecap="round" stroke-linejoin="round" transform="matrix(1,0,0,1,0,0)"
font-family="Arial" font-size="10.6667" font-weight="400" font-style="normal" 
>
</g>

<g fill="none" stroke="#000000" stroke-opacity="1" stroke-width="1.51181" stroke-linecap="round" stroke-linejoin="round" transform="matrix(1,0,0,1,0,0)"
font-family="Arial" font-size="10.6667" font-weight="400" font-style="normal" 
>
</g>

<g fill="#000000" fill-opacity="1" stroke="#000000" stroke-opacity="1" stroke-width="1" stroke-linecap="square" stroke-linejoin="bevel" transform="matrix(1,0,0,1,0,0)"
font-family="Arial" font-size="10.6667" font-weight="400" font-style="normal" 
>
<path vector-effect="none" fill-rule="evenodd" d="M1825.12,3336.3 L1825.12,3333.52 L1816.34,3333.52 L1816.34,3310 L1813.19,3310 L1813.19,3333.52 L1804.38,3333.52 L1804.38,3336.3 L1825.12,3336.3 M1793.36,3328.77 C1798.78,3328.77 1801.67,3324.47 1801.67,3318.92 C1801.67,3312.97 1798.41,3309.62 1792.44,3309.62 C1790.47,3309.62 1788.5,3309.97 1786.52,3310.64 L1787.09,3312.92 C1788.5,3312.44 1790.02,3312.2 1791.56,3312.2 C1795.78,3312.2 1798.52,3314.52 1798.52,3318.28 L1785.95,3318.28 L1785.75,3318.7 L1785.75,3320.38 C1785.75,3325.5 1788.3,3328.77 1793.36,3328.77 M1788.91,3320.8 L1798.45,3320.8 C1798.06,3323.91 1796.44,3326.3 1793.02,3326.3 C1790.12,3326.3 1788.91,3323.75 1788.91,3320.8 M1769.56,3321.78 L1769.56,3310 L1766.42,3310 L1766.42,3322.53 C1766.42,3326.45 1768.5,3328.81 1772.42,3328.81 C1774.55,3328.81 1776.75,3328.2 1778.95,3326.98 L1779.64,3328.31 L1781.8,3328.31 L1781.8,3310 L1778.66,3310 L1778.66,3324.86 C1776.83,3325.73 1775.11,3326.14 1773.56,3326.14 C1770.56,3326.14 1769.56,3324.86 1769.56,3321.78 M1755.53,3309.62 C1754.23,3309.62 1752.95,3309.92 1751.55,3310.45 L1752.16,3312.66 C1752.69,3312.47 1753.52,3312.23 1754.62,3312.23 C1756.98,3312.23 1757.52,3313.5 1757.52,3315.92 L1757.52,3325.81 L1751.5,3325.81 L1751.5,3328.31 L1757.52,3328.31 L1757.52,3333.52 L1760.66,3333.36 L1760.66,3328.31 L1763.73,3328.31 L1763.73,3325.81 L1760.66,3325.81 L1760.66,3315.7 C1760.66,3311.83 1759.33,3309.62 1755.53,3309.62 M1734.11,3333.52 L1722.03,3333.52 L1722.03,3336.3 L1737.27,3336.3 L1737.27,3310 L1734.11,3310 L1734.11,3322.2 L1723.14,3322.2 L1723.14,3324.97 L1734.11,3324.97 L1734.11,3333.52 M1712.25,3312.47 C1714.61,3312.47 1714.69,3313.69 1714.69,3315.09 L1714.69,3337.28 L1717.84,3337.28 L1717.84,3313.98 C1717.84,3311.41 1716.25,3309.62 1713.78,3309.62 C1711.98,3309.62 1710.73,3310.16 1710.09,3310.53 L1710.73,3312.66 C1711.23,3312.55 1711.53,3312.47 1712.25,3312.47 M1698.78,3309.66 C1693.12,3309.66 1689.78,3313.61 1689.78,3319.27 C1689.78,3325.05 1692.89,3328.77 1698.64,3328.77 C1704.38,3328.77 1707.67,3324.97 1707.67,3319.19 C1707.67,3313.5 1704.48,3309.66 1698.78,3309.66 M1698.64,3326.27 C1694.91,3326.27 1692.94,3322.95 1692.94,3319.19 C1692.94,3315.36 1694.88,3312.17 1698.64,3312.17 C1702.52,3312.17 1704.52,3315.28 1704.52,3319.19 C1704.52,3323.03 1702.52,3326.27 1698.64,3326.27 M1676.78,3309.66 C1671.12,3309.66 1667.78,3313.61 1667.78,3319.27 C1667.78,3325.05 1670.89,3328.77 1676.64,3328.77 C1682.38,3328.77 1685.67,3324.97 1685.67,3319.19 C1685.67,3313.5 1682.48,3309.66 1676.78,3309.66 M1676.64,3326.27 C1672.91,3326.27 1670.94,3322.95 1670.94,3319.19 C1670.94,3315.36 1672.88,3312.17 1676.64,3312.17 C1680.52,3312.17 1682.52,3315.28 1682.52,3319.19 C1682.52,3323.03 1680.52,3326.27 1676.64,3326.27 M1654.78,3328.77 C1656.58,3328.77 1658.25,3328.16 1659.84,3326.95 L1660.52,3328.34 L1662.8,3328.34 L1662.8,3310 L1659.66,3310 L1659.66,3324.67 C1658.31,3325.58 1657.03,3326.03 1655.66,3326.03 C1654.67,3326.03 1653.77,3325.81 1652.92,3325.42 L1651.78,3328.23 C1652.7,3328.66 1653.42,3328.77 1654.78,3328.77 M1644.28,3319.88 C1644.28,3326.27 1641.92,3332 1639.23,3336.44 L1641.66,3337.73 C1644.58,3332.95 1647.44,3326.91 1647.44,3319.88 C1647.44,3312.73 1644.62,3306.39 1641.62,3301.45 L1639.23,3303.02 C1641.97,3307.45 1644.28,3313.42 1644.28,3319.88 M1637.12,3336.3 L1637.12,3333.52 L1628.34,3333.52 L1628.34,3310 L1625.19,3310 L1625.19,3333.52 L1616.38,3333.52 L1616.38,3336.3 L1637.12,3336.3 M1594.61,3328.42 C1594.61,3334.05 1598.09,3336.3 1603.91,3336.3 L1612.27,3336.3 L1612.27,3310 L1609.11,3310 L1609.11,3320.83 L1605.89,3320.83 C1599.39,3320.83 1594.61,3322.34 1594.61,3328.42 M1605.62,3323.61 L1609.11,3323.61 L1609.11,3333.52 L1605.62,3333.52 C1601.06,3333.52 1597.8,3332.91 1597.8,3328.62 C1597.8,3324.14 1601.09,3323.61 1605.62,3323.61 M1580.58,3309.62 C1573.48,3309.62 1570.47,3313.08 1570.47,3320.19 L1570.47,3336.3 L1573.62,3336.3 L1573.62,3319.39 C1573.62,3314.86 1575.91,3312.39 1580.58,3312.39 C1585.25,3312.39 1587.53,3314.78 1587.53,3319.39 L1587.53,3336.3 L1590.66,3336.3 L1590.66,3320.19 C1590.66,3313.08 1587.69,3309.62 1580.58,3309.62 M1554.27,3336.3 L1554.27,3310 L1551.11,3310 L1551.11,3332.11 L1536.75,3310 L1532.77,3310 L1532.77,3336.3 L1535.92,3336.3 L1535.92,3314.3 L1550.28,3336.3 L1554.27,3336.3 M1514,3328.31 L1519.62,3313.11 L1525.25,3328.31 L1528.55,3328.31 L1521.17,3309.05 L1524.67,3300.16 L1521.48,3300.16 L1511,3328.31 L1514,3328.31 M1501.25,3312.47 C1503.61,3312.47 1503.69,3313.69 1503.69,3315.09 L1503.69,3337.28 L1506.84,3337.28 L1506.84,3313.98 C1506.84,3311.41 1505.25,3309.62 1502.78,3309.62 C1500.98,3309.62 1499.73,3310.16 1499.09,3310.53 L1499.73,3312.66 C1500.23,3312.55 1500.53,3312.47 1501.25,3312.47 M1487.78,3309.66 C1482.12,3309.66 1478.78,3313.61 1478.78,3319.27 C1478.78,3325.05 1481.89,3328.77 1487.64,3328.77 C1493.38,3328.77 1496.67,3324.97 1496.67,3319.19 C1496.67,3313.5 1493.48,3309.66 1487.78,3309.66 M1487.64,3326.27 C1483.91,3326.27 1481.94,3322.95 1481.94,3319.19 C1481.94,3315.36 1483.88,3312.17 1487.64,3312.17 C1491.52,3312.17 1493.52,3315.28 1493.52,3319.19 C1493.52,3323.03 1491.52,3326.27 1487.64,3326.27 M1461.56,3321.78 L1461.56,3310 L1458.42,3310 L1458.42,3322.53 C1458.42,3326.45 1460.5,3328.81 1464.42,3328.81 C1466.55,3328.81 1468.75,3328.2 1470.95,3326.98 L1471.64,3328.31 L1473.8,3328.31 L1473.8,3310 L1470.66,3310 L1470.66,3324.86 C1468.83,3325.73 1467.11,3326.14 1465.56,3326.14 C1462.56,3326.14 1461.56,3324.86 1461.56,3321.78 M1446.81,3319.69 C1446.81,3326.67 1449.62,3332.95 1452.55,3337.73 L1455.02,3336.44 C1452.28,3331.95 1449.97,3326.19 1449.97,3319.69 C1449.97,3313.98 1451.72,3308.44 1455.02,3303.02 L1452.62,3301.45 C1449.66,3306.31 1446.81,3312.66 1446.81,3319.69 M1437.48,3314.17 C1438.86,3314.17 1439.8,3313.19 1439.8,3311.86 C1439.8,3310.77 1439.31,3310 1438.2,3309.62 C1438.7,3308.59 1439.34,3307.3 1440.22,3305.78 L1439,3304.98 C1437.33,3306.39 1435.09,3308.67 1435.09,3311.44 C1435.09,3313 1436,3314.17 1437.48,3314.17 M1411.7,3309.62 C1410.03,3309.62 1408.25,3309.97 1406.39,3310.69 L1407.11,3312.84 C1408.25,3312.44 1409.44,3312.2 1410.64,3312.2 C1415.17,3312.2 1417.52,3314.59 1417.52,3319.53 C1417.52,3323.83 1415.31,3326.14 1410.91,3326.14 C1409.5,3326.14 1408.25,3325.92 1407.11,3325.42 L1406.36,3327.75 C1407.91,3328.42 1409.5,3328.77 1411.06,3328.77 C1417.25,3328.77 1420.67,3324.78 1420.67,3318.97 C1420.67,3313.16 1417.48,3309.62 1411.7,3309.62 M1399.69,3316.72 L1399.69,3328.31 L1402.84,3328.31 L1402.84,3315.97 C1402.84,3312.09 1400.67,3309.62 1396.8,3309.62 C1394.83,3309.62 1392.7,3310.27 1390.34,3311.48 L1389.62,3310 L1387.45,3310 L1387.45,3328.31 L1390.61,3328.31 L1390.61,3313.64 C1392.47,3312.78 1394.14,3312.31 1395.66,3312.31 C1398.7,3312.31 1399.69,3313.64 1399.69,3316.72 M1375.53,3309.62 C1374.23,3309.62 1372.95,3309.92 1371.55,3310.45 L1372.16,3312.66 C1372.69,3312.47 1373.52,3312.23 1374.62,3312.23 C1376.98,3312.23 1377.52,3313.5 1377.52,3315.92 L1377.52,3325.81 L1371.5,3325.81 L1371.5,3328.31 L1377.52,3328.31 L1377.52,3333.52 L1380.66,3333.36 L1380.66,3328.31 L1383.73,3328.31 L1383.73,3325.81 L1380.66,3325.81 L1380.66,3315.7 C1380.66,3311.83 1379.33,3309.62 1375.53,3309.62 M1340.52,3312.78 L1346.86,3312.78 L1346.86,3336.3 L1350.47,3336.3 L1357.5,3332.95 L1356.55,3330.41 L1350.02,3333.52 L1350.02,3312.78 L1357.05,3312.78 L1357.05,3310 L1340.52,3310 L1340.52,3312.78 M1317.78,3309.66 C1312.12,3309.66 1308.78,3313.61 1308.78,3319.27 C1308.78,3325.05 1311.89,3328.77 1317.64,3328.77 C1323.38,3328.77 1326.67,3324.97 1326.67,3319.19 C1326.67,3313.5 1323.48,3309.66 1317.78,3309.66 M1317.64,3326.27 C1313.91,3326.27 1311.94,3322.95 1311.94,3319.19 C1311.94,3315.36 1313.88,3312.17 1317.64,3312.17 C1321.52,3312.17 1323.52,3315.28 1323.52,3319.19 C1323.52,3323.03 1321.52,3326.27 1317.64,3326.27 M1291.56,3321.78 L1291.56,3310 L1288.42,3310 L1288.42,3322.53 C1288.42,3326.45 1290.5,3328.81 1294.42,3328.81 C1296.55,3328.81 1298.75,3328.2 1300.95,3326.98 L1301.64,3328.31 L1303.8,3328.31 L1303.8,3310 L1300.66,3310 L1300.66,3324.86 C1298.83,3325.73 1297.11,3326.14 1295.56,3326.14 C1292.56,3326.14 1291.56,3324.86 1291.56,3321.78 M1265.83,3335.3 C1264.98,3335.3 1264.03,3335.11 1262.86,3334.77 L1262.36,3337.05 C1263.66,3337.44 1265.22,3337.73 1266.77,3337.73 C1270.69,3337.73 1272.89,3335.8 1272.89,3331.42 L1272.89,3328.31 L1275.55,3328.31 L1275.55,3325.92 L1272.89,3325.92 L1272.89,3310 L1269.73,3310 L1269.73,3325.92 L1263.7,3325.92 L1263.7,3328.31 L1269.73,3328.31 L1269.73,3331.31 C1269.73,3333.75 1268.59,3335.3 1265.83,3335.3 M1252.78,3309.66 C1247.12,3309.66 1243.78,3313.61 1243.78,3319.27 C1243.78,3325.05 1246.89,3328.77 1252.64,3328.77 C1258.38,3328.77 1261.67,3324.97 1261.67,3319.19 C1261.67,3313.5 1258.48,3309.66 1252.78,3309.66 M1252.64,3326.27 C1248.91,3326.27 1246.94,3322.95 1246.94,3319.19 C1246.94,3315.36 1248.88,3312.17 1252.64,3312.17 C1256.52,3312.17 1258.52,3315.28 1258.52,3319.19 C1258.52,3323.03 1256.52,3326.27 1252.64,3326.27 M1233.25,3312.47 C1235.61,3312.47 1235.69,3313.69 1235.69,3315.09 L1235.69,3337.28 L1238.84,3337.28 L1238.84,3313.98 C1238.84,3311.41 1237.25,3309.62 1234.78,3309.62 C1232.98,3309.62 1231.73,3310.16 1231.09,3310.53 L1231.73,3312.66 C1232.23,3312.55 1232.53,3312.47 1233.25,3312.47 M1220.09,3309.62 C1218.34,3309.62 1216.62,3310.16 1214.89,3311.3 L1214.36,3310 L1212.16,3310 L1212.16,3337.28 L1215.3,3337.28 L1215.3,3327.89 C1216.48,3328.47 1217.92,3328.77 1219.64,3328.77 C1225.25,3328.77 1228.67,3324.78 1228.67,3319.08 C1228.67,3313.45 1225.67,3309.62 1220.09,3309.62 M1219.44,3312.28 C1223.47,3312.28 1225.45,3315.17 1225.45,3319.27 C1225.45,3323.34 1223.52,3326.22 1219.41,3326.22 C1217.84,3326.22 1216.48,3325.95 1215.3,3325.47 L1215.3,3313.38 C1216.62,3312.66 1217.5,3312.28 1219.44,3312.28 "/>
</g>

<g fill="none" stroke="#000000" stroke-opacity="1" stroke-width="1.51181" stroke-linecap="round" stroke-linejoin="round" transform="matrix(1,0,0,1,0,0)"
font-family="Arial" font-size="10.6667" font-weight="400" font-style="normal" 
>
</g>

<g fill="none" stroke="#000000" stroke-opacity="1" stroke-width="1.51181" stroke-linecap="round" stroke-linejoin="round" transform="matrix(1,0,0,1,0,0)"
font-family="Arial" font-size="10.6667" font-weight="400" font-style="normal" 
>
</g>

<g fill="none" stroke="#000000" stroke-opacity="1" stroke-width="1" stroke-linecap="square" stroke-linejoin="bevel" transform="matrix(1,0,0,1,0,0)"
font-family="Arial" font-size="10.6667" font-weight="400" font-style="normal" 
>
<path vector-effect="none" fill-rule="nonzero" d="M1085.56,2268.38 L181.157,2199.81 L195.445,2011.35 L1214.08,573.242 L1085.56,2268.38 M1225.19,426.663 L1079.82,2344.16 L99.6288,2269.85 L121.25,1984.66 L1225.19,426.663"/>
</g>

<g fill="none" stroke="#000000" stroke-opacity="1" stroke-width="1.51181" stroke-linecap="round" stroke-linejoin="round" transform="matrix(1,0,0,1,0,0)"
font-family="Arial" font-size="10.6667" font-weight="400" font-style="normal" 
>
</g>

<g fill="none" stroke="#000000" stroke-opacity="1" stroke-width="1.51181" stroke-linecap="round" stroke-linejoin="round" transform="matrix(1,0,0,1,0,0)"
font-family="Arial" font-size="10.6667" font-weight="400" font-style="normal" 
>
</g>

<g fill="#000000" fill-opacity="1" stroke="#000000" stroke-opacity="1" stroke-width="1" stroke-linecap="square" stroke-linejoin="bevel" transform="matrix(1,0,0,1,0,0)"
font-family="Arial" font-size="10.6667" font-weight="400" font-style="normal" 
>
<path vector-effect="none" fill-rule="evenodd" d="M767.859,2059.37 L769.795,2033.83 L765.261,2033.49 L763.818,2052.53 L752.968,2032.56 L747.437,2032.14 L745.501,2057.68 L750.035,2058.02 L751.47,2039.09 L762.406,2058.96 L767.859,2059.37 M722.778,2049.23 C722.442,2053.66 725.808,2056.18 731.167,2056.59 L739.939,2057.25 L741.875,2031.72 L733.727,2031.1 C729.411,2030.77 726.366,2031.25 724.562,2032.52 C722.757,2033.79 721.749,2035.32 721.603,2037.23 C721.338,2040.74 723.466,2043.45 726.409,2044.32 C724.096,2045.07 722.945,2047.02 722.778,2049.23 M732.325,2052.48 C729.147,2052.24 727.082,2051.56 727.256,2049.27 C727.44,2046.84 729.711,2046.45 732.765,2046.68 L736.161,2046.94 L735.722,2052.73 L732.325,2052.48 M733.407,2042.55 C729.465,2042.25 725.89,2041.46 726.12,2038.42 C726.382,2034.96 730.014,2035.02 733.955,2035.32 L737.025,2035.55 L736.477,2042.78 L733.407,2042.55"/>
</g>

<g fill="none" stroke="#000000" stroke-opacity="1" stroke-width="1.51181" stroke-linecap="round" stroke-linejoin="round" transform="matrix(1,0,0,1,0,0)"
font-family="Arial" font-size="10.6667" font-weight="400" font-style="normal" 
>
</g>

<g fill="none" stroke="#000000" stroke-opacity="1" stroke-width="1.51181" stroke-linecap="round" stroke-linejoin="round" transform="matrix(1,0,0,1,0,0)"
font-family="Arial" font-size="10.6667" font-weight="400" font-style="normal" 
>
</g>

<g fill="#000000" fill-opacity="1" stroke="#000000" stroke-opacity="1" stroke-width="1" stroke-linecap="square" stroke-linejoin="bevel" transform="matrix(1,0,0,1,0,0)"
font-family="Arial" font-size="10.6667" font-weight="400" font-style="normal" 
>
<path vector-effect="none" fill-rule="evenodd" d="M814.899,2018.04 L816.626,1995.26 L812.575,1994.96 L811.288,2011.94 L801.622,1994.13 L796.683,1993.75 L794.956,2016.53 L799.007,2016.84 L800.288,1999.95 L810.038,2017.67 L814.899,2018.04 M784.082,2009.08 C788.601,2009.42 791.809,2005.97 792.156,2001.39 C792.544,1996.26 789.619,1992.89 784.291,1992.48 C782.312,1992.33 780.415,1992.55 778.545,1993.04 L779.042,1995.78 C780.406,1995.56 781.898,1995.51 783.519,1995.64 C786.541,1995.87 788.161,1997.24 788.208,1999.72 L777.317,1998.9 L777.199,2000.45 C776.808,2005.61 779.112,2008.7 784.082,2009.08 M787.902,2002.52 C787.622,2004.76 786.266,2006.11 784.256,2005.96 C782.013,2005.79 780.854,2004.54 781.046,2002 L787.902,2002.52 M763.486,1991.8 L763.867,1994.63 C764.47,1994.52 765.708,1994.32 766.83,1994.4 C768.996,1994.57 769.411,1995.7 769.319,1996.91 L768.753,2004.37 L763.285,2003.96 L763.045,2007.12 L768.514,2007.54 L768.137,2012.51 L772.188,2012.81 L772.565,2007.84 L775.198,2008.04 L775.437,2004.88 L772.804,2004.68 L773.378,1997.11 C773.59,1994.32 773.088,1991.63 768.056,1991.25 C766.545,1991.14 764.641,1991.45 763.486,1991.8 M733.773,2005.89 C733.473,2009.85 736.483,2012.1 741.251,2012.46 L749.088,2013.05 L750.815,1990.27 L743.539,1989.72 C739.691,1989.43 736.979,1989.85 735.373,1990.98 C733.766,1992.13 732.865,1993.47 732.736,1995.19 C732.498,1998.32 734.398,2000.75 737.02,2001.51 C734.948,2002.17 733.922,2003.93 733.773,2005.89 M742.297,2008.79 C739.461,2008.58 737.627,2007.97 737.782,2005.93 C737.946,2003.76 739.962,2003.41 742.689,2003.62 L745.712,2003.85 L745.319,2009.02 L742.297,2008.79 M743.266,1999.94 C739.745,1999.67 736.555,1998.96 736.76,1996.26 C736.995,1993.16 740.234,1993.22 743.755,1993.48 L746.482,1993.69 L745.993,2000.14 L743.266,1999.94 M716.203,1997.48 C715.855,2002.06 718.053,2004.07 722.992,2004.45 C724.379,2004.55 726.182,2004.33 728.402,2003.78 L727.989,2000.95 C726.466,2001.4 725.088,2001.6 723.842,2001.5 C720.851,2001.28 720.046,2000.53 720.258,1997.72 L723.526,1997.81 C727.234,1997.89 730.333,1996.7 730.6,1993.18 C730.829,1990.15 728.42,1988.25 725.257,1988.01 C723.387,1987.87 721.807,1988.25 720.473,1989.1 L720.106,1987.95 L716.943,1987.71 L716.203,1997.48 M720.723,1991.6 C721.62,1991.13 722.6,1990.82 724.049,1990.93 C725.497,1991.04 726.634,1991.75 726.527,1993.17 C726.435,1994.38 725.353,1995 723.274,1994.94 L720.47,1994.93 L720.723,1991.6 M709.331,1995.11 C709.096,1998.21 707.227,2000.12 704.002,1999.87 C702.055,1999.73 701.329,1999.37 699.729,1998.58 L698.407,2001.13 C700.285,2002.19 701.663,2002.83 704.42,2003.04 C709.531,2003.43 712.998,2000.48 713.382,1995.41 C713.756,1990.47 710.674,1986.9 705.672,1986.52 C703.008,1986.32 701.218,1986.78 699.432,1987.6 L700.357,1990.29 C702.058,1989.76 702.828,1989.52 704.776,1989.67 C707.876,1989.9 709.555,1992.15 709.331,1995.11 M690.239,2009.45 L694.274,2009.76 L696.066,1986.12 L692.03,1985.82 L690.239,2009.45 M684.271,2001.15 L691.039,1994.55 L685.113,1985.29 L680.408,1984.94 L686.319,1994.19 L679.566,2000.79 L684.271,2001.15"/>
</g>

<g fill="none" stroke="#000000" stroke-opacity="1" stroke-width="1.51181" stroke-linecap="round" stroke-linejoin="round" transform="matrix(1,0,0,1,0,0)"
font-family="Arial" font-size="10.6667" font-weight="400" font-style="normal" 
>
</g>

<g fill="none" stroke="#000000" stroke-opacity="1" stroke-width="1.51181" stroke-linecap="round" stroke-linejoin="round" transform="matrix(1,0,0,1,0,0)"
font-family="Arial" font-size="10.6667" font-weight="400" font-style="normal" 
>
</g>

<g fill="#000000" fill-opacity="1" stroke="#000000" stroke-opacity="1" stroke-width="1" stroke-linecap="square" stroke-linejoin="bevel" transform="matrix(1,0,0,1,0,0)"
font-family="Arial" font-size="10.6667" font-weight="400" font-style="normal" 
>
<path vector-effect="none" fill-rule="evenodd" d="M893.982,1982.53 L895.604,1961.14 L893.049,1960.94 L891.684,1978.94 L881.363,1960.06 L878.107,1959.81 L876.485,1981.2 L879.056,1981.4 L880.413,1963.5 L890.741,1982.28 L893.982,1982.53 M865.888,1974.24 C870.312,1974.58 872.93,1971.26 873.272,1966.75 C873.64,1961.9 871.182,1958.97 866.337,1958.61 C864.716,1958.48 863.09,1958.64 861.443,1959.08 L861.77,1960.97 C862.938,1960.65 864.198,1960.56 865.46,1960.65 C868.888,1960.91 870.973,1962.97 870.74,1966.04 L860.504,1965.26 L860.324,1965.58 L860.22,1966.95 C859.903,1971.12 861.774,1973.93 865.888,1974.24 M862.764,1967.49 L870.523,1968.07 C870.02,1970.57 868.548,1972.42 865.76,1972.21 C863.407,1972.03 862.582,1969.88 862.764,1967.49 M852.081,1957.52 C851.021,1957.44 849.958,1957.61 848.772,1957.96 L849.135,1959.79 C849.583,1959.67 850.283,1959.53 851.171,1959.6 C853.087,1959.75 853.446,1960.81 853.296,1962.79 L852.686,1970.83 L847.794,1970.46 L847.64,1972.48 L852.532,1972.85 L852.211,1977.09 L854.791,1977.16 L855.103,1973.05 L857.596,1973.24 L857.75,1971.21 L855.257,1971.02 L855.88,1962.8 C856.12,1959.63 855.165,1957.76 852.081,1957.52 M841.112,1956.69 C840.053,1956.61 838.99,1956.78 837.804,1957.13 L838.167,1958.96 C838.615,1958.84 839.314,1958.7 840.202,1958.77 C842.119,1958.92 842.477,1959.98 842.327,1961.96 L841.718,1970 L836.825,1969.62 L836.672,1971.65 L841.564,1972.02 L841.243,1976.26 L843.823,1976.33 L844.135,1972.22 L846.628,1972.4 L846.781,1970.38 L844.288,1970.19 L844.912,1961.96 C845.152,1958.8 844.197,1956.93 841.112,1956.69 M832.703,1973.78 C831.768,1973.71 830.979,1974.4 830.909,1975.32 C830.838,1976.25 831.514,1977.06 832.449,1977.13 C833.368,1977.2 834.172,1976.51 834.243,1975.57 C834.313,1974.65 833.622,1973.85 832.703,1973.78 M834.117,1971.46 L835.246,1956.56 L832.769,1956.37 L831.639,1971.27 L834.117,1971.46 M817.552,1964.86 L818.279,1955.27 L815.708,1955.08 L814.934,1965.29 C814.693,1968.46 816.262,1970.51 819.44,1970.75 C821.17,1970.88 822.998,1970.53 824.865,1969.67 L825.345,1970.79 L827.105,1970.92 L828.235,1956.03 L825.664,1955.83 L824.747,1967.93 C823.213,1968.53 821.801,1968.75 820.524,1968.65 C818.093,1968.47 817.362,1967.37 817.552,1964.86 M806.876,1948.19 C807.764,1948.26 808.96,1948.6 810.4,1949.24 L811.206,1947.5 C810.137,1946.92 808.259,1946.27 806.685,1946.15 C801.855,1945.79 798.976,1948.22 798.609,1953.06 L797.425,1968.67 L799.248,1968.81 L799.571,1968.07 L800.29,1968.5 C801.373,1969.1 802.523,1969.44 803.753,1969.53 C808.303,1969.88 811.105,1966.61 811.45,1962.06 C811.779,1957.71 809.235,1954.28 805.09,1953.96 C803.766,1953.86 802.416,1954.1 801.055,1954.69 L801.086,1954.28 C801.409,1950.02 802.731,1947.88 806.876,1948.19 M808.822,1962.2 C808.572,1965.49 806.853,1967.71 803.597,1967.47 C802.459,1967.38 801.31,1967.04 800.164,1966.44 L800.912,1956.58 C801.89,1956.09 803.048,1955.89 804.357,1955.99 C807.598,1956.24 809.07,1958.93 808.822,1962.2 M792.189,1956.71 C793.295,1956.8 794.135,1956.06 794.217,1954.97 C794.285,1954.08 793.927,1953.43 793.062,1953.05 C793.53,1952.25 794.125,1951.23 794.935,1950.06 L793.987,1949.33 C792.545,1950.36 790.581,1952.09 790.411,1954.34 C790.314,1955.61 790.99,1956.62 792.189,1956.71 M771.811,1951.44 C770.455,1951.34 768.985,1951.51 767.429,1951.98 L767.872,1953.79 C768.833,1953.52 769.797,1953.4 770.795,1953.48 C774.472,1953.76 776.24,1955.85 775.935,1959.87 C775.671,1963.36 773.736,1965.11 770.153,1964.84 C769,1964.75 768.001,1964.48 767.096,1964.02 L766.345,1965.86 C767.566,1966.5 768.838,1966.88 770.116,1966.98 C775.148,1967.36 778.183,1964.33 778.542,1959.6 C778.9,1954.87 776.516,1951.8 771.811,1951.44 M761.464,1956.47 L760.749,1965.89 L763.32,1966.09 L764.08,1956.05 C764.32,1952.89 762.712,1950.75 759.565,1950.51 C757.944,1950.39 756.175,1950.79 754.184,1951.62 L753.699,1950.38 L751.922,1950.24 L750.793,1965.14 L753.364,1965.33 L754.268,1953.41 C755.833,1952.81 757.233,1952.54 758.463,1952.64 C760.941,1952.82 761.653,1953.97 761.464,1956.47 M742.395,1949.21 C741.336,1949.13 740.273,1949.3 739.087,1949.65 L739.45,1951.48 C739.898,1951.35 740.598,1951.22 741.486,1951.29 C743.402,1951.43 743.76,1952.49 743.61,1954.47 L743.001,1962.51 L738.109,1962.14 L737.955,1964.17 L742.847,1964.54 L742.526,1968.77 L745.106,1968.84 L745.418,1964.73 L747.911,1964.92 L748.064,1962.89 L745.572,1962.71 L746.195,1954.48 C746.435,1951.32 745.48,1949.44 742.395,1949.21 M714.281,1949.66 L719.453,1950.05 L718.003,1969.19 L720.932,1969.41 L726.855,1967.13 L726.249,1965 L720.729,1967.12 L722.008,1950.25 L727.726,1950.68 L727.898,1948.42 L714.452,1947.4 L714.281,1949.66 M696.088,1945.73 C691.492,1945.38 688.521,1948.4 688.173,1953 C687.816,1957.7 690.126,1960.92 694.785,1961.27 C699.459,1961.62 702.388,1958.74 702.745,1954.04 C703.096,1949.41 700.731,1946.08 696.088,1945.73 M694.94,1959.23 C691.917,1959 690.515,1956.2 690.748,1953.13 C690.984,1950.01 692.755,1947.53 695.809,1947.76 C698.972,1948 700.415,1950.66 700.174,1953.84 C699.937,1956.97 698.102,1959.47 694.94,1959.23 M673.965,1953.97 L674.691,1944.39 L672.12,1944.19 L671.347,1954.4 C671.106,1957.58 672.674,1959.62 675.852,1959.86 C677.582,1960 679.41,1959.65 681.278,1958.79 L681.757,1959.9 L683.518,1960.04 L684.647,1945.14 L682.076,1944.95 L681.159,1957.04 C679.625,1957.64 678.213,1957.87 676.936,1957.77 C674.505,1957.58 673.774,1956.48 673.965,1953.97 M651.66,1963.36 C650.99,1963.31 650.223,1963.09 649.293,1962.74 L648.748,1964.56 C649.768,1964.95 651.027,1965.3 652.289,1965.4 C655.467,1965.64 657.379,1964.18 657.649,1960.63 L657.841,1958.09 L660.007,1958.26 L660.155,1956.31 L657.989,1956.14 L658.97,1943.2 L656.415,1943 L655.434,1955.95 L650.51,1955.58 L650.363,1957.52 L655.286,1957.9 L655.101,1960.34 C654.951,1962.32 653.919,1963.53 651.66,1963.36 M642.243,1941.65 C637.647,1941.3 634.676,1944.32 634.327,1948.91 C633.97,1953.62 636.281,1956.83 640.939,1957.19 C645.614,1957.54 648.543,1954.66 648.9,1949.95 C649.25,1945.33 646.886,1942 642.243,1941.65 M641.094,1955.15 C638.072,1954.92 636.67,1952.11 636.903,1949.05 C637.139,1945.93 638.91,1943.45 641.964,1943.68 C645.126,1943.92 646.57,1946.58 646.329,1949.76 C646.091,1952.89 644.257,1955.39 641.094,1955.15 M626.131,1942.73 C628.047,1942.87 628.035,1943.86 627.948,1945.01 L626.578,1963.07 L629.149,1963.27 L630.587,1944.3 C630.746,1942.2 629.563,1940.65 627.553,1940.5 C626.089,1940.39 625.043,1940.75 624.489,1941.02 L624.888,1942.79 C625.3,1942.73 625.554,1942.68 626.131,1942.73 M615.572,1939.59 C614.154,1939.49 612.734,1939.82 611.231,1940.63 L610.89,1939.55 L609.098,1939.42 L607.415,1961.62 L609.97,1961.81 L610.549,1954.18 C611.48,1954.7 612.63,1955.04 614.017,1955.15 C618.597,1955.49 621.632,1952.46 621.984,1947.82 C622.33,1943.26 620.121,1939.94 615.572,1939.59 M614.893,1941.72 C618.165,1941.97 619.592,1944.44 619.339,1947.78 C619.087,1951.1 617.337,1953.31 614.002,1953.06 C612.725,1952.96 611.635,1952.66 610.699,1952.2 L611.444,1942.37 C612.58,1941.86 613.304,1941.6 614.893,1941.72 "/>
</g>

<g fill="none" stroke="#000000" stroke-opacity="1" stroke-width="1.51181" stroke-linecap="round" stroke-linejoin="round" transform="matrix(1,0,0,1,0,0)"
font-family="Arial" font-size="10.6667" font-weight="400" font-style="normal" 
>
</g>

<g fill="none" stroke="#000000" stroke-opacity="1" stroke-width="1.51181" stroke-linecap="round" stroke-linejoin="round" transform="matrix(1,0,0,1,0,0)"
font-family="Arial" font-size="10.6667" font-weight="400" font-style="normal" 
>
</g>

<g fill="none" stroke="#000000" stroke-opacity="1" stroke-width="1" stroke-linecap="square" stroke-linejoin="bevel" transform="matrix(1,0,0,1,0,0)"
font-family="Arial" font-size="10.6667" font-weight="400" font-style="normal" 
>
<path vector-effect="none" fill-rule="nonzero" d="M465.745,6951.58 L485.93,6685.34 L505.902,6435.14 L524.665,6200.88 L540.299,5981.44 L550.944,5827.8 L557.356,5730.01 L562.468,5636.13 L566.28,5546.16 L569.79,5460.18 L572.076,5377.11 L573.984,5299.03 L573.672,5223.79 L573.056,5152.54 L571.141,5085.21 L567.79,5036.81 L566.145,5005.6 L563.427,4975.31 L560.634,4946.01 L557.765,4917.72 L553.823,4890.34 L549.806,4863.96 L545.713,4838.58 L540.623,4813.12 L535.382,4789.66 L530.065,4767.19 L524.748,4744.72 L518.359,4723.18 L510.821,4703.55 L504.28,4684 L495.67,4665.3 L487.981,4647.67 L479.219,4630.96 L470.381,4615.24 L460.471,4600.45 L450.561,4585.66 L445.032,4579.22 L683.695,4076.83 L872.154,4091.12 L643.545,7106.46 L455.085,7092.18 L465.745,6951.58 M411.524,7164.09 L427.854,6948.71 L449.036,6682.55 L468.011,6432.26 L486.773,6198.01 L503.405,5978.64 L512.977,5825.93 L519.389,5728.13 L524.501,5634.25 L528.313,5544.28 L531.823,5458.3 L535.031,5376.31 L535.942,5298.15 L536.551,5223.99 L534.863,5153.66 L532.948,5086.32 L530.518,5039 L528.797,5008.79 L526.08,4978.49 L523.211,4950.2 L520.342,4921.9 L516.324,4895.52 L512.232,4870.14 L508.139,4844.75 L503.895,4821.37 L498.653,4797.9 L493.261,4776.43 L487.869,4754.97 L482.325,4735.49 L475.784,4715.94 L469.168,4697.39 L461.403,4680.75 L453.639,4664.12 L445.723,4649.48 L437.807,4634.84 L428.818,4621.12 L419.754,4608.4 L427.126,4616.98 L718.358,4003.24 L952.685,4021 L712.66,7186.92 L411.524,7164.09"/>
</g>

<g fill="none" stroke="#000000" stroke-opacity="1" stroke-width="1.51181" stroke-linecap="round" stroke-linejoin="round" transform="matrix(1,0,0,1,0,0)"
font-family="Arial" font-size="10.6667" font-weight="400" font-style="normal" 
>
</g>

<g fill="none" stroke="#000000" stroke-opacity="1" stroke-width="1.51181" stroke-linecap="round" stroke-linejoin="round" transform="matrix(1,0,0,1,0,0)"
font-family="Arial" font-size="10.6667" font-weight="400" font-style="normal" 
>
</g>

<g fill="#000000" fill-opacity="1" stroke="#000000" stroke-opacity="1" stroke-width="1" stroke-linecap="square" stroke-linejoin="bevel" transform="matrix(1,0,0,1,0,0)"
font-family="Arial" font-size="10.6667" font-weight="400" font-style="normal" 
>
<path vector-effect="none" fill-rule="evenodd" d="M660.309,4601.69 L661.439,4586.78 L656.267,4586.39 L654.709,4606.94 L686.446,4609.34 L686.873,4603.7 L674.814,4602.79 L675.805,4589.72 L670.617,4589.32 L669.626,4602.39 L660.309,4601.69 M656.599,4582.01 L688.336,4584.41 L689.904,4563.72 L684.716,4563.33 L683.575,4578.38 L657.026,4576.37 L656.599,4582.01 M686.037,4545.91 L659.488,4543.9 L659.071,4549.4 L662.518,4559.12 L667.156,4557.67 L664.42,4549.94 L685.609,4551.55 L684.965,4560.04 L690.154,4560.44 L691.806,4538.64 L686.618,4538.25 L686.037,4545.91"/>
</g>

<g fill="none" stroke="#000000" stroke-opacity="1" stroke-width="1.51181" stroke-linecap="round" stroke-linejoin="round" transform="matrix(1,0,0,1,0,0)"
font-family="Arial" font-size="10.6667" font-weight="400" font-style="normal" 
>
</g>

<g fill="none" stroke="#000000" stroke-opacity="1" stroke-width="1.51181" stroke-linecap="round" stroke-linejoin="round" transform="matrix(1,0,0,1,0,0)"
font-family="Arial" font-size="10.6667" font-weight="400" font-style="normal" 
>
</g>

<g fill="#000000" fill-opacity="1" stroke="#000000" stroke-opacity="1" stroke-width="1" stroke-linecap="square" stroke-linejoin="bevel" transform="matrix(1,0,0,1,0,0)"
font-family="Arial" font-size="10.6667" font-weight="400" font-style="normal" 
>
<path vector-effect="none" fill-rule="evenodd" d="M711.39,4686.06 L712.422,4672.44 L707.701,4672.08 L706.278,4690.86 L735.257,4693.05 L735.648,4687.9 L724.633,4687.06 L725.538,4675.13 L720.801,4674.77 L719.896,4686.7 L711.39,4686.06 M716.838,4668.76 L736.983,4670.29 L737.364,4665.26 L721.862,4664.08 C721.489,4663 721.326,4661.85 721.415,4660.68 C721.545,4658.97 722.027,4657.56 722.821,4656.4 L722.762,4656.14 L718.225,4654.8 C717.592,4655.92 717.247,4657.17 717.149,4658.46 C716.987,4660.59 717.426,4662.65 718.452,4664.62 L717.112,4665.15 L716.838,4668.76 M739.394,4644.07 C739.877,4637.7 735.926,4633.18 729.6,4632.7 C723.306,4632.23 718.85,4636.02 718.368,4642.38 C717.879,4648.83 721.68,4653.26 728.083,4653.74 C734.362,4654.22 738.912,4650.43 739.394,4644.07 M722.349,4642.78 C722.612,4639.3 725.641,4637.59 729.287,4637.87 C732.98,4638.15 735.647,4640.17 735.374,4643.76 C735.114,4647.19 732.042,4648.86 728.474,4648.58 C724.953,4648.32 722.089,4646.2 722.349,4642.78 M729.895,4609.8 C724.411,4609.38 720.763,4610.78 720.327,4616.53 C720.156,4618.79 720.571,4621.17 721.561,4623.62 L720.211,4624.27 L719.937,4627.88 L740.082,4629.41 L740.473,4624.25 L725.314,4623.1 C724.706,4620.99 724.453,4619.37 724.541,4618.2 C724.733,4615.68 726.529,4614.72 728.882,4614.89 L741.112,4615.82 L741.502,4610.68 L729.895,4609.8 M742.276,4590.96 L738.667,4591.44 C738.812,4592.22 739.069,4593.79 738.96,4595.22 C738.751,4597.98 737.333,4598.5 735.775,4598.38 L726.271,4597.66 L726.798,4590.71 L722.778,4590.41 L722.251,4597.36 L715.926,4596.88 L715.535,4602.04 L721.86,4602.52 L721.606,4605.87 L725.626,4606.17 L725.88,4602.82 L735.508,4603.55 C739.076,4603.82 742.492,4603.2 742.979,4596.78 C743.124,4594.87 742.714,4592.42 742.276,4590.96 M715.198,4573.19 L744.178,4575.39 L745.611,4556.49 L740.874,4556.13 L739.832,4569.87 L715.589,4568.04 L715.198,4573.19 M725.845,4543.76 C725.409,4549.51 729.816,4553.59 735.643,4554.03 C742.171,4554.52 746.465,4550.81 746.98,4544.01 C747.17,4541.5 746.883,4539.09 746.263,4536.72 L742.77,4537.33 C743.06,4539.08 743.12,4540.98 742.964,4543.03 C742.671,4546.9 740.918,4548.94 737.748,4549 L738.799,4535.13 L736.836,4534.99 C730.261,4534.49 726.324,4537.43 725.845,4543.76 M734.205,4548.61 C731.364,4548.27 729.646,4546.54 729.839,4543.98 C730.055,4541.13 731.64,4539.65 734.866,4539.9 L734.205,4548.61 M724.775,4528.52 L727.454,4528.73 L727.2,4532.08 L731.22,4532.38 L731.474,4529.03 L747.6,4530.25 L747.991,4525.1 L731.865,4523.87 L732.43,4516.43 L728.41,4516.12 L727.845,4523.57 L724.994,4523.35 C723.062,4523.21 721.599,4521.42 721.799,4518.79 C721.891,4517.57 722.289,4516.25 722.458,4515.67 L722.74,4514.85 L719.151,4513.82 L718.88,4514.51 C717.944,4516.93 717.723,4518.6 717.641,4519.69 C717.089,4526.97 722.547,4528.36 724.775,4528.52 M749.231,4499.23 L745.622,4499.71 C745.767,4500.48 746.024,4502.05 745.915,4503.49 C745.706,4506.25 744.288,4506.77 742.73,4506.65 L733.226,4505.93 L733.753,4498.98 L729.733,4498.67 L729.206,4505.62 L722.881,4505.14 L722.49,4510.3 L728.815,4510.78 L728.561,4514.13 L732.581,4514.43 L732.835,4511.08 L742.464,4511.81 C746.031,4512.08 749.447,4511.47 749.934,4505.05 C750.079,4503.13 749.669,4500.69 749.231,4499.23 M747.378,4470.35 L723.135,4468.51 L722.754,4473.54 L725.904,4482.42 L730.141,4481.09 L727.636,4474.04 L746.987,4475.5 L746.4,4483.25 L751.136,4483.61 L752.645,4463.71 L747.908,4463.35 L747.378,4470.35"/>
</g>

<g fill="none" stroke="#000000" stroke-opacity="1" stroke-width="1.51181" stroke-linecap="round" stroke-linejoin="round" transform="matrix(1,0,0,1,0,0)"
font-family="Arial" font-size="10.6667" font-weight="400" font-style="normal" 
>
</g>

<g fill="none" stroke="#000000" stroke-opacity="1" stroke-width="1.51181" stroke-linecap="round" stroke-linejoin="round" transform="matrix(1,0,0,1,0,0)"
font-family="Arial" font-size="10.6667" font-weight="400" font-style="normal" 
>
</g>

<g fill="#000000" fill-opacity="1" stroke="#000000" stroke-opacity="1" stroke-width="1" stroke-linecap="square" stroke-linejoin="bevel" transform="matrix(1,0,0,1,0,0)"
font-family="Arial" font-size="10.6667" font-weight="400" font-style="normal" 
>
<path vector-effect="none" fill-rule="evenodd" d="M760.86,4663.94 L788.452,4666.03 L788.703,4662.73 L765.488,4660.97 L789.846,4647.64 L790.163,4643.47 L762.57,4641.38 L762.32,4644.68 L785.41,4646.43 L761.176,4659.76 L760.86,4663.94 M771.5,4628.37 C771.068,4634.08 775.342,4637.44 781.169,4637.88 C787.416,4638.36 791.197,4635.19 791.672,4628.93 C791.829,4626.86 791.628,4624.76 791.053,4622.63 L788.624,4623.04 C789.026,4624.56 789.155,4626.17 789.031,4627.81 C788.696,4632.23 786.031,4634.93 782.089,4634.63 L783.091,4621.42 L782.669,4621.2 L780.908,4621.06 C775.533,4620.66 771.903,4623.06 771.5,4628.37 M780.221,4624.33 L779.462,4634.35 C776.221,4633.7 773.842,4631.79 774.114,4628.21 C774.344,4625.17 777.105,4624.1 780.221,4624.33 M793.018,4611.19 C793.12,4609.83 792.896,4608.45 792.447,4606.93 L790.093,4607.39 C790.253,4607.97 790.421,4608.86 790.332,4610.03 C790.145,4612.49 788.794,4612.95 786.239,4612.76 L775.863,4611.97 L776.34,4605.67 L773.707,4605.47 L773.229,4611.77 L767.776,4611.36 L767.682,4614.67 L772.979,4615.07 L772.733,4618.31 L775.366,4618.51 L775.612,4615.27 L786.222,4616.08 C790.289,4616.38 792.715,4615.17 793.018,4611.19 M788.963,4601.01 C788.854,4602.44 789.823,4603.52 791.225,4603.62 C792.378,4603.71 793.212,4603.26 793.704,4602.13 C794.74,4602.73 796.044,4603.52 797.564,4604.54 L798.501,4603.34 C797.155,4601.47 794.949,4598.94 792.036,4598.72 C790.4,4598.59 789.081,4599.45 788.963,4601.01 M795.885,4573.37 C796.018,4571.61 795.801,4569.71 795.186,4567.71 L792.854,4568.28 C793.2,4569.52 793.354,4570.78 793.259,4572.04 C792.898,4576.8 790.187,4579.08 785.014,4578.69 C780.496,4578.35 778.241,4575.84 778.592,4571.21 C778.703,4569.75 779.053,4568.44 779.658,4567.28 L777.287,4566.31 C776.447,4567.89 775.961,4569.54 775.837,4571.18 C775.344,4577.68 779.248,4581.58 785.356,4582.04 C791.463,4582.5 795.425,4579.43 795.885,4573.37 M789.387,4560.08 L777.218,4559.15 L776.967,4562.47 L789.93,4563.46 C793.996,4563.76 796.77,4561.69 797.079,4557.62 C797.236,4555.55 796.72,4553.25 795.629,4550.69 L797.245,4550.05 L797.418,4547.77 L778.192,4546.32 L777.94,4549.63 L793.334,4550.8 C794.105,4552.82 794.455,4554.62 794.334,4556.21 C794.092,4559.4 792.612,4560.32 789.387,4560.08 M798.763,4535.4 C798.866,4534.05 798.642,4532.67 798.193,4531.14 L795.839,4531.61 C795.999,4532.18 796.166,4533.07 796.078,4534.24 C795.891,4536.71 794.54,4537.17 791.984,4536.97 L781.608,4536.19 L782.085,4529.89 L779.452,4529.69 L778.975,4535.99 L773.522,4535.57 L773.427,4538.89 L778.725,4539.29 L778.479,4542.53 L781.112,4542.73 L781.358,4539.49 L791.968,4540.29 C796.034,4540.6 798.461,4539.39 798.763,4535.4 M798.211,4498.66 L797.707,4505.31 L773.027,4503.44 L772.74,4507.23 L775.686,4514.88 L778.442,4514.09 L775.689,4506.98 L797.455,4508.63 L796.896,4516 L799.81,4516.22 L801.125,4498.88 L798.211,4498.66"/>
</g>

<g fill="none" stroke="#000000" stroke-opacity="1" stroke-width="1.51181" stroke-linecap="round" stroke-linejoin="round" transform="matrix(1,0,0,1,0,0)"
font-family="Arial" font-size="10.6667" font-weight="400" font-style="normal" 
>
</g>

<g fill="none" stroke="#000000" stroke-opacity="1" stroke-width="1.51181" stroke-linecap="round" stroke-linejoin="round" transform="matrix(1,0,0,1,0,0)"
font-family="Arial" font-size="10.6667" font-weight="400" font-style="normal" 
>
</g>

<g fill="none" stroke="#000000" stroke-opacity="1" stroke-width="1" stroke-linecap="square" stroke-linejoin="bevel" transform="matrix(1,0,0,1,0,0)"
font-family="Arial" font-size="10.6667" font-weight="400" font-style="normal" 
>
<path vector-effect="none" fill-rule="nonzero" d="M119.558,10454.3 L203.359,10335.7 L362.737,10111.8 L474.049,9955.61 L546.466,9856.64 L615.72,9760.82 L683.392,9669.74 L748.219,9582.78 L811.465,9500.56 L871.548,9421.51 L930.05,9347.19 L986.655,9276.67 L1041.68,9210.9 L1094.49,9147.97 L1145.72,9089.78 L1182.72,9048.99 L1206.75,9023.06 L1231.1,8998.08 L1254.5,8973.41 L1277.58,8950.96 L1299.72,8928.82 L1322.17,8907.64 L1343.99,8887.71 L1365.18,8869.06 L1386.68,8851.35 L1407.24,8833.95 L1428.42,8818.46 L1448.66,8803.28 L1468.27,8789.37 L1487.24,8776.72 L1506.53,8765.02 L1526.14,8754.27 L1544.8,8743.83 L1563.14,8735.61 L1580.53,8727.7 L1599.19,8720.43 L1616.26,8714.74 L1633.66,8709.99 L1651.37,8706.2 L1667.49,8703.98 L1684.57,8701.46 L1701.33,8701.14 L1717.14,8701.14 L1733.27,8702.09 L1748.76,8704.3 L1764.57,8707.46 L1780.7,8711.57 L1796.2,8716.95 L1810.74,8722.64 L1825.92,8730.23 L1833.51,8734.03 L1467.32,10750.3 L119.558,10454.3 M1453.41,10825.6 L31.3306,10512.2 L172.684,10313.3 L331.115,10089.7 L443.692,9934.11 L515.792,9834.18 L585.362,9739.31 L652.718,9647.29 L718.494,9560.01 L781.739,9477.79 L841.822,9398.74 L900.957,9323.16 L957.562,9252.64 L1012.27,9185.92 L1066.34,9123.62 L1117.26,9064.48 L1155.2,9023.37 L1179.24,8997.44 L1203.27,8971.51 L1226.99,8947.8 L1250.7,8924.08 L1273.79,8901.63 L1296.24,8880.44 L1319.01,8860.2 L1340.83,8840.28 L1362.33,8822.57 L1383.84,8804.86 L1405.66,8788.1 L1425.9,8772.92 L1446.45,8758.69 L1467.32,8745.41 L1487.24,8732.45 L1507.8,8721.38 L1527.4,8710.63 L1547.33,8700.82 L1566.62,8692.28 L1586.22,8684.69 L1605.2,8678.37 L1624.49,8672.99 L1643.14,8668.88 L1662.12,8665.72 L1681.41,8663.51 L1700.06,8662.56 L1719.04,8662.56 L1737.7,8664.77 L1755.4,8667.3 L1773.43,8670.78 L1790.82,8675.52 L1808.53,8681.22 L1825.61,8688.17 L1840.47,8694.81 L1453.41,10825.6"/>
</g>

<g fill="none" stroke="#000000" stroke-opacity="1" stroke-width="1.51181" stroke-linecap="round" stroke-linejoin="round" transform="matrix(1,0,0,1,0,0)"
font-family="Arial" font-size="10.6667" font-weight="400" font-style="normal" 
>
</g>

<g fill="none" stroke="#000000" stroke-opacity="1" stroke-width="1.51181" stroke-linecap="round" stroke-linejoin="round" transform="matrix(1,0,0,1,0,0)"
font-family="Arial" font-size="10.6667" font-weight="400" font-style="normal" 
>
</g>

<g fill="#000000" fill-opacity="1" stroke="#000000" stroke-opacity="1" stroke-width="1" stroke-linecap="square" stroke-linejoin="bevel" transform="matrix(1,0,0,1,0,0)"
font-family="Arial" font-size="10.6667" font-weight="400" font-style="normal" 
>
<path vector-effect="none" fill-rule="evenodd" d="M916.131,9950.39 L910.992,9934.98 L905.626,9936.76 L912.712,9958.02 L945.545,9947.08 L943.598,9941.24 L931.117,9945.4 L926.611,9931.88 L921.26,9933.66 L925.766,9947.18 L916.131,9950.39 M936.691,9920.51 L934.744,9914.67 L921.981,9918.93 L920.212,9913.62 L930.445,9901.78 L928.217,9895.09 L917.272,9907.96 C914.085,9903.59 910.078,9902.19 905.439,9903.74 C898.931,9905.91 897.202,9911.49 900.236,9920.59 L903.857,9931.46 L936.691,9920.51 M907.667,9909.63 C912.069,9908.17 913.942,9912.65 915.652,9917.78 L916.63,9920.71 L907.277,9923.83 L905.809,9919.43 C904.337,9915.01 903.62,9910.98 907.667,9909.63 M897.35,9902.89 L901.229,9898.87 C899.065,9897.12 897.063,9895.41 895.878,9891.85 C894.657,9888.19 895.502,9885.49 898.674,9884.43 C902.143,9883.28 908.013,9885.37 923.478,9893.03 L927.125,9891.82 L920.01,9870.47 L914.94,9872.16 L919.194,9884.92 C905.063,9878.45 900.952,9877.18 896.49,9878.67 C890.517,9880.66 888.249,9886.81 890.319,9893.02 C892.043,9898.19 894.38,9900.31 897.35,9902.89 "/>
</g>

<g fill="none" stroke="#000000" stroke-opacity="1" stroke-width="1.51181" stroke-linecap="round" stroke-linejoin="round" transform="matrix(1,0,0,1,0,0)"
font-family="Arial" font-size="10.6667" font-weight="400" font-style="normal" 
>
</g>

<g fill="none" stroke="#000000" stroke-opacity="1" stroke-width="1.51181" stroke-linecap="round" stroke-linejoin="round" transform="matrix(1,0,0,1,0,0)"
font-family="Arial" font-size="10.6667" font-weight="400" font-style="normal" 
>
</g>

<g fill="#000000" fill-opacity="1" stroke="#000000" stroke-opacity="1" stroke-width="1" stroke-linecap="square" stroke-linejoin="bevel" transform="matrix(1,0,0,1,0,0)"
font-family="Arial" font-size="10.6667" font-weight="400" font-style="normal" 
>
<path vector-effect="none" fill-rule="evenodd" d="M1005.38,10024.2 L1000.65,10010.1 L995.726,10011.7 L1002.24,10031.2 L1032.44,10021.2 L1030.65,10015.8 L1019.18,10019.6 L1015.03,10007.2 L1010.1,10008.8 L1014.24,10021.3 L1005.38,10024.2 M1003.6,10004.6 L1024.59,9997.64 L1022.84,9992.4 L1006.7,9997.78 C1005.85,9996.86 1005.2,9995.76 1004.8,9994.54 C1004.2,9992.75 1004.09,9991.14 1004.41,9989.63 L1004.23,9989.39 L999.081,9989.94 C998.928,9991.36 999.096,9992.75 999.546,9994.1 C1000.29,9996.32 1001.61,9998.22 1003.48,9999.77 L1002.35,10000.9 L1003.6,10004.6 M1016.1,9970.73 C1013.88,9964.09 1007.99,9961.21 1001.4,9963.41 C994.852,9965.59 991.952,9971.32 994.16,9977.94 C996.403,9984.67 1002.11,9987.51 1008.78,9985.29 C1015.33,9983.11 1018.31,9977.37 1016.1,9970.73 M998.34,9976.65 C997.135,9973.03 999.472,9970.01 1003.27,9968.75 C1007.12,9967.46 1010.67,9968.37 1011.92,9972.12 C1013.11,9975.69 1010.71,9978.68 1006.99,9979.92 C1003.33,9981.14 999.531,9980.22 998.34,9976.65 M991.764,9939.48 C986.057,9941.38 982.959,9944.34 984.955,9950.33 C985.741,9952.68 987.178,9954.92 989.204,9956.95 L988.117,9958.18 L989.372,9961.95 L1010.36,9954.95 L1008.57,9949.59 L992.772,9954.85 C991.27,9952.97 990.331,9951.43 989.926,9950.22 C989.051,9947.6 990.454,9945.88 992.9,9945.06 L1005.65,9940.81 L1003.86,9935.44 L991.764,9939.48 M996.379,9915.47 L992.935,9917.49 C993.404,9918.21 994.343,9919.69 994.837,9921.18 C995.796,9924.05 994.575,9925.18 992.959,9925.72 L983.043,9929.03 L980.632,9921.79 L976.451,9923.19 L978.863,9930.42 L972.266,9932.62 L974.06,9938 L980.656,9935.8 L981.817,9939.28 L985.998,9937.89 L984.836,9934.41 L994.886,9931.06 C998.592,9929.82 1001.77,9927.74 999.541,9921.06 C998.874,9919.06 997.436,9916.77 996.379,9915.47 M991.645,9898.8 L989.856,9893.44 L978.117,9897.35 L976.486,9892.46 L985.899,9881.56 L983.848,9875.41 L973.778,9887.25 C970.843,9883.24 967.167,9881.94 962.883,9883.37 C956.91,9885.36 955.323,9890.49 958.12,9898.88 L961.45,9908.87 L991.645,9898.8 M964.939,9888.8 C969,9887.44 970.705,9891.57 972.276,9896.28 L973.18,9898.99 L964.583,9901.86 L963.229,9897.8 C961.875,9893.74 961.233,9890.03 964.939,9888.8 M958.436,9877.59 C957.868,9875.89 955.832,9874.87 954.128,9875.44 C952.423,9876 951.405,9878.04 951.973,9879.74 C952.542,9881.45 954.577,9882.47 956.282,9881.9 C957.987,9881.33 959.005,9879.29 958.436,9877.59 M961.846,9879.37 L982.835,9872.37 L981.086,9867.12 L960.097,9874.12 L961.846,9879.37 M983.903,9851.12 C984.397,9852.6 984.639,9854.51 984.579,9856.8 L984.56,9857.78 L988.923,9857.92 L989.007,9856.99 C989.14,9854.33 988.74,9851.69 987.895,9849.16 C985.419,9841.73 979.831,9839.05 973.012,9841.32 L951.504,9848.49 L952.739,9852.2 L954.157,9852.25 C953.718,9854.69 953.866,9857.06 954.607,9859.28 C956.687,9865.52 962.355,9867.95 968.862,9865.78 C975.577,9863.54 978.507,9857.95 976.269,9851.24 C975.602,9849.24 974.88,9848.36 973.675,9847.06 C979.041,9845.28 982.129,9845.79 983.903,9851.12 M971.827,9851.7 C973.255,9855.98 971.743,9858.86 967.37,9860.32 C962.745,9861.86 959.691,9860.55 958.293,9856.36 C957.843,9855.01 957.7,9853.69 957.829,9852.35 L969.569,9848.43 C970.626,9849.28 971.377,9850.35 971.827,9851.7 M950.022,9830.66 C949.078,9827.82 950.298,9826.4 952.996,9825.5 L965.789,9821.23 L964,9815.87 L951.904,9819.9 C946.197,9821.8 943.06,9824.64 945.095,9830.75 C945.777,9832.79 946.978,9834.77 948.643,9836.7 L937.378,9840.45 L939.166,9845.82 L970.502,9835.37 L968.714,9830.01 L952.823,9835.3 C951.366,9833.55 950.471,9832 950.022,9830.66 M956.218,9794.99 L952.774,9797.01 C953.243,9797.73 954.182,9799.21 954.676,9800.69 C955.635,9803.57 954.414,9804.7 952.799,9805.24 L942.882,9808.54 L940.471,9801.31 L936.29,9802.7 L938.702,9809.94 L932.105,9812.14 L933.899,9817.52 L940.495,9815.32 L941.656,9818.8 L945.837,9817.41 L944.675,9813.92 L954.726,9810.57 C958.431,9809.34 961.608,9807.26 959.38,9800.57 C958.713,9798.57 957.275,9796.29 956.218,9794.99 M924.012,9788.3 L927.584,9784.59 C925.593,9782.96 923.755,9781.4 922.663,9778.13 C921.541,9774.76 922.312,9772.28 925.232,9771.31 C928.419,9770.25 933.825,9772.18 948.045,9779.22 L951.41,9778.1 L944.863,9758.46 L940.194,9760.01 L944.107,9771.75 C931.122,9765.8 927.327,9764.65 923.236,9766.01 C917.737,9767.84 915.632,9773.49 917.539,9779.21 C919.125,9783.97 921.289,9785.91 924.012,9788.3 "/>
</g>

<g fill="none" stroke="#000000" stroke-opacity="1" stroke-width="1.51181" stroke-linecap="round" stroke-linejoin="round" transform="matrix(1,0,0,1,0,0)"
font-family="Arial" font-size="10.6667" font-weight="400" font-style="normal" 
>
</g>

<g fill="none" stroke="#000000" stroke-opacity="1" stroke-width="1.51181" stroke-linecap="round" stroke-linejoin="round" transform="matrix(1,0,0,1,0,0)"
font-family="Arial" font-size="10.6667" font-weight="400" font-style="normal" 
>
</g>

<g fill="#000000" fill-opacity="1" stroke="#000000" stroke-opacity="1" stroke-width="1" stroke-linecap="square" stroke-linejoin="bevel" transform="matrix(1,0,0,1,0,0)"
font-family="Arial" font-size="10.6667" font-weight="400" font-style="normal" 
>
<path vector-effect="none" fill-rule="evenodd" d="M1043.07,9969.13 L1071.96,9959.5 L1070.81,9956.03 L1046.51,9964.13 L1065.54,9940.25 L1064.09,9935.87 L1035.2,9945.5 L1036.35,9948.96 L1060.52,9940.9 L1041.61,9964.75 L1043.07,9969.13 M1038.69,9928.41 C1040.68,9934.39 1046.45,9935.99 1052.54,9933.96 C1059.1,9931.77 1061.58,9926.96 1059.39,9920.39 C1058.67,9918.23 1057.57,9916.19 1056.09,9914.26 L1053.79,9915.72 C1054.86,9917.09 1055.67,9918.67 1056.24,9920.39 C1057.78,9925.01 1056.23,9928.87 1052.1,9930.25 L1047.49,9916.44 L1046.97,9916.38 L1045.13,9917 C1039.49,9918.87 1036.84,9922.86 1038.69,9928.41 M1045.82,9920.6 L1049.31,9931.08 C1045.75,9931.81 1042.53,9930.89 1041.28,9927.14 C1040.22,9923.97 1042.56,9921.69 1045.82,9920.6 M1053.2,9901.82 C1052.73,9900.41 1051.93,9899.1 1050.82,9897.75 L1048.63,9899.23 C1049.03,9899.74 1049.58,9900.57 1049.99,9901.79 C1050.85,9904.37 1049.67,9905.42 1047,9906.31 L1036.13,9909.93 L1033.94,9903.33 L1031.18,9904.25 L1033.38,9910.85 L1027.67,9912.75 L1028.99,9916.16 L1034.53,9914.32 L1035.66,9917.7 L1038.42,9916.78 L1037.29,9913.4 L1048.41,9909.69 C1052.66,9908.27 1054.59,9906 1053.2,9901.82 M1044.57,9892.66 C1045.08,9894.17 1046.51,9894.84 1047.97,9894.36 C1049.19,9893.95 1049.84,9893.12 1049.85,9891.79 C1051.16,9891.94 1052.82,9892.18 1054.81,9892.59 L1055.24,9890.96 C1053.09,9889.64 1049.76,9888.01 1046.71,9889.03 C1045,9889.6 1044.03,9891.02 1044.57,9892.66 M1039.88,9861.87 C1039.27,9860.03 1038.24,9858.2 1036.76,9856.42 L1034.65,9858 C1035.53,9859.11 1036.21,9860.31 1036.66,9861.65 C1038.31,9866.61 1036.54,9870.08 1031.11,9871.89 C1026.4,9873.46 1023.05,9871.9 1021.43,9867.05 C1020.92,9865.51 1020.71,9864.05 1020.84,9862.6 L1018.01,9862.62 C1017.82,9864.58 1018.04,9866.47 1018.61,9868.17 C1020.88,9874.98 1026.5,9877.28 1032.89,9875.15 C1039.28,9873.02 1041.99,9868.22 1039.88,9861.87 M1027.57,9850.97 L1014.83,9855.22 L1015.99,9858.69 L1029.57,9854.16 C1033.82,9852.74 1035.74,9849.45 1034.32,9845.2 C1033.6,9843.03 1032.11,9840.93 1029.91,9838.78 L1031.28,9837.45 L1030.48,9835.06 L1010.35,9841.77 L1011.51,9845.24 L1027.64,9839.87 C1029.27,9841.59 1030.38,9843.26 1030.94,9844.94 C1032.05,9848.27 1030.96,9849.84 1027.57,9850.97 M1026.63,9822.13 C1026.16,9820.72 1025.36,9819.41 1024.26,9818.07 L1022.06,9819.54 C1022.46,9820.05 1023.02,9820.88 1023.43,9822.1 C1024.29,9824.68 1023.1,9825.73 1020.44,9826.62 L1009.57,9830.24 L1007.37,9823.64 L1004.62,9824.56 L1006.81,9831.16 L1001.11,9833.06 L1002.43,9836.48 L1007.97,9834.63 L1009.1,9838.01 L1011.85,9837.09 L1010.73,9833.71 L1021.84,9830 C1026.1,9828.58 1028.03,9826.31 1026.63,9822.13 M1010.28,9784.63 L1012.6,9791.6 L986.763,9800.21 L988.083,9804.17 L994.338,9810.68 L996.789,9808.69 L990.973,9802.66 L1013.76,9795.06 L1016.33,9802.79 L1019.38,9801.77 L1013.33,9783.61 L1010.28,9784.63"/>
</g>

<g fill="none" stroke="#000000" stroke-opacity="1" stroke-width="1.51181" stroke-linecap="round" stroke-linejoin="round" transform="matrix(1,0,0,1,0,0)"
font-family="Arial" font-size="10.6667" font-weight="400" font-style="normal" 
>
</g>

<g fill="none" stroke="#000000" stroke-opacity="1" stroke-width="1.51181" stroke-linecap="round" stroke-linejoin="round" transform="matrix(1,0,0,1,0,0)"
font-family="Arial" font-size="10.6667" font-weight="400" font-style="normal" 
>
</g>

<g fill="none" stroke="#000000" stroke-opacity="1" stroke-width="1" stroke-linecap="square" stroke-linejoin="bevel" transform="matrix(1,0,0,1,0,0)"
font-family="Arial" font-size="10.6667" font-weight="400" font-style="normal" 
>
<path vector-effect="none" fill-rule="nonzero" d="M114.75,10596.9 L1222.1,10841 L1205.07,11068.8 L1185.62,11351.9 L1174.25,11518 L1165.69,11666.6 L1159.22,11801.8 L1154.63,11896.6 L1153.07,11958 L1151.21,12018.3 L1150.3,12078.4 L1149.1,12137.5 L1149.14,12197.3 L1149.49,12258 L1150.14,12319.7 L1151.87,12414.6 L1154.89,12550 L1160.23,12699.4 L1167.54,12864.9 L1180.01,13149.4 L1191.13,13376.7 L1005,13408.3 L114.75,10596.9 M959.716,13454.1 L30.5231,10519.7 L1263.02,10791.3 L1242.66,11071.6 L1223.21,11354.6 L1212.5,11519.6 L1203.93,11668.1 L1196.51,11803.6 L1192.87,11898.2 L1190.36,11959.8 L1189.45,12019.9 L1188.25,12079 L1187.04,12138.1 L1187.09,12197.9 L1187.13,12257.7 L1187.78,12319.3 L1189.51,12414.2 L1192.53,12549.7 L1198.52,12697.8 L1204.57,12862.6 L1218,13146.8 L1230.8,13409.2 L959.716,13454.1"/>
</g>

<g fill="none" stroke="#000000" stroke-opacity="1" stroke-width="1.51181" stroke-linecap="round" stroke-linejoin="round" transform="matrix(1,0,0,1,0,0)"
font-family="Arial" font-size="10.6667" font-weight="400" font-style="normal" 
>
</g>

<g fill="none" stroke="#000000" stroke-opacity="1" stroke-width="1.51181" stroke-linecap="round" stroke-linejoin="round" transform="matrix(1,0,0,1,0,0)"
font-family="Arial" font-size="10.6667" font-weight="400" font-style="normal" 
>
</g>

<g fill="#000000" fill-opacity="1" stroke="#000000" stroke-opacity="1" stroke-width="1" stroke-linecap="square" stroke-linejoin="bevel" transform="matrix(1,0,0,1,0,0)"
font-family="Arial" font-size="10.6667" font-weight="400" font-style="normal" 
>
<path vector-effect="none" fill-rule="evenodd" d="M967.274,12408 L969.133,12413.9 L981.958,12409.9 L983.647,12415.2 L973.236,12426.9 L975.364,12433.6 L986.501,12420.9 C989.622,12425.3 993.607,12426.8 998.27,12425.3 C1004.81,12423.2 1006.62,12417.7 1003.73,12408.5 L1000.27,12397.6 L967.274,12408 M996.131,12419.4 C991.706,12420.8 989.902,12416.3 988.27,12411.1 L987.336,12408.2 L996.735,12405.2 L998.136,12409.6 C999.542,12414 1000.2,12418.1 996.131,12419.4 M1005.79,12433.8 L1010.7,12449.3 L1016.09,12447.6 L1009.33,12426.2 L976.331,12436.6 L978.189,12442.5 L990.732,12438.5 L995.033,12452.1 L1000.41,12450.4 L996.109,12436.8 L1005.79,12433.8"/>
</g>

<g fill="none" stroke="#000000" stroke-opacity="1" stroke-width="1.51181" stroke-linecap="round" stroke-linejoin="round" transform="matrix(1,0,0,1,0,0)"
font-family="Arial" font-size="10.6667" font-weight="400" font-style="normal" 
>
</g>

<g fill="none" stroke="#000000" stroke-opacity="1" stroke-width="1.51181" stroke-linecap="round" stroke-linejoin="round" transform="matrix(1,0,0,1,0,0)"
font-family="Arial" font-size="10.6667" font-weight="400" font-style="normal" 
>
</g>

<g fill="#000000" fill-opacity="1" stroke="#000000" stroke-opacity="1" stroke-width="1" stroke-linecap="square" stroke-linejoin="bevel" transform="matrix(1,0,0,1,0,0)"
font-family="Arial" font-size="10.6667" font-weight="400" font-style="normal" 
>
<path vector-effect="none" fill-rule="evenodd" d="M884.829,12343.1 L886.537,12348.5 L898.334,12344.8 L899.891,12349.7 L890.315,12360.5 L892.272,12366.6 L902.52,12354.9 C905.394,12359 909.05,12360.4 913.355,12359 C919.358,12357.1 921.021,12352 918.351,12343.6 L915.172,12333.5 L884.829,12343.1 M911.382,12353.5 C907.3,12354.8 905.658,12350.7 904.158,12345.9 L903.295,12343.2 L911.934,12340.5 L913.227,12344.6 C914.519,12348.6 915.106,12352.4 911.382,12353.5 M895.878,12379.5 C897.991,12386.2 903.847,12389.2 910.461,12387.1 C917.045,12385 920.031,12379.3 917.923,12372.6 C915.781,12365.9 910.118,12362.9 903.415,12365.1 C896.831,12367.2 893.765,12372.8 895.878,12379.5 M913.723,12373.9 C914.874,12377.5 912.492,12380.5 908.679,12381.7 C904.806,12382.9 901.272,12382 900.079,12378.2 C898.942,12374.6 901.383,12371.6 905.122,12370.5 C908.801,12369.3 912.587,12370.3 913.723,12373.9 M904.029,12405.3 C906.142,12411.9 911.998,12414.9 918.611,12412.8 C925.196,12410.7 928.182,12405 926.074,12398.4 C923.932,12391.6 918.269,12388.7 911.565,12390.8 C904.981,12392.9 901.916,12398.6 904.029,12405.3 M921.874,12399.6 C923.025,12403.2 920.643,12406.2 916.829,12407.4 C912.957,12408.7 909.423,12407.7 908.23,12403.9 C907.093,12400.3 909.534,12397.4 913.273,12396.2 C916.952,12395 920.738,12396 921.874,12399.6 M933.907,12415 L931.091,12415.9 L929.983,12412.4 L925.782,12413.8 L926.891,12417.3 L909.999,12422.6 L911.711,12428 L928.603,12422.7 L931.075,12430.5 L935.275,12429.1 L932.804,12421.3 L935.783,12420.4 C937.809,12419.8 940.029,12421 940.906,12423.7 C941.307,12425 941.438,12426.5 941.502,12427.2 L941.571,12428.1 L945.635,12427.7 L945.608,12426.9 C945.576,12424 945.109,12422.3 944.746,12421.1 C942.331,12413.5 936.23,12414.3 933.907,12415 M946.651,12450.1 L951.165,12464.4 L956.11,12462.8 L949.889,12443.2 L919.546,12452.8 L921.253,12458.2 L932.783,12454.5 L936.74,12467 L941.7,12465.4 L937.743,12452.9 L946.651,12450.1 M948.129,12469.7 L927.036,12476.4 L928.706,12481.7 L944.928,12476.6 C945.763,12477.5 946.394,12478.6 946.781,12479.8 C947.352,12481.6 947.436,12483.2 947.092,12484.7 L947.266,12485 L952.428,12484.5 C952.602,12483.1 952.455,12481.7 952.026,12480.3 C951.318,12478.1 950.023,12476.2 948.179,12474.6 L949.327,12473.5 L948.129,12469.7 M935.123,12503.5 C937.236,12510.1 943.091,12513.1 949.705,12511 C956.289,12508.9 959.276,12503.2 957.167,12496.6 C955.026,12489.8 949.362,12486.9 942.659,12489 C936.075,12491.1 933.01,12496.8 935.123,12503.5 M952.968,12497.8 C954.119,12501.4 951.737,12504.4 947.923,12505.6 C944.05,12506.9 940.517,12505.9 939.323,12502.1 C938.187,12498.5 940.628,12495.6 944.367,12494.4 C948.046,12493.2 951.831,12494.2 952.968,12497.8 M958.983,12535.1 C964.718,12533.3 967.861,12530.3 965.955,12524.3 C965.205,12522 963.801,12519.7 961.806,12517.6 L962.912,12516.4 L961.713,12512.6 L940.621,12519.3 L942.328,12524.7 L958.207,12519.7 C959.681,12521.6 960.596,12523.1 960.983,12524.4 C961.818,12527 960.389,12528.7 957.931,12529.5 L945.121,12533.5 L946.828,12538.9 L958.983,12535.1 M954.007,12559 L957.481,12557 C957.022,12556.3 956.106,12554.8 955.634,12553.3 C954.719,12550.4 955.957,12549.3 957.58,12548.8 L967.546,12545.7 L969.847,12552.9 L974.048,12551.6 L971.746,12544.3 L978.375,12542.2 L976.663,12536.8 L970.034,12538.9 L968.926,12535.4 L964.725,12536.7 L965.833,12540.2 L955.734,12543.4 C952.01,12544.6 948.802,12546.7 950.929,12553.4 C951.566,12555.4 952.969,12557.7 954.007,12559 "/>
</g>

<g fill="none" stroke="#000000" stroke-opacity="1" stroke-width="1.51181" stroke-linecap="round" stroke-linejoin="round" transform="matrix(1,0,0,1,0,0)"
font-family="Arial" font-size="10.6667" font-weight="400" font-style="normal" 
>
</g>

<g fill="none" stroke="#000000" stroke-opacity="1" stroke-width="1.51181" stroke-linecap="round" stroke-linejoin="round" transform="matrix(1,0,0,1,0,0)"
font-family="Arial" font-size="10.6667" font-weight="400" font-style="normal" 
>
</g>

<g fill="#000000" fill-opacity="1" stroke="#000000" stroke-opacity="1" stroke-width="1" stroke-linecap="square" stroke-linejoin="bevel" transform="matrix(1,0,0,1,0,0)"
font-family="Arial" font-size="10.6667" font-weight="400" font-style="normal" 
>
<path vector-effect="none" fill-rule="evenodd" d="M852.852,12328.1 C851.14,12322.7 847.24,12319.1 841.669,12320.9 C837.26,12322.2 836.601,12326.3 836.24,12331.2 C835.944,12335.1 836.26,12340.1 832.849,12341.1 C829.288,12342.3 826.644,12339 825.385,12335.1 C824.748,12333 824.523,12330.6 824.784,12326.7 L821.467,12326.5 C821.153,12329.6 821.133,12332.2 822.303,12335.9 C824.109,12341.6 828.426,12346.4 834.161,12344.6 C839.658,12342.8 839.346,12337.3 839.773,12332.2 C840.021,12329.2 840.117,12325.2 843.14,12324.2 C846.164,12323.2 848.628,12325.3 849.93,12329.4 C850.543,12331.4 850.775,12334 850.348,12336.1 L853.364,12336.7 C854.04,12333.8 853.687,12330.7 852.852,12328.1 M852.055,12346.8 C852.451,12348.1 853.785,12348.8 855.036,12348.4 C856.302,12348 856.98,12346.6 856.583,12345.4 C856.182,12344.1 854.868,12343.4 853.602,12343.8 C852.351,12344.2 851.654,12345.6 852.055,12346.8 M848.26,12346.2 L828.031,12352.6 L829.092,12355.9 L849.321,12349.5 L848.26,12346.2 M835.728,12367.4 C834.908,12364.8 836.22,12364.3 837.769,12363.8 L862.273,12356.1 L861.169,12352.6 L835.459,12360.7 C832.599,12361.6 831.189,12364 832.057,12366.7 C832.68,12368.7 833.699,12369.9 834.343,12370.5 L836.47,12369 C836.176,12368.5 835.983,12368.2 835.728,12367.4 M867.827,12377.4 L838.795,12386.6 L839.899,12390.1 L864.313,12382.3 L844.922,12405.9 L846.314,12410.3 L875.346,12401.1 L874.247,12397.6 L849.952,12405.3 L869.223,12381.8 L867.827,12377.4 M872.976,12424.2 L854.222,12423.3 L869.042,12411.8 L867.887,12408.1 L849.195,12423 L838.157,12422.3 L839.27,12425.8 L874.028,12427.5 L872.976,12424.2 M859.879,12443.7 C859.058,12441.1 860.371,12440.6 861.92,12440.1 L886.424,12432.3 L885.32,12428.8 L859.61,12437 C856.749,12437.9 855.34,12440.3 856.208,12443 C856.83,12445 857.85,12446.2 858.493,12446.8 L860.621,12445.3 C860.327,12444.8 860.134,12444.5 859.879,12443.7 M861.568,12459.8 C863.549,12466 869.084,12468.3 875.325,12466.4 C881.701,12464.4 884.722,12459.6 882.713,12453.3 C880.708,12446.9 875.367,12444.6 868.991,12446.6 C862.69,12448.6 859.578,12453.5 861.568,12459.8 M879.942,12454.1 C881.249,12458.3 878.288,12461.6 874.147,12462.9 C869.902,12464.3 865.707,12463.2 864.391,12459.1 C863.037,12454.8 865.76,12451.5 870.095,12450.1 C874.326,12448.8 878.589,12449.9 879.942,12454.1 M883.968,12484 L870.964,12488.2 L872.068,12491.6 L885.906,12487.3 C890.241,12485.9 892.102,12482.8 890.734,12478.4 C889.989,12476.1 888.55,12473.9 886.435,12471.9 L887.674,12470.6 L886.915,12468.2 L866.686,12474.6 L867.79,12478.1 L884.19,12472.9 C885.795,12474.6 886.856,12476.4 887.399,12478.1 C888.45,12481.4 887.365,12483 883.968,12484 M879.36,12498.6 C878.879,12497.1 877.462,12496.4 875.987,12496.9 C874.765,12497.3 874.106,12498.1 874.071,12499.4 C872.769,12499.2 871.112,12499 869.122,12498.5 L868.668,12500.2 C870.802,12501.5 874.103,12503.2 877.171,12502.2 C878.884,12501.7 879.879,12500.3 879.36,12498.6 M883.589,12529.5 C884.174,12531.3 885.169,12533.2 886.625,12535 L888.758,12533.4 C887.895,12532.3 887.232,12531.1 886.807,12529.8 C885.227,12524.8 887.053,12521.3 892.505,12519.6 C897.242,12518.1 900.573,12519.7 902.115,12524.6 C902.606,12526.1 902.791,12527.6 902.641,12529 L905.467,12529.1 C905.685,12527.1 905.496,12525.2 904.953,12523.5 C902.788,12516.7 897.196,12514.3 890.776,12516.3 C884.355,12518.3 881.571,12523.1 883.589,12529.5 M895.737,12540.6 L908.532,12536.5 L907.429,12533 L893.784,12537.3 C889.509,12538.7 887.542,12542 888.896,12546.2 C889.585,12548.4 891.045,12550.5 893.211,12552.7 L891.822,12554 L892.582,12556.4 L912.811,12550 L911.707,12546.5 L895.5,12551.7 C893.896,12549.9 892.804,12548.2 892.271,12546.5 C891.21,12543.2 892.325,12541.6 895.737,12540.6 M896.235,12569.4 C896.684,12570.8 897.464,12572.2 898.55,12573.5 L900.766,12572.1 C900.374,12571.6 899.828,12570.7 899.441,12569.5 C898.621,12566.9 899.817,12565.9 902.498,12565 L913.417,12561.6 L915.516,12568.2 L918.287,12567.3 L916.188,12560.7 L921.923,12558.9 L920.655,12555.4 L915.084,12557.2 L914.009,12553.8 L911.238,12554.7 L912.313,12558.1 L901.141,12561.6 C896.866,12563 894.905,12565.2 896.235,12569.4 M929.784,12580.9 L927.571,12583.1 C929.309,12584.5 931.184,12586 932.141,12589.1 C933.259,12592.6 932.24,12595.6 928.709,12596.8 C924.643,12598 919.955,12595.9 905.497,12589.3 L903.233,12590.1 L908.676,12607.3 L911.744,12606.3 L907.839,12593.9 C922.245,12600.4 925.866,12601.5 929.813,12600.2 C934.893,12598.6 936.987,12593.8 935.369,12588.7 C934.068,12584.5 932.365,12583.1 929.784,12580.9 "/>
</g>

<g fill="none" stroke="#000000" stroke-opacity="1" stroke-width="1.51181" stroke-linecap="round" stroke-linejoin="round" transform="matrix(1,0,0,1,0,0)"
font-family="Arial" font-size="10.6667" font-weight="400" font-style="normal" 
>
</g>

<g fill="none" stroke="#000000" stroke-opacity="1" stroke-width="1.51181" stroke-linecap="round" stroke-linejoin="round" transform="matrix(1,0,0,1,0,0)"
font-family="Arial" font-size="10.6667" font-weight="400" font-style="normal" 
>
</g>

<g fill="none" stroke="#000000" stroke-opacity="1" stroke-width="1" stroke-linecap="square" stroke-linejoin="bevel" transform="matrix(1,0,0,1,0,0)"
font-family="Arial" font-size="10.6667" font-weight="400" font-style="normal" 
>
<path vector-effect="none" fill-rule="nonzero" d="M2299,13519 L2299,21872 L725,21872 L742,21488 L773,20797 L793,20334 L805,20045 L816,19773 L826,19515 L835,19271 L843,19037 L850,18814 L855,18599 L860,18391 L863,18189 L865,17990 L866,17793 L866,17597 L865,17401 L863,17202 L860,16999 L855,16791 L850,16577 L843,16353 L835,16120 L826,15875 L816,15618 L805,15345 L793,15057 L773,14594 L742,13902 L725,13519 L2299,13519 M2299,13462 L2299,21928 L665,21928 L685,21486 L716,20795 L737,20331 L749,20043 L760,19771 L770,19513 L779,19269 L786,19036 L793,18813 L798,18598 L803,18390 L806,18188 L808,17989 L810,17793 L810,17598 L808,17401 L806,17203 L803,17000 L798,16793 L793,16578 L786,16355 L779,16122 L770,15877 L760,15620 L749,15348 L737,15059 L716,14596 L685,13905 L665,13462 L2299,13462"/>
</g>

<g fill="none" stroke="#000000" stroke-opacity="1" stroke-width="1.51181" stroke-linecap="round" stroke-linejoin="round" transform="matrix(1,0,0,1,0,0)"
font-family="Arial" font-size="10.6667" font-weight="400" font-style="normal" 
>
</g>

<g fill="none" stroke="#000000" stroke-opacity="1" stroke-width="1.51181" stroke-linecap="round" stroke-linejoin="round" transform="matrix(1,0,0,1,0,0)"
font-family="Arial" font-size="10.6667" font-weight="400" font-style="normal" 
>
</g>

<g fill="#000000" fill-opacity="1" stroke="#000000" stroke-opacity="1" stroke-width="1" stroke-linecap="square" stroke-linejoin="bevel" transform="matrix(1,0,0,1,0,0)"
font-family="Arial" font-size="10.6667" font-weight="400" font-style="normal" 
>
<path vector-effect="none" fill-rule="evenodd" d="M1755.98,16126 L1750.7,16126 L1750.7,16137.6 L1745.89,16137.6 L1739,16126 L1732.94,16126 L1740.47,16138.4 C1736.03,16139.8 1733.8,16142.7 1733.8,16146.9 C1733.8,16152.8 1737.89,16155.8 1746.14,16155.8 L1755.98,16155.8 L1755.98,16126 M1739.22,16146.7 C1739.22,16142.7 1743.39,16142.4 1748.03,16142.4 L1750.7,16142.4 L1750.7,16150.9 L1746.7,16150.9 C1742.7,16150.9 1739.22,16150.4 1739.22,16146.7 M1731.28,16141.1 C1731.28,16131.8 1725.05,16125.6 1715.58,16125.6 C1712.88,16125.6 1709.78,16126.3 1706.39,16127.6 L1705.66,16127.9 L1707.38,16132.2 L1708.14,16131.9 C1710.69,16130.9 1712.88,16130.4 1714.64,16130.4 C1721.47,16130.4 1725.98,16134.5 1725.98,16141.1 C1725.98,16147.2 1721.78,16151.5 1715.41,16151.5 C1712.48,16151.5 1711.16,16151.3 1708.62,16150.4 L1707.8,16150.1 L1706,16154.3 L1706.91,16154.7 C1709.61,16155.8 1712.45,16156.4 1715.5,16156.4 C1724.78,16156.4 1731.28,16150.4 1731.28,16141.1 M1687.7,16130.9 L1687.7,16155.8 L1692.86,16155.8 L1701.67,16151.8 L1700,16147.6 L1692.98,16150.7 L1692.98,16130.9 L1700.95,16130.9 L1700.95,16126 L1680.52,16126 L1680.52,16130.9 L1687.7,16130.9"/>
</g>

<g fill="none" stroke="#000000" stroke-opacity="1" stroke-width="1.51181" stroke-linecap="round" stroke-linejoin="round" transform="matrix(1,0,0,1,0,0)"
font-family="Arial" font-size="10.6667" font-weight="400" font-style="normal" 
>
</g>

<g fill="none" stroke="#000000" stroke-opacity="1" stroke-width="1.51181" stroke-linecap="round" stroke-linejoin="round" transform="matrix(1,0,0,1,0,0)"
font-family="Arial" font-size="10.6667" font-weight="400" font-style="normal" 
>
</g>

<g fill="#000000" fill-opacity="1" stroke="#000000" stroke-opacity="1" stroke-width="1" stroke-linecap="square" stroke-linejoin="bevel" transform="matrix(1,0,0,1,0,0)"
font-family="Arial" font-size="10.6667" font-weight="400" font-style="normal" 
>
<path vector-effect="none" fill-rule="evenodd" d="M1863.77,16076 L1858.97,16076 L1858.97,16086.5 L1854.61,16086.5 L1848.36,16076 L1842.86,16076 L1849.69,16087.3 C1845.67,16088.6 1843.64,16091.2 1843.64,16095 C1843.64,16100.3 1847.34,16103 1854.84,16103 L1863.77,16103 L1863.77,16076 M1848.56,16094.8 C1848.56,16091.2 1852.34,16090.9 1856.55,16090.9 L1858.97,16090.9 L1858.97,16098.6 L1855.34,16098.6 C1851.72,16098.6 1848.56,16098.1 1848.56,16094.8 M1831.27,16075.6 C1825.34,16075.6 1821.44,16079.6 1821.44,16085.5 C1821.44,16091.3 1825.27,16095.2 1831.19,16095.2 C1837.2,16095.2 1841.02,16091.4 1841.02,16085.4 C1841.02,16079.5 1837.2,16075.6 1831.27,16075.6 M1831.27,16091.5 C1828.03,16091.5 1826.23,16088.8 1826.23,16085.4 C1826.23,16082 1827.91,16079.4 1831.27,16079.4 C1834.47,16079.4 1836.22,16082.1 1836.22,16085.4 C1836.22,16088.7 1834.47,16091.5 1831.27,16091.5 M1808.27,16075.6 C1802.34,16075.6 1798.44,16079.6 1798.44,16085.5 C1798.44,16091.3 1802.27,16095.2 1808.19,16095.2 C1814.2,16095.2 1818.02,16091.4 1818.02,16085.4 C1818.02,16079.5 1814.2,16075.6 1808.27,16075.6 M1808.27,16091.5 C1805.03,16091.5 1803.23,16088.8 1803.23,16085.4 C1803.23,16082 1804.91,16079.4 1808.27,16079.4 C1811.47,16079.4 1813.22,16082.1 1813.22,16085.4 C1813.22,16088.7 1811.47,16091.5 1808.27,16091.5 M1792.59,16097.2 L1792.59,16094.8 L1795.72,16094.8 L1795.72,16091 L1792.59,16091 L1792.59,16076 L1787.8,16076 L1787.8,16091 L1780.86,16091 L1780.86,16094.8 L1787.8,16094.8 L1787.8,16097.4 C1787.8,16099.2 1786.25,16100.7 1783.78,16100.7 C1782.66,16100.7 1781.41,16100.4 1780.86,16100.3 L1780.08,16100.1 L1779.38,16103.5 L1780.05,16103.7 C1782.34,16104.4 1783.91,16104.5 1784.92,16104.5 C1791.7,16104.5 1792.59,16099.3 1792.59,16097.2 M1766.94,16089.7 C1766.94,16081.3 1761.28,16075.6 1752.7,16075.6 C1750.25,16075.6 1747.44,16076.2 1744.36,16077.4 L1743.69,16077.7 L1745.25,16081.7 L1745.95,16081.3 C1748.27,16080.5 1750.25,16080 1751.84,16080 C1758.05,16080 1762.14,16083.7 1762.14,16089.7 C1762.14,16095.3 1758.33,16099.1 1752.55,16099.1 C1749.89,16099.1 1748.69,16098.9 1746.39,16098.2 L1745.64,16097.9 L1744,16101.7 L1744.83,16102 C1747.28,16103 1749.86,16103.5 1752.62,16103.5 C1761.05,16103.5 1766.94,16098.1 1766.94,16089.7 M1732.2,16095.2 C1737.55,16095.2 1741.02,16090.8 1741.02,16085.4 C1741.02,16079.3 1737.28,16075.6 1730.95,16075.6 C1728.61,16075.6 1726.39,16076 1724.25,16076.8 L1725.06,16080 C1726.67,16079.6 1728.42,16079.4 1730.33,16079.4 C1733.92,16079.4 1735.95,16080.9 1736.22,16083.8 L1723.31,16083.8 L1723.31,16085.6 C1723.31,16091.8 1726.31,16095.2 1732.2,16095.2 M1736.11,16087.1 C1735.98,16089.8 1734.5,16091.5 1732.12,16091.5 C1729.47,16091.5 1727.98,16090.1 1727.98,16087.1 L1736.11,16087.1 M1701.5,16086.8 C1701.5,16091.9 1703.05,16095.2 1708.39,16095.2 C1710.5,16095.2 1712.69,16094.6 1714.88,16093.5 L1715.58,16094.8 L1718.92,16094.8 L1718.92,16076 L1714.12,16076 L1714.12,16090.1 C1712.22,16090.8 1710.73,16091.2 1709.64,16091.2 C1707.3,16091.2 1706.3,16089.6 1706.3,16087.4 L1706.3,16076 L1701.5,16076 L1701.5,16086.8 M1683.47,16076.7 L1684.17,16080 C1684.88,16079.8 1686.31,16079.4 1687.64,16079.4 C1690.22,16079.4 1690.8,16080.7 1690.8,16082.2 L1690.8,16091 L1684.33,16091 L1684.33,16094.8 L1690.8,16094.8 L1690.8,16100.7 L1695.59,16100.7 L1695.59,16094.8 L1698.72,16094.8 L1698.72,16091 L1695.59,16091 L1695.59,16082 C1695.59,16078.7 1694.78,16075.6 1688.81,16075.6 C1687.02,16075.6 1684.8,16076.2 1683.47,16076.7 M1672.2,16095.2 C1677.55,16095.2 1681.02,16090.8 1681.02,16085.4 C1681.02,16079.3 1677.28,16075.6 1670.95,16075.6 C1668.61,16075.6 1666.39,16076 1664.25,16076.8 L1665.06,16080 C1666.67,16079.6 1668.42,16079.4 1670.33,16079.4 C1673.92,16079.4 1675.95,16080.9 1676.22,16083.8 L1663.31,16083.8 L1663.31,16085.6 C1663.31,16091.8 1666.31,16095.2 1672.2,16095.2 M1676.11,16087.1 C1675.98,16089.8 1674.5,16091.5 1672.12,16091.5 C1669.47,16091.5 1667.98,16090.1 1667.98,16087.1 L1676.11,16087.1 M1658.92,16094.8 L1658.92,16076 L1654.25,16076 L1654.25,16090.4 C1653.27,16090.9 1652.22,16091.1 1651.12,16091.1 C1649.53,16091.1 1648.2,16090.8 1647.06,16090.1 L1646.83,16090.2 L1645.91,16094.5 C1646.98,16095 1648.16,16095.2 1649.38,16095.2 C1651.36,16095.2 1653.23,16094.6 1654.98,16093.5 L1655.58,16094.8 L1658.92,16094.8 M1632.94,16089.7 C1632.94,16081.3 1627.28,16075.6 1618.7,16075.6 C1616.25,16075.6 1613.44,16076.2 1610.36,16077.4 L1609.69,16077.7 L1611.25,16081.7 L1611.95,16081.3 C1614.27,16080.5 1616.25,16080 1617.84,16080 C1624.05,16080 1628.14,16083.7 1628.14,16089.7 C1628.14,16095.3 1624.33,16099.1 1618.55,16099.1 C1615.89,16099.1 1614.69,16098.9 1612.39,16098.2 L1611.64,16097.9 L1610,16101.7 L1610.83,16102 C1613.28,16103 1615.86,16103.5 1618.62,16103.5 C1627.05,16103.5 1632.94,16098.1 1632.94,16089.7 M1590.44,16087.6 C1590.44,16093 1593.22,16095.2 1599.06,16095.2 C1600.7,16095.2 1602.81,16094.8 1605.38,16093.9 L1604.64,16090.6 C1602.89,16091.3 1601.28,16091.6 1599.8,16091.6 C1596.25,16091.6 1595.23,16090.8 1595.23,16087.5 L1599.09,16087.3 C1603.47,16087.1 1607.02,16085.4 1607.02,16081.2 C1607.02,16077.6 1604.02,16075.6 1600.27,16075.6 C1598.05,16075.6 1596.22,16076.2 1594.73,16077.3 L1594.19,16076 L1590.44,16076 L1590.44,16087.6 M1595.23,16080.2 C1596.25,16079.6 1597.39,16079.2 1599.09,16079.2 C1600.81,16079.2 1602.22,16079.9 1602.22,16081.6 C1602.22,16083 1601.02,16083.8 1598.55,16084 L1595.23,16084.2 L1595.23,16080.2 M1572.47,16076.7 L1573.17,16080 C1573.88,16079.8 1575.31,16079.4 1576.64,16079.4 C1579.22,16079.4 1579.8,16080.7 1579.8,16082.2 L1579.8,16091 L1573.33,16091 L1573.33,16094.8 L1579.8,16094.8 L1579.8,16100.7 L1584.59,16100.7 L1584.59,16094.8 L1587.72,16094.8 L1587.72,16091 L1584.59,16091 L1584.59,16082 C1584.59,16078.7 1583.78,16075.6 1577.81,16075.6 C1576.02,16075.6 1573.8,16076.2 1572.47,16076.7 "/>
</g>

<g fill="none" stroke="#000000" stroke-opacity="1" stroke-width="1.51181" stroke-linecap="round" stroke-linejoin="round" transform="matrix(1,0,0,1,0,0)"
font-family="Arial" font-size="10.6667" font-weight="400" font-style="normal" 
>
</g>

<g fill="none" stroke="#000000" stroke-opacity="1" stroke-width="1.51181" stroke-linecap="round" stroke-linejoin="round" transform="matrix(1,0,0,1,0,0)"
font-family="Arial" font-size="10.6667" font-weight="400" font-style="normal" 
>
</g>

<g fill="#000000" fill-opacity="1" stroke="#000000" stroke-opacity="1" stroke-width="1" stroke-linecap="square" stroke-linejoin="bevel" transform="matrix(1,0,0,1,0,0)"
font-family="Arial" font-size="10.6667" font-weight="400" font-style="normal" 
>
<path vector-effect="none" fill-rule="evenodd" d="M1832.91,16054.1 C1837.67,16054.1 1841.52,16051.9 1841.52,16047 C1841.52,16043.1 1838.45,16041.5 1834.56,16040 C1831.53,16038.8 1827.5,16037.8 1827.5,16034.8 C1827.5,16031.6 1830.75,16030.3 1834.27,16030.3 C1836.05,16030.3 1838.08,16030.8 1841.08,16032 L1842.16,16029.4 C1839.75,16028.3 1837.59,16027.6 1834.34,16027.6 C1829.31,16027.6 1824.42,16029.9 1824.42,16035 C1824.42,16039.8 1828.94,16041 1832.91,16042.6 C1835.23,16043.5 1838.45,16044.7 1838.45,16047.3 C1838.45,16050 1836.16,16051.4 1832.53,16051.4 C1830.83,16051.4 1828.64,16050.9 1827.05,16050 L1825.88,16052.3 C1827.98,16053.6 1830.56,16054.1 1832.91,16054.1 M1817.94,16048.7 C1816.81,16048.7 1815.94,16049.6 1815.94,16050.7 C1815.94,16051.8 1816.81,16052.7 1817.94,16052.7 C1819.05,16052.7 1819.92,16051.8 1819.92,16050.7 C1819.92,16049.6 1819.05,16048.7 1817.94,16048.7 M1819.41,16045.8 L1819.41,16028 L1816.45,16028 L1816.45,16045.8 L1819.41,16045.8 M1805.97,16030.4 C1808.27,16030.4 1808.34,16031.6 1808.34,16033 L1808.34,16054.6 L1811.41,16054.6 L1811.41,16031.9 C1811.41,16029.4 1809.86,16027.6 1807.45,16027.6 C1805.72,16027.6 1804.48,16028.1 1803.86,16028.5 L1804.48,16030.6 C1804.97,16030.5 1805.27,16030.4 1805.97,16030.4 M1789.86,16053.6 L1789.86,16028 L1786.78,16028 L1786.78,16049.5 L1772.8,16028 L1768.91,16028 L1768.91,16053.6 L1771.98,16053.6 L1771.98,16032.2 L1785.97,16053.6 L1789.86,16053.6 M1750.91,16045.8 L1756.38,16031 L1761.86,16045.8 L1765.08,16045.8 L1757.89,16027.1 L1761.3,16018.4 L1758.19,16018.4 L1747.98,16045.8 L1750.91,16045.8 M1738.97,16030.4 C1741.27,16030.4 1741.34,16031.6 1741.34,16033 L1741.34,16054.6 L1744.41,16054.6 L1744.41,16031.9 C1744.41,16029.4 1742.86,16027.6 1740.45,16027.6 C1738.72,16027.6 1737.48,16028.1 1736.86,16028.5 L1737.48,16030.6 C1737.97,16030.5 1738.27,16030.4 1738.97,16030.4 M1725.56,16027.7 C1720.05,16027.7 1716.8,16031.5 1716.8,16037 C1716.8,16042.7 1719.83,16046.3 1725.42,16046.3 C1731,16046.3 1734.22,16042.6 1734.22,16037 C1734.22,16031.4 1731.11,16027.7 1725.56,16027.7 M1725.42,16043.8 C1721.8,16043.8 1719.86,16040.6 1719.86,16037 C1719.86,16033.2 1721.75,16030.1 1725.42,16030.1 C1729.19,16030.1 1731.16,16033.1 1731.16,16037 C1731.16,16040.7 1729.19,16043.8 1725.42,16043.8 M1700.45,16039.5 L1700.45,16028 L1697.39,16028 L1697.39,16040.2 C1697.39,16044 1699.42,16046.3 1703.23,16046.3 C1705.31,16046.3 1707.45,16045.7 1709.59,16044.5 L1710.27,16045.8 L1712.38,16045.8 L1712.38,16028 L1709.3,16028 L1709.3,16042.5 C1707.53,16043.3 1705.86,16043.7 1704.34,16043.7 C1701.42,16043.7 1700.45,16042.5 1700.45,16039.5 M1690.11,16032.1 C1691.45,16032.1 1692.38,16031.1 1692.38,16029.8 C1692.38,16028.7 1691.89,16028 1690.81,16027.6 C1691.3,16026.6 1691.92,16025.4 1692.78,16023.9 L1691.59,16023.1 C1689.97,16024.5 1687.78,16026.7 1687.78,16029.4 C1687.78,16030.9 1688.67,16032.1 1690.11,16032.1 M1664.48,16027.6 C1662.86,16027.6 1661.12,16028 1659.31,16028.7 L1660.02,16030.8 C1661.12,16030.4 1662.27,16030.1 1663.45,16030.1 C1667.86,16030.1 1670.16,16032.5 1670.16,16037.3 C1670.16,16041.5 1668,16043.7 1663.72,16043.7 C1662.34,16043.7 1661.12,16043.5 1660.02,16043 L1659.28,16045.3 C1660.8,16046 1662.34,16046.3 1663.86,16046.3 C1669.89,16046.3 1673.22,16042.4 1673.22,16036.7 C1673.22,16031.1 1670.11,16027.6 1664.48,16027.6 M1652.34,16034.5 L1652.34,16045.8 L1655.41,16045.8 L1655.41,16033.8 C1655.41,16030 1653.3,16027.6 1649.53,16027.6 C1647.61,16027.6 1645.53,16028.3 1643.23,16029.4 L1642.53,16028 L1640.42,16028 L1640.42,16045.8 L1643.5,16045.8 L1643.5,16031.5 C1645.31,16030.7 1646.94,16030.2 1648.42,16030.2 C1651.38,16030.2 1652.34,16031.5 1652.34,16034.5 M1629.27,16027.6 C1628.02,16027.6 1626.75,16027.9 1625.38,16028.4 L1625.97,16030.6 C1626.5,16030.4 1627.31,16030.2 1628.38,16030.2 C1630.67,16030.2 1631.19,16031.4 1631.19,16033.8 L1631.19,16043.4 L1625.34,16043.4 L1625.34,16045.8 L1631.19,16045.8 L1631.19,16050.9 L1634.27,16050.8 L1634.27,16045.8 L1637.27,16045.8 L1637.27,16043.4 L1634.27,16043.4 L1634.27,16033.5 C1634.27,16029.8 1632.97,16027.6 1629.27,16027.6 M1612.08,16051.6 L1610.86,16049.3 C1609.3,16050.3 1607.59,16051.4 1604.94,16051.4 C1601.83,16051.4 1599.64,16049.8 1599.64,16046.7 C1599.64,16043.1 1602.53,16039.9 1611.48,16030 L1611.48,16028 L1596.31,16028 L1596.31,16030.7 L1607.19,16030.7 C1598.34,16040.6 1596.58,16043.2 1596.58,16046.7 C1596.58,16051.2 1599.94,16054.1 1604.45,16054.1 C1608.08,16054.1 1609.67,16053.1 1612.08,16051.6 "/>
</g>

<g fill="none" stroke="#000000" stroke-opacity="1" stroke-width="1.51181" stroke-linecap="round" stroke-linejoin="round" transform="matrix(1,0,0,1,0,0)"
font-family="Arial" font-size="10.6667" font-weight="400" font-style="normal" 
>
</g>

<g fill="none" stroke="#000000" stroke-opacity="1" stroke-width="1.51181" stroke-linecap="round" stroke-linejoin="round" transform="matrix(1,0,0,1,0,0)"
font-family="Arial" font-size="10.6667" font-weight="400" font-style="normal" 
>
</g>

<g fill="none" stroke="#000000" stroke-opacity="1" stroke-width="1" stroke-linecap="square" stroke-linejoin="bevel" transform="matrix(1,0,0,1,0,0)"
font-family="Arial" font-size="10.6667" font-weight="400" font-style="normal" 
>
<path vector-effect="none" fill-rule="nonzero" d="M277.927,28627.7 L89.5871,28619.4 L450.585,20629.7 L639.924,20637.9 L277.927,28627.7 M718.778,20566.4 L350.37,28706.5 L10.7336,28690.9 L379.142,20550.8 L718.778,20566.4"/>
</g>

<g fill="none" stroke="#000000" stroke-opacity="1" stroke-width="1.51181" stroke-linecap="round" stroke-linejoin="round" transform="matrix(1,0,0,1,0,0)"
font-family="Arial" font-size="10.6667" font-weight="400" font-style="normal" 
>
</g>

<g fill="none" stroke="#000000" stroke-opacity="1" stroke-width="1.51181" stroke-linecap="round" stroke-linejoin="round" transform="matrix(1,0,0,1,0,0)"
font-family="Arial" font-size="10.6667" font-weight="400" font-style="normal" 
>
</g>

<g fill="#000000" fill-opacity="1" stroke="#000000" stroke-opacity="1" stroke-width="1" stroke-linecap="square" stroke-linejoin="bevel" transform="matrix(1,0,0,1,0,0)"
font-family="Arial" font-size="10.6667" font-weight="400" font-style="normal" 
>
<path vector-effect="none" fill-rule="evenodd" d="M559.481,21001.4 L558.72,20976.5 L554.284,20976.7 L554.852,20995.2 L542.305,20977 L536.917,20977.2 L537.679,21002.1 L542.098,21001.9 L541.534,20983.5 L554.155,21001.6 L559.481,21001.4 M522.733,20999 C520.187,20999 518.483,20998.5 516.397,20997.8 L515.049,21001.8 L515.554,21001.9 C517.844,21002.7 519.843,21003.1 523.013,21003 C528.011,21002.9 532.33,21000.5 532.183,20995.7 C532.03,20990.7 527.99,20989.4 524.034,20988.3 C521.969,20987.8 518.187,20986.8 518.125,20984.8 C518.051,20982.3 521.054,20981.4 523.709,20981.3 C525.505,20981.2 527.785,20981.7 530.596,20982.6 L531.293,20982.9 L532.674,20979 L532.088,20978.7 C529.259,20977.7 527.395,20977.1 523.944,20977.2 C518.29,20977.4 513.545,20979.7 513.705,20984.9 C513.857,20989.9 517.96,20991.1 521.917,20992.2 C523.84,20992.7 527.688,20993.8 527.742,20995.6 C527.815,20998 525.325,20998.9 522.733,20999 "/>
</g>

<g fill="none" stroke="#000000" stroke-opacity="1" stroke-width="1.51181" stroke-linecap="round" stroke-linejoin="round" transform="matrix(1,0,0,1,0,0)"
font-family="Arial" font-size="10.6667" font-weight="400" font-style="normal" 
>
</g>

<g fill="none" stroke="#000000" stroke-opacity="1" stroke-width="1.51181" stroke-linecap="round" stroke-linejoin="round" transform="matrix(1,0,0,1,0,0)"
font-family="Arial" font-size="10.6667" font-weight="400" font-style="normal" 
>
</g>

<g fill="#000000" fill-opacity="1" stroke="#000000" stroke-opacity="1" stroke-width="1" stroke-linecap="square" stroke-linejoin="bevel" transform="matrix(1,0,0,1,0,0)"
font-family="Arial" font-size="10.6667" font-weight="400" font-style="normal" 
>
<path vector-effect="none" fill-rule="evenodd" d="M597.906,20956.5 L597.229,20934.3 L593.294,20934.4 L593.798,20950.9 L582.642,20934.8 L577.848,20934.9 L578.524,20957 L582.46,20956.9 L581.959,20940.5 L593.174,20956.6 L597.906,20956.5 M567.506,20951 C571.895,20950.9 574.627,20947.2 574.492,20942.7 C574.339,20937.7 571.185,20934.8 566,20935 C564.079,20935 562.262,20935.4 560.532,20936.1 L561.284,20938.7 C562.585,20938.3 564.017,20938.1 565.579,20938.1 C568.515,20938 570.224,20939.1 570.516,20941.5 L559.927,20941.9 L559.973,20943.4 C560.126,20948.4 562.68,20951.1 567.506,20951 M570.505,20944.3 C570.478,20946.4 569.303,20947.9 567.35,20947.9 C565.18,20948 563.927,20946.9 563.852,20944.5 L570.505,20944.3 M545.348,20936.5 L546.009,20939.2 C546.582,20939 547.76,20938.6 548.838,20938.6 C550.962,20938.5 551.463,20939.6 551.499,20940.8 L551.721,20948 L546.411,20948.2 L546.505,20951.3 L551.815,20951.1 L551.962,20955.9 L555.898,20955.8 L555.751,20951 L558.312,20950.9 L558.218,20947.8 L555.657,20947.9 L555.432,20940.6 C555.349,20937.8 554.599,20935.3 549.711,20935.5 C548.243,20935.5 546.429,20936 545.348,20936.5 M525.265,20955.5 C522.985,20955.6 521.47,20955.1 519.621,20954.5 L518.416,20958 L518.874,20958.1 C520.911,20958.8 522.689,20959.2 525.501,20959.1 C529.952,20959 533.794,20956.8 533.663,20952.6 C533.528,20948.1 529.929,20947 526.414,20946.1 C524.57,20945.6 521.214,20944.7 521.159,20942.9 C521.092,20940.7 523.755,20939.9 526.129,20939.8 C527.722,20939.7 529.751,20940.1 532.246,20941 L532.863,20941.2 L534.102,20937.8 L533.579,20937.5 C531.05,20936.6 529.408,20936.1 526.331,20936.2 C521.318,20936.3 517.08,20938.3 517.223,20943 C517.358,20947.4 521.019,20948.5 524.534,20949.5 C526.252,20950 529.675,20951 529.723,20952.5 C529.787,20954.6 527.561,20955.4 525.265,20955.5 M511.969,20954.2 C510.719,20954.2 509.629,20955.4 509.667,20956.6 C509.705,20957.9 510.864,20959 512.113,20958.9 C513.363,20958.9 514.437,20957.7 514.399,20956.5 C514.361,20955.2 513.218,20954.1 511.969,20954.2 M513.833,20952.3 L513.362,20936.9 L509.52,20937 L509.991,20952.4 L513.833,20952.3 M506.525,20944.9 C506.374,20939.9 503.248,20936.9 498.313,20937 C496.907,20937.1 495.514,20937.5 494.163,20938.3 L493.887,20937.5 L491.06,20937.6 L491.762,20960.5 L495.667,20960.4 L495.426,20952.6 C496.408,20953 497.617,20953.1 499.132,20953.1 C503.708,20952.9 506.67,20949.6 506.525,20944.9 M497.734,20940.1 C500.873,20940 502.485,20941.6 502.582,20944.8 C502.687,20948.2 501.21,20950 498.133,20950.1 C497.086,20950.1 496.145,20950 495.337,20949.6 L495.071,20940.9 C495.852,20940.4 496.75,20940.1 497.734,20940.1 M480.547,20953.6 C484.935,20953.5 487.668,20949.8 487.532,20945.4 C487.379,20940.4 484.226,20937.5 479.041,20937.6 C477.12,20937.7 475.303,20938.1 473.572,20938.7 L474.324,20941.3 C475.626,20941 477.058,20940.8 478.62,20940.7 C481.556,20940.6 483.264,20941.8 483.557,20944.2 L472.968,20944.5 L473.014,20946 C473.167,20951 475.721,20953.8 480.547,20953.6 M483.546,20946.9 C483.519,20949.1 482.343,20950.5 480.391,20950.6 C478.22,20950.7 476.968,20949.6 476.893,20947.1 L483.546,20946.9"/>
</g>

<g fill="none" stroke="#000000" stroke-opacity="1" stroke-width="1.51181" stroke-linecap="round" stroke-linejoin="round" transform="matrix(1,0,0,1,0,0)"
font-family="Arial" font-size="10.6667" font-weight="400" font-style="normal" 
>
</g>

<g fill="none" stroke="#000000" stroke-opacity="1" stroke-width="1.51181" stroke-linecap="round" stroke-linejoin="round" transform="matrix(1,0,0,1,0,0)"
font-family="Arial" font-size="10.6667" font-weight="400" font-style="normal" 
>
</g>

<g fill="#000000" fill-opacity="1" stroke="#000000" stroke-opacity="1" stroke-width="1" stroke-linecap="square" stroke-linejoin="bevel" transform="matrix(1,0,0,1,0,0)"
font-family="Arial" font-size="10.6667" font-weight="400" font-style="normal" 
>
<path vector-effect="none" fill-rule="evenodd" d="M622.847,20915.3 L622.213,20894.5 L619.714,20894.6 L620.247,20912.1 L608.391,20895 L605.236,20895.1 L605.871,20915.8 L608.354,20915.7 L607.823,20898.4 L619.693,20915.4 L622.847,20915.3 M595.21,20910.2 C599.504,20910.1 601.681,20906.6 601.547,20902.2 C601.404,20897.5 598.746,20895 594.029,20895.1 C592.468,20895.2 590.93,20895.5 589.385,20896.1 L589.892,20897.8 C590.989,20897.4 592.17,20897.2 593.404,20897.2 C596.731,20897.1 598.942,20898.8 599.033,20901.8 L589.116,20902.1 L588.97,20902.4 L589.01,20903.7 C589.134,20907.8 591.227,20910.3 595.21,20910.2 M591.519,20904 L599.046,20903.8 C598.81,20906.2 597.587,20908.2 594.885,20908.3 C592.605,20908.3 591.59,20906.3 591.519,20904 M580.692,20895.5 C579.677,20895.5 578.653,20895.8 577.557,20896.3 L578.094,20898 C578.512,20897.8 579.162,20897.6 580.036,20897.6 C581.895,20897.5 582.347,20898.5 582.406,20900.4 L582.644,20908.2 L577.896,20908.4 L577.957,20910.4 L582.704,20910.2 L582.83,20914.3 L585.31,20914.1 L585.188,20910.1 L587.624,20910.1 L587.564,20908.1 L585.127,20908.2 L584.883,20900.2 C584.79,20897.1 583.69,20895.4 580.692,20895.5 M569.697,20895.8 C568.682,20895.9 567.658,20896.1 566.562,20896.6 L567.099,20898.3 C567.517,20898.2 568.167,20898 569.042,20897.9 C570.9,20897.9 571.352,20898.9 571.411,20900.8 L571.649,20908.6 L566.902,20908.7 L566.962,20910.7 L571.71,20910.5 L571.835,20914.7 L574.315,20914.5 L574.193,20910.5 L576.629,20910.4 L576.569,20908.4 L574.133,20908.5 L573.889,20900.5 C573.795,20897.5 572.696,20895.8 569.697,20895.8 M563.004,20913.2 C562.098,20913.2 561.402,20913.9 561.429,20914.8 C561.457,20915.7 562.198,20916.4 563.103,20916.4 C563.994,20916.4 564.69,20915.6 564.662,20914.7 C564.635,20913.8 563.894,20913.1 563.004,20913.2 M564.135,20910.8 L563.693,20896.3 L561.288,20896.4 L561.73,20910.8 L564.135,20910.8 M547.282,20906.1 L546.998,20896.8 L544.515,20896.9 L544.817,20906.8 C544.912,20909.9 546.624,20911.7 549.701,20911.6 C551.387,20911.6 553.106,20911 554.826,20910 L555.389,20911 L557.107,20911 L556.665,20896.5 L554.166,20896.6 L554.525,20908.3 C553.109,20909.1 551.776,20909.4 550.542,20909.5 C548.168,20909.6 547.357,20908.6 547.282,20906.1 M535.742,20891.2 C536.616,20891.2 537.795,20891.4 539.247,20891.8 L539.85,20890.1 C538.758,20889.6 536.885,20889.2 535.354,20889.2 C530.684,20889.4 528.154,20892 528.298,20896.7 L528.761,20911.9 L530.526,20911.8 L530.768,20911 L531.498,20911.4 C532.591,20911.9 533.738,20912.1 534.941,20912 C539.345,20911.9 541.71,20908.5 541.575,20904.1 C541.446,20899.8 538.649,20896.8 534.635,20896.9 C533.339,20897 532.068,20897.3 530.823,20898 L530.811,20897.6 C530.685,20893.5 531.728,20891.3 535.742,20891.2 M539.071,20904.5 C539.168,20907.6 537.739,20910 534.584,20910.1 C533.475,20910.1 532.327,20909.9 531.172,20909.4 L530.879,20899.8 C531.769,20899.3 532.869,20899 534.119,20898.9 C537.273,20898.8 538.974,20901.3 539.071,20904.5 M521.954,20900.9 C523.032,20900.9 523.758,20900.1 523.726,20899 C523.699,20898.1 523.29,20897.6 522.407,20897.3 C522.772,20896.5 523.257,20895.4 523.907,20894.2 L522.92,20893.6 C521.642,20894.8 519.932,20896.6 519.999,20898.8 C520.036,20900 520.783,20900.9 521.954,20900.9 M501.291,20897.9 C499.964,20898 498.566,20898.3 497.116,20898.9 L497.73,20900.6 C498.626,20900.2 499.558,20900 500.51,20900 C504.071,20899.9 505.987,20901.7 506.107,20905.6 C506.21,20909 504.533,20910.9 501.05,20911 C499.941,20911 498.951,20910.9 498.034,20910.5 L497.496,20912.4 C498.747,20912.9 500.004,20913.1 501.238,20913.1 C506.126,20912.9 508.732,20909.7 508.592,20905.1 C508.451,20900.5 505.852,20897.8 501.291,20897.9 M491.389,20903.9 L491.669,20913 L494.168,20912.9 L493.87,20903.2 C493.777,20900.1 491.999,20898.2 488.938,20898.3 C487.392,20898.4 485.72,20898.9 483.891,20899.9 L483.278,20898.8 L481.575,20898.8 L482.017,20913.3 L484.5,20913.2 L484.146,20901.6 C485.594,20900.9 486.91,20900.5 488.113,20900.5 C490.502,20900.4 491.315,20901.4 491.389,20903.9 M472.742,20898.8 C471.727,20898.8 470.704,20899.1 469.608,20899.6 L470.145,20901.3 C470.562,20901.1 471.212,20900.9 472.087,20900.9 C473.945,20900.8 474.398,20901.8 474.456,20903.7 L474.695,20911.5 L469.947,20911.7 L470.007,20913.7 L474.755,20913.5 L474.88,20917.6 L477.36,20917.4 L477.238,20913.4 L479.674,20913.4 L479.614,20911.4 L477.178,20911.5 L476.934,20903.5 C476.84,20900.4 475.741,20898.7 472.742,20898.8 M459.046,20918.7 L458.004,20916.8 C456.765,20917.7 455.418,20918.6 453.263,20918.7 C450.748,20918.8 448.929,20917.5 448.851,20915 C448.763,20912.1 451.026,20909.4 458.042,20901.2 L457.993,20899.6 L445.686,20899.9 L445.753,20902.1 L454.577,20901.9 C447.654,20910.1 446.282,20912.3 446.368,20915.1 C446.479,20918.7 449.285,20921 452.939,20920.9 C455.875,20920.8 457.147,20920 459.046,20918.7 "/>
</g>

<g fill="none" stroke="#000000" stroke-opacity="1" stroke-width="1.51181" stroke-linecap="round" stroke-linejoin="round" transform="matrix(1,0,0,1,0,0)"
font-family="Arial" font-size="10.6667" font-weight="400" font-style="normal" 
>
</g>

<g fill="none" stroke="#000000" stroke-opacity="1" stroke-width="1.51181" stroke-linecap="round" stroke-linejoin="round" transform="matrix(1,0,0,1,0,0)"
font-family="Arial" font-size="10.6667" font-weight="400" font-style="normal" 
>
</g>
</g>
</svg>
