<?xml version="1.0" encoding="UTF-8" standalone="no"?>
<svg width="609.6mm" height="5322.62mm"
 viewBox="0 0 2304 20117"
 xmlns="http://www.w3.org/2000/svg" xmlns:xlink="http://www.w3.org/1999/xlink"  version="1.2" baseProfile="tiny">
<title>Valentina. Pattern layout</title>
<defs>
</defs>
<g fill="none" stroke="black" stroke-width="1" fill-rule="evenodd" stroke-linecap="square" stroke-linejoin="bevel" >

<g fill="none" stroke="#000000" stroke-opacity="1" stroke-width="1.51181" stroke-linecap="round" stroke-linejoin="round" transform="matrix(1,0,0,1,0,0)"
font-family="Arial" font-size="10.6667" font-weight="400" font-style="normal" 
>
</g>

<g fill="none" stroke="#000000" stroke-opacity="1" stroke-width="1.51181" stroke-linecap="round" stroke-linejoin="round" transform="matrix(1,0,0,1,0,0)"
font-family="Arial" font-size="10.6667" font-weight="400" font-style="normal" 
>
</g>

<g fill="none" stroke="#000000" stroke-opacity="1" stroke-width="1.51181" stroke-linecap="round" stroke-linejoin="round" transform="matrix(1,0,0,1,0,0)"
font-family="Arial" font-size="10.6667" font-weight="400" font-style="normal" 
>
</g>

<g fill="none" stroke="#000000" stroke-opacity="1" stroke-width="1" stroke-linecap="square" stroke-linejoin="bevel" transform="matrix(1,0,0,1,0,0)"
font-family="Arial" font-size="10.6667" font-weight="400" font-style="normal" 
>
<path vector-effect="none" fill-rule="nonzero" d="M2299,113 L2299,8466 L725,8466 L742,8082 L773,7391 L793,6928 L805,6639 L816,6367 L826,6109 L835,5865 L843,5631 L850,5408 L855,5193 L860,4985 L863,4783 L865,4584 L866,4387 L866,4191 L865,3995 L863,3796 L860,3593 L855,3385 L850,3171 L843,2947 L835,2714 L826,2469 L816,2212 L805,1939 L793,1651 L773,1188 L742,496 L725,113 L2299,113 M2299,0 L2299,8579 L606,8579 L629,8077 L660,7386 L680,6923 L692,6635 L703,6363 L713,6105 L722,5861 L730,5628 L736,5405 L742,5191 L746,4983 L750,4781 L752,4583 L753,4387 L753,4192 L752,3996 L750,3798 L746,3596 L742,3388 L736,3174 L730,2951 L722,2718 L713,2474 L703,2216 L692,1944 L680,1656 L660,1193 L629,501 L606,0 L2299,0"/>
</g>

<g fill="none" stroke="#000000" stroke-opacity="1" stroke-width="1.51181" stroke-linecap="round" stroke-linejoin="round" transform="matrix(1,0,0,1,0,0)"
font-family="Arial" font-size="10.6667" font-weight="400" font-style="normal" 
>
</g>

<g fill="none" stroke="#000000" stroke-opacity="1" stroke-width="1.51181" stroke-linecap="round" stroke-linejoin="round" transform="matrix(1,0,0,1,0,0)"
font-family="Arial" font-size="10.6667" font-weight="400" font-style="normal" 
>
</g>

<g fill="#000000" fill-opacity="1" stroke="#000000" stroke-opacity="1" stroke-width="1" stroke-linecap="square" stroke-linejoin="bevel" transform="matrix(1,0,0,1,0,0)"
font-family="Arial" font-size="10.6667" font-weight="400" font-style="normal" 
>
<path vector-effect="none" fill-rule="evenodd" d="M1755.98,2720 L1750.7,2720 L1750.7,2731.56 L1745.89,2731.56 L1739,2720 L1732.94,2720 L1740.47,2732.42 C1736.03,2733.84 1733.8,2736.73 1733.8,2740.94 C1733.8,2746.83 1737.89,2749.75 1746.14,2749.75 L1755.98,2749.75 L1755.98,2720 M1739.22,2740.72 C1739.22,2736.73 1743.39,2736.42 1748.03,2736.42 L1750.7,2736.42 L1750.7,2744.89 L1746.7,2744.89 C1742.7,2744.89 1739.22,2744.38 1739.22,2740.72 M1731.28,2735.14 C1731.28,2725.81 1725.05,2719.56 1715.58,2719.56 C1712.88,2719.56 1709.78,2720.27 1706.39,2721.59 L1705.66,2721.89 L1707.38,2726.23 L1708.14,2725.89 C1710.69,2724.91 1712.88,2724.42 1714.64,2724.42 C1721.47,2724.42 1725.98,2728.47 1725.98,2735.14 C1725.98,2741.23 1721.78,2745.5 1715.41,2745.5 C1712.48,2745.5 1711.16,2745.28 1708.62,2744.42 L1707.8,2744.12 L1706,2748.34 L1706.91,2748.69 C1709.61,2749.8 1712.45,2750.36 1715.5,2750.36 C1724.78,2750.36 1731.28,2744.38 1731.28,2735.14 M1687.7,2724.86 L1687.7,2749.75 L1692.86,2749.75 L1701.67,2745.84 L1700,2741.62 L1692.98,2744.72 L1692.98,2724.86 L1700.95,2724.86 L1700.95,2720 L1680.52,2720 L1680.52,2724.86 L1687.7,2724.86"/>
</g>

<g fill="none" stroke="#000000" stroke-opacity="1" stroke-width="1.51181" stroke-linecap="round" stroke-linejoin="round" transform="matrix(1,0,0,1,0,0)"
font-family="Arial" font-size="10.6667" font-weight="400" font-style="normal" 
>
</g>

<g fill="none" stroke="#000000" stroke-opacity="1" stroke-width="1.51181" stroke-linecap="round" stroke-linejoin="round" transform="matrix(1,0,0,1,0,0)"
font-family="Arial" font-size="10.6667" font-weight="400" font-style="normal" 
>
</g>

<g fill="#000000" fill-opacity="1" stroke="#000000" stroke-opacity="1" stroke-width="1" stroke-linecap="square" stroke-linejoin="bevel" transform="matrix(1,0,0,1,0,0)"
font-family="Arial" font-size="10.6667" font-weight="400" font-style="normal" 
>
<path vector-effect="none" fill-rule="evenodd" d="M1863.77,2670 L1858.97,2670 L1858.97,2680.48 L1854.61,2680.48 L1848.36,2670 L1842.86,2670 L1849.69,2681.27 C1845.67,2682.56 1843.64,2685.17 1843.64,2689 C1843.64,2694.34 1847.34,2696.98 1854.84,2696.98 L1863.77,2696.98 L1863.77,2670 M1848.56,2688.8 C1848.56,2685.17 1852.34,2684.91 1856.55,2684.91 L1858.97,2684.91 L1858.97,2692.58 L1855.34,2692.58 C1851.72,2692.58 1848.56,2692.11 1848.56,2688.8 M1831.27,2669.61 C1825.34,2669.61 1821.44,2673.59 1821.44,2679.48 C1821.44,2685.33 1825.27,2689.19 1831.19,2689.19 C1837.2,2689.19 1841.02,2685.36 1841.02,2679.41 C1841.02,2673.55 1837.2,2669.61 1831.27,2669.61 M1831.27,2685.48 C1828.03,2685.48 1826.23,2682.8 1826.23,2679.41 C1826.23,2675.97 1827.91,2673.36 1831.27,2673.36 C1834.47,2673.36 1836.22,2676.08 1836.22,2679.41 C1836.22,2682.67 1834.47,2685.48 1831.27,2685.48 M1808.27,2669.61 C1802.34,2669.61 1798.44,2673.59 1798.44,2679.48 C1798.44,2685.33 1802.27,2689.19 1808.19,2689.19 C1814.2,2689.19 1818.02,2685.36 1818.02,2679.41 C1818.02,2673.55 1814.2,2669.61 1808.27,2669.61 M1808.27,2685.48 C1805.03,2685.48 1803.23,2682.8 1803.23,2679.41 C1803.23,2675.97 1804.91,2673.36 1808.27,2673.36 C1811.47,2673.36 1813.22,2676.08 1813.22,2679.41 C1813.22,2682.67 1811.47,2685.48 1808.27,2685.48 M1792.59,2691.25 L1792.59,2688.77 L1795.72,2688.77 L1795.72,2685.02 L1792.59,2685.02 L1792.59,2670 L1787.8,2670 L1787.8,2685.02 L1780.86,2685.02 L1780.86,2688.77 L1787.8,2688.77 L1787.8,2691.41 C1787.8,2693.2 1786.25,2694.69 1783.78,2694.69 C1782.66,2694.69 1781.41,2694.42 1780.86,2694.3 L1780.08,2694.11 L1779.38,2697.5 L1780.05,2697.69 C1782.34,2698.39 1783.91,2698.47 1784.92,2698.47 C1791.7,2698.47 1792.59,2693.33 1792.59,2691.25 M1766.94,2683.73 C1766.94,2675.27 1761.28,2669.61 1752.7,2669.61 C1750.25,2669.61 1747.44,2670.23 1744.36,2671.44 L1743.69,2671.72 L1745.25,2675.66 L1745.95,2675.34 C1748.27,2674.45 1750.25,2674.02 1751.84,2674.02 C1758.05,2674.02 1762.14,2677.69 1762.14,2683.73 C1762.14,2689.27 1758.33,2693.12 1752.55,2693.12 C1749.89,2693.12 1748.69,2692.94 1746.39,2692.16 L1745.64,2691.88 L1744,2695.7 L1744.83,2696.02 C1747.28,2697.03 1749.86,2697.53 1752.62,2697.53 C1761.05,2697.53 1766.94,2692.11 1766.94,2683.73 M1732.2,2689.19 C1737.55,2689.19 1741.02,2684.83 1741.02,2679.41 C1741.02,2673.31 1737.28,2669.61 1730.95,2669.61 C1728.61,2669.61 1726.39,2670.03 1724.25,2670.78 L1725.06,2673.98 C1726.67,2673.59 1728.42,2673.39 1730.33,2673.39 C1733.92,2673.39 1735.95,2674.88 1736.22,2677.8 L1723.31,2677.8 L1723.31,2679.64 C1723.31,2685.75 1726.31,2689.19 1732.2,2689.19 M1736.11,2681.11 C1735.98,2683.77 1734.5,2685.48 1732.12,2685.48 C1729.47,2685.48 1727.98,2684.12 1727.98,2681.11 L1736.11,2681.11 M1701.5,2680.8 C1701.5,2685.91 1703.05,2689.19 1708.39,2689.19 C1710.5,2689.19 1712.69,2688.64 1714.88,2687.55 L1715.58,2688.77 L1718.92,2688.77 L1718.92,2670 L1714.12,2670 L1714.12,2684.12 C1712.22,2684.83 1710.73,2685.17 1709.64,2685.17 C1707.3,2685.17 1706.3,2683.58 1706.3,2681.39 L1706.3,2670 L1701.5,2670 L1701.5,2680.8 M1683.47,2670.66 L1684.17,2673.98 C1684.88,2673.78 1686.31,2673.44 1687.64,2673.44 C1690.22,2673.44 1690.8,2674.72 1690.8,2676.16 L1690.8,2685.02 L1684.33,2685.02 L1684.33,2688.77 L1690.8,2688.77 L1690.8,2694.66 L1695.59,2694.66 L1695.59,2688.77 L1698.72,2688.77 L1698.72,2685.02 L1695.59,2685.02 L1695.59,2676.05 C1695.59,2672.73 1694.78,2669.61 1688.81,2669.61 C1687.02,2669.61 1684.8,2670.16 1683.47,2670.66 M1672.2,2689.19 C1677.55,2689.19 1681.02,2684.83 1681.02,2679.41 C1681.02,2673.31 1677.28,2669.61 1670.95,2669.61 C1668.61,2669.61 1666.39,2670.03 1664.25,2670.78 L1665.06,2673.98 C1666.67,2673.59 1668.42,2673.39 1670.33,2673.39 C1673.92,2673.39 1675.95,2674.88 1676.22,2677.8 L1663.31,2677.8 L1663.31,2679.64 C1663.31,2685.75 1666.31,2689.19 1672.2,2689.19 M1676.11,2681.11 C1675.98,2683.77 1674.5,2685.48 1672.12,2685.48 C1669.47,2685.48 1667.98,2684.12 1667.98,2681.11 L1676.11,2681.11 M1658.92,2688.77 L1658.92,2670 L1654.25,2670 L1654.25,2684.44 C1653.27,2684.86 1652.22,2685.09 1651.12,2685.09 C1649.53,2685.09 1648.2,2684.75 1647.06,2684.08 L1646.83,2684.16 L1645.91,2688.45 C1646.98,2688.95 1648.16,2689.19 1649.38,2689.19 C1651.36,2689.19 1653.23,2688.64 1654.98,2687.55 L1655.58,2688.77 L1658.92,2688.77 M1632.94,2683.73 C1632.94,2675.27 1627.28,2669.61 1618.7,2669.61 C1616.25,2669.61 1613.44,2670.23 1610.36,2671.44 L1609.69,2671.72 L1611.25,2675.66 L1611.95,2675.34 C1614.27,2674.45 1616.25,2674.02 1617.84,2674.02 C1624.05,2674.02 1628.14,2677.69 1628.14,2683.73 C1628.14,2689.27 1624.33,2693.12 1618.55,2693.12 C1615.89,2693.12 1614.69,2692.94 1612.39,2692.16 L1611.64,2691.88 L1610,2695.7 L1610.83,2696.02 C1613.28,2697.03 1615.86,2697.53 1618.62,2697.53 C1627.05,2697.53 1632.94,2692.11 1632.94,2683.73 M1590.44,2681.58 C1590.44,2687 1593.22,2689.19 1599.06,2689.19 C1600.7,2689.19 1602.81,2688.77 1605.38,2687.91 L1604.64,2684.62 C1602.89,2685.28 1601.28,2685.64 1599.8,2685.64 C1596.25,2685.64 1595.23,2684.83 1595.23,2681.5 L1599.09,2681.31 C1603.47,2681.08 1607.02,2679.41 1607.02,2675.22 C1607.02,2671.64 1604.02,2669.61 1600.27,2669.61 C1598.05,2669.61 1596.22,2670.19 1594.73,2671.33 L1594.19,2670 L1590.44,2670 L1590.44,2681.58 M1595.23,2674.25 C1596.25,2673.62 1597.39,2673.16 1599.09,2673.16 C1600.81,2673.16 1602.22,2673.91 1602.22,2675.58 C1602.22,2677.02 1601.02,2677.84 1598.55,2677.95 L1595.23,2678.19 L1595.23,2674.25 M1572.47,2670.66 L1573.17,2673.98 C1573.88,2673.78 1575.31,2673.44 1576.64,2673.44 C1579.22,2673.44 1579.8,2674.72 1579.8,2676.16 L1579.8,2685.02 L1573.33,2685.02 L1573.33,2688.77 L1579.8,2688.77 L1579.8,2694.66 L1584.59,2694.66 L1584.59,2688.77 L1587.72,2688.77 L1587.72,2685.02 L1584.59,2685.02 L1584.59,2676.05 C1584.59,2672.73 1583.78,2669.61 1577.81,2669.61 C1576.02,2669.61 1573.8,2670.16 1572.47,2670.66 "/>
</g>

<g fill="none" stroke="#000000" stroke-opacity="1" stroke-width="1.51181" stroke-linecap="round" stroke-linejoin="round" transform="matrix(1,0,0,1,0,0)"
font-family="Arial" font-size="10.6667" font-weight="400" font-style="normal" 
>
</g>

<g fill="none" stroke="#000000" stroke-opacity="1" stroke-width="1.51181" stroke-linecap="round" stroke-linejoin="round" transform="matrix(1,0,0,1,0,0)"
font-family="Arial" font-size="10.6667" font-weight="400" font-style="normal" 
>
</g>

<g fill="#000000" fill-opacity="1" stroke="#000000" stroke-opacity="1" stroke-width="1" stroke-linecap="square" stroke-linejoin="bevel" transform="matrix(1,0,0,1,0,0)"
font-family="Arial" font-size="10.6667" font-weight="400" font-style="normal" 
>
<path vector-effect="none" fill-rule="evenodd" d="M1832.91,2648.12 C1837.67,2648.12 1841.52,2645.91 1841.52,2640.98 C1841.52,2637.09 1838.45,2635.55 1834.56,2633.98 C1831.53,2632.77 1827.5,2631.77 1827.5,2628.77 C1827.5,2625.62 1830.75,2624.33 1834.27,2624.33 C1836.05,2624.33 1838.08,2624.78 1841.08,2625.95 L1842.16,2623.38 C1839.75,2622.33 1837.59,2621.62 1834.34,2621.62 C1829.31,2621.62 1824.42,2623.89 1824.42,2628.95 C1824.42,2633.8 1828.94,2634.95 1832.91,2636.58 C1835.23,2637.55 1838.45,2638.66 1838.45,2641.31 C1838.45,2643.98 1836.16,2645.42 1832.53,2645.42 C1830.83,2645.42 1828.64,2644.94 1827.05,2644.05 L1825.88,2646.34 C1827.98,2647.61 1830.56,2648.12 1832.91,2648.12 M1817.94,2642.72 C1816.81,2642.72 1815.94,2643.61 1815.94,2644.72 C1815.94,2645.83 1816.81,2646.72 1817.94,2646.72 C1819.05,2646.72 1819.92,2645.83 1819.92,2644.72 C1819.92,2643.61 1819.05,2642.72 1817.94,2642.72 M1819.41,2639.83 L1819.41,2622 L1816.45,2622 L1816.45,2639.83 L1819.41,2639.83 M1805.97,2624.41 C1808.27,2624.41 1808.34,2625.59 1808.34,2626.95 L1808.34,2648.56 L1811.41,2648.56 L1811.41,2625.89 C1811.41,2623.38 1809.86,2621.62 1807.45,2621.62 C1805.72,2621.62 1804.48,2622.14 1803.86,2622.52 L1804.48,2624.59 C1804.97,2624.48 1805.27,2624.41 1805.97,2624.41 M1789.86,2647.61 L1789.86,2622 L1786.78,2622 L1786.78,2643.53 L1772.8,2622 L1768.91,2622 L1768.91,2647.61 L1771.98,2647.61 L1771.98,2626.19 L1785.97,2647.61 L1789.86,2647.61 M1750.91,2639.83 L1756.38,2625.03 L1761.86,2639.83 L1765.08,2639.83 L1757.89,2621.08 L1761.3,2612.42 L1758.19,2612.42 L1747.98,2639.83 L1750.91,2639.83 M1738.97,2624.41 C1741.27,2624.41 1741.34,2625.59 1741.34,2626.95 L1741.34,2648.56 L1744.41,2648.56 L1744.41,2625.89 C1744.41,2623.38 1742.86,2621.62 1740.45,2621.62 C1738.72,2621.62 1737.48,2622.14 1736.86,2622.52 L1737.48,2624.59 C1737.97,2624.48 1738.27,2624.41 1738.97,2624.41 M1725.56,2621.67 C1720.05,2621.67 1716.8,2625.52 1716.8,2631.03 C1716.8,2636.66 1719.83,2640.28 1725.42,2640.28 C1731,2640.28 1734.22,2636.58 1734.22,2630.95 C1734.22,2625.41 1731.11,2621.67 1725.56,2621.67 M1725.42,2637.84 C1721.8,2637.84 1719.86,2634.62 1719.86,2630.95 C1719.86,2627.22 1721.75,2624.11 1725.42,2624.11 C1729.19,2624.11 1731.16,2627.14 1731.16,2630.95 C1731.16,2634.69 1729.19,2637.84 1725.42,2637.84 M1700.45,2633.47 L1700.45,2622 L1697.39,2622 L1697.39,2634.2 C1697.39,2638.02 1699.42,2640.31 1703.23,2640.31 C1705.31,2640.31 1707.45,2639.72 1709.59,2638.55 L1710.27,2639.83 L1712.38,2639.83 L1712.38,2622 L1709.3,2622 L1709.3,2636.47 C1707.53,2637.31 1705.86,2637.72 1704.34,2637.72 C1701.42,2637.72 1700.45,2636.47 1700.45,2633.47 M1690.11,2626.06 C1691.45,2626.06 1692.38,2625.11 1692.38,2623.81 C1692.38,2622.73 1691.89,2622 1690.81,2621.62 C1691.3,2620.62 1691.92,2619.38 1692.78,2617.89 L1691.59,2617.11 C1689.97,2618.48 1687.78,2620.7 1687.78,2623.41 C1687.78,2624.92 1688.67,2626.06 1690.11,2626.06 M1664.48,2621.62 C1662.86,2621.62 1661.12,2621.97 1659.31,2622.67 L1660.02,2624.78 C1661.12,2624.38 1662.27,2624.14 1663.45,2624.14 C1667.86,2624.14 1670.16,2626.48 1670.16,2631.28 C1670.16,2635.47 1668,2637.72 1663.72,2637.72 C1662.34,2637.72 1661.12,2637.5 1660.02,2637.02 L1659.28,2639.28 C1660.8,2639.95 1662.34,2640.28 1663.86,2640.28 C1669.89,2640.28 1673.22,2636.39 1673.22,2630.73 C1673.22,2625.08 1670.11,2621.62 1664.48,2621.62 M1652.34,2628.55 L1652.34,2639.83 L1655.41,2639.83 L1655.41,2627.81 C1655.41,2624.03 1653.3,2621.62 1649.53,2621.62 C1647.61,2621.62 1645.53,2622.27 1643.23,2623.44 L1642.53,2622 L1640.42,2622 L1640.42,2639.83 L1643.5,2639.83 L1643.5,2625.55 C1645.31,2624.7 1646.94,2624.25 1648.42,2624.25 C1651.38,2624.25 1652.34,2625.55 1652.34,2628.55 M1629.27,2621.62 C1628.02,2621.62 1626.75,2621.92 1625.38,2622.44 L1625.97,2624.59 C1626.5,2624.41 1627.31,2624.19 1628.38,2624.19 C1630.67,2624.19 1631.19,2625.41 1631.19,2627.77 L1631.19,2637.39 L1625.34,2637.39 L1625.34,2639.83 L1631.19,2639.83 L1631.19,2644.91 L1634.27,2644.75 L1634.27,2639.83 L1637.27,2639.83 L1637.27,2637.39 L1634.27,2637.39 L1634.27,2627.55 C1634.27,2623.78 1632.97,2621.62 1629.27,2621.62 M1612.08,2645.61 L1610.86,2643.28 C1609.3,2644.31 1607.59,2645.42 1604.94,2645.42 C1601.83,2645.42 1599.64,2643.83 1599.64,2640.72 C1599.64,2637.14 1602.53,2633.92 1611.48,2624 L1611.48,2622 L1596.31,2622 L1596.31,2624.7 L1607.19,2624.7 C1598.34,2634.62 1596.58,2637.25 1596.58,2640.72 C1596.58,2645.2 1599.94,2648.12 1604.45,2648.12 C1608.08,2648.12 1609.67,2647.12 1612.08,2645.61 "/>
</g>

<g fill="none" stroke="#000000" stroke-opacity="1" stroke-width="1.51181" stroke-linecap="round" stroke-linejoin="round" transform="matrix(1,0,0,1,0,0)"
font-family="Arial" font-size="10.6667" font-weight="400" font-style="normal" 
>
</g>

<g fill="none" stroke="#000000" stroke-opacity="1" stroke-width="1.51181" stroke-linecap="round" stroke-linejoin="round" transform="matrix(1,0,0,1,0,0)"
font-family="Arial" font-size="10.6667" font-weight="400" font-style="normal" 
>
</g>

<g fill="none" stroke="#000000" stroke-opacity="1" stroke-width="1" stroke-linecap="square" stroke-linejoin="bevel" transform="matrix(1,0,0,1,0,0)"
font-family="Arial" font-size="10.6667" font-weight="400" font-style="normal" 
>
<path vector-effect="none" fill-rule="nonzero" d="M2179.82,8699.56 L2179.82,17052.6 L605.823,17052.6 L605.823,8699.56 L2179.82,8699.56 M605.823,8586.56 L2293.82,8586.56 L2293.82,17165.6 L605.823,17165.6 L605.823,8586.56"/>
</g>

<g fill="none" stroke="#000000" stroke-opacity="1" stroke-width="1.51181" stroke-linecap="round" stroke-linejoin="round" transform="matrix(1,0,0,1,0,0)"
font-family="Arial" font-size="10.6667" font-weight="400" font-style="normal" 
>
</g>

<g fill="none" stroke="#000000" stroke-opacity="1" stroke-width="1.51181" stroke-linecap="round" stroke-linejoin="round" transform="matrix(1,0,0,1,0,0)"
font-family="Arial" font-size="10.6667" font-weight="400" font-style="normal" 
>
</g>

<g fill="#000000" fill-opacity="1" stroke="#000000" stroke-opacity="1" stroke-width="1" stroke-linecap="square" stroke-linejoin="bevel" transform="matrix(1,0,0,1,0,0)"
font-family="Arial" font-size="10.6667" font-weight="400" font-style="normal" 
>
<path vector-effect="none" fill-rule="evenodd" d="M1178.24,11357.6 L1172.82,11357.6 L1172.82,11369.4 L1167.9,11369.4 L1160.85,11357.6 L1154.65,11357.6 L1162.35,11370.3 C1157.82,11371.7 1155.54,11374.7 1155.54,11379 C1155.54,11385 1159.71,11388 1168.17,11388 L1178.24,11388 L1178.24,11357.6 M1161.07,11378.8 C1161.07,11374.7 1165.35,11374.4 1170.1,11374.4 L1172.82,11374.4 L1172.82,11383 L1168.74,11383 C1164.65,11383 1161.07,11382.5 1161.07,11378.8 M1152.56,11373 C1152.56,11363.5 1146.18,11357.1 1136.49,11357.1 C1133.73,11357.1 1130.56,11357.8 1127.09,11359.2 L1126.34,11359.5 L1128.09,11363.9 L1128.89,11363.6 C1131.48,11362.6 1133.73,11362.1 1135.53,11362.1 C1142.53,11362.1 1147.15,11366.2 1147.15,11373 C1147.15,11379.3 1142.84,11383.7 1136.32,11383.7 C1133.34,11383.7 1131.96,11383.4 1129.37,11382.6 L1128.54,11382.2 L1126.68,11386.6 L1127.6,11386.9 C1130.39,11388.1 1133.29,11388.6 1136.42,11388.6 C1145.92,11388.6 1152.56,11382.5 1152.56,11373 M1107.65,11362.5 L1107.65,11388 L1112.93,11388 L1121.95,11384 L1120.23,11379.7 L1113.06,11382.9 L1113.06,11362.5 L1121.2,11362.5 L1121.2,11357.6 L1100.29,11357.6 L1100.29,11362.5 L1107.65,11362.5"/>
</g>

<g fill="none" stroke="#000000" stroke-opacity="1" stroke-width="1.51181" stroke-linecap="round" stroke-linejoin="round" transform="matrix(1,0,0,1,0,0)"
font-family="Arial" font-size="10.6667" font-weight="400" font-style="normal" 
>
</g>

<g fill="none" stroke="#000000" stroke-opacity="1" stroke-width="1.51181" stroke-linecap="round" stroke-linejoin="round" transform="matrix(1,0,0,1,0,0)"
font-family="Arial" font-size="10.6667" font-weight="400" font-style="normal" 
>
</g>

<g fill="#000000" fill-opacity="1" stroke="#000000" stroke-opacity="1" stroke-width="1" stroke-linecap="square" stroke-linejoin="bevel" transform="matrix(1,0,0,1,0,0)"
font-family="Arial" font-size="10.6667" font-weight="400" font-style="normal" 
>
<path vector-effect="none" fill-rule="evenodd" d="M1266.53,11306.6 L1261.6,11306.6 L1261.6,11317.3 L1257.12,11317.3 L1250.73,11306.6 L1245.09,11306.6 L1252.09,11318.1 C1247.96,11319.4 1245.89,11322.1 1245.89,11326 C1245.89,11331.5 1249.68,11334.2 1257.37,11334.2 L1266.53,11334.2 L1266.53,11306.6 M1250.93,11325.8 C1250.93,11322.1 1254.81,11321.8 1259.12,11321.8 L1261.6,11321.8 L1261.6,11329.7 L1257.89,11329.7 C1254.17,11329.7 1250.93,11329.2 1250.93,11325.8 M1233.81,11306.2 C1227.73,11306.2 1223.73,11310.2 1223.73,11316.3 C1223.73,11322.3 1227.65,11326.2 1233.73,11326.2 C1239.89,11326.2 1243.81,11322.3 1243.81,11316.2 C1243.81,11310.2 1239.89,11306.2 1233.81,11306.2 M1233.81,11322.4 C1230.48,11322.4 1228.65,11319.7 1228.65,11316.2 C1228.65,11312.7 1230.37,11310 1233.81,11310 C1237.09,11310 1238.89,11312.8 1238.89,11316.2 C1238.89,11319.6 1237.09,11322.4 1233.81,11322.4 M1210.81,11306.2 C1204.73,11306.2 1200.73,11310.2 1200.73,11316.3 C1200.73,11322.3 1204.65,11326.2 1210.73,11326.2 C1216.89,11326.2 1220.81,11322.3 1220.81,11316.2 C1220.81,11310.2 1216.89,11306.2 1210.81,11306.2 M1210.81,11322.4 C1207.48,11322.4 1205.65,11319.7 1205.65,11316.2 C1205.65,11312.7 1207.37,11310 1210.81,11310 C1214.09,11310 1215.89,11312.8 1215.89,11316.2 C1215.89,11319.6 1214.09,11322.4 1210.81,11322.4 M1195.32,11328.4 L1195.32,11325.8 L1198.53,11325.8 L1198.53,11321.9 L1195.32,11321.9 L1195.32,11306.6 L1190.4,11306.6 L1190.4,11321.9 L1183.29,11321.9 L1183.29,11325.8 L1190.4,11325.8 L1190.4,11328.5 C1190.4,11330.4 1188.81,11331.9 1186.29,11331.9 C1185.12,11331.9 1183.84,11331.6 1183.29,11331.5 L1182.48,11331.3 L1181.76,11334.7 L1182.45,11334.9 C1184.81,11335.7 1186.4,11335.7 1187.45,11335.7 C1194.4,11335.7 1195.32,11330.5 1195.32,11328.4 M1169.73,11320.6 C1169.73,11312 1163.92,11306.2 1155.12,11306.2 C1152.6,11306.2 1149.73,11306.8 1146.57,11308 L1145.89,11308.3 L1147.48,11312.4 L1148.21,11312 C1150.57,11311.1 1152.6,11310.7 1154.24,11310.7 C1160.6,11310.7 1164.81,11314.4 1164.81,11320.6 C1164.81,11326.3 1160.89,11330.3 1154.96,11330.3 C1152.24,11330.3 1151.01,11330.1 1148.65,11329.3 L1147.89,11329 L1146.21,11332.9 L1147.04,11333.2 C1149.57,11334.3 1152.21,11334.8 1155.04,11334.8 C1163.68,11334.8 1169.73,11329.2 1169.73,11320.6 M1133.76,11326.2 C1139.24,11326.2 1142.81,11321.8 1142.81,11316.2 C1142.81,11310 1138.96,11306.2 1132.48,11306.2 C1130.09,11306.2 1127.81,11306.6 1125.6,11307.4 L1126.45,11310.6 C1128.09,11310.2 1129.89,11310 1131.84,11310 C1135.53,11310 1137.6,11311.6 1137.89,11314.6 L1124.65,11314.6 L1124.65,11316.4 C1124.65,11322.7 1127.73,11326.2 1133.76,11326.2 M1137.76,11317.9 C1137.65,11320.7 1136.12,11322.4 1133.68,11322.4 C1130.96,11322.4 1129.45,11321 1129.45,11317.9 L1137.76,11317.9 M1102.81,11317.6 C1102.81,11322.9 1104.4,11326.2 1109.89,11326.2 C1112.04,11326.2 1114.29,11325.7 1116.53,11324.6 L1117.24,11325.8 L1120.68,11325.8 L1120.68,11306.6 L1115.76,11306.6 L1115.76,11321 C1113.81,11321.8 1112.29,11322.1 1111.17,11322.1 C1108.76,11322.1 1107.73,11320.5 1107.73,11318.2 L1107.73,11306.6 L1102.81,11306.6 L1102.81,11317.6 M1083.89,11307.2 L1084.6,11310.6 C1085.32,11310.4 1086.81,11310.1 1088.17,11310.1 C1090.81,11310.1 1091.4,11311.4 1091.4,11312.9 L1091.4,11321.9 L1084.76,11321.9 L1084.76,11325.8 L1091.4,11325.8 L1091.4,11331.8 L1096.32,11331.8 L1096.32,11325.8 L1099.53,11325.8 L1099.53,11321.9 L1096.32,11321.9 L1096.32,11312.8 C1096.32,11309.4 1095.48,11306.2 1089.37,11306.2 C1087.53,11306.2 1085.24,11306.7 1083.89,11307.2 M1071.76,11326.2 C1077.24,11326.2 1080.81,11321.8 1080.81,11316.2 C1080.81,11310 1076.96,11306.2 1070.48,11306.2 C1068.09,11306.2 1065.81,11306.6 1063.6,11307.4 L1064.45,11310.6 C1066.09,11310.2 1067.89,11310 1069.84,11310 C1073.53,11310 1075.6,11311.6 1075.89,11314.6 L1062.65,11314.6 L1062.65,11316.4 C1062.65,11322.7 1065.73,11326.2 1071.76,11326.2 M1075.76,11317.9 C1075.65,11320.7 1074.12,11322.4 1071.68,11322.4 C1068.96,11322.4 1067.45,11321 1067.45,11317.9 L1075.76,11317.9 M1058.68,11325.8 L1058.68,11306.6 L1053.89,11306.6 L1053.89,11321.4 C1052.89,11321.8 1051.81,11322 1050.68,11322 C1049.04,11322 1047.68,11321.7 1046.53,11321 L1046.29,11321.1 L1045.32,11325.5 C1046.45,11326 1047.65,11326.2 1048.89,11326.2 C1050.93,11326.2 1052.84,11325.7 1054.65,11324.6 L1055.24,11325.8 L1058.68,11325.8 M1019.17,11311.1 L1019.17,11334.2 L1023.96,11334.2 L1032.17,11330.6 L1030.6,11326.7 L1024.09,11329.6 L1024.09,11311.1 L1031.48,11311.1 L1031.48,11306.6 L1012.48,11306.6 L1012.48,11311.1 L1019.17,11311.1"/>
</g>

<g fill="none" stroke="#000000" stroke-opacity="1" stroke-width="1.51181" stroke-linecap="round" stroke-linejoin="round" transform="matrix(1,0,0,1,0,0)"
font-family="Arial" font-size="10.6667" font-weight="400" font-style="normal" 
>
</g>

<g fill="none" stroke="#000000" stroke-opacity="1" stroke-width="1.51181" stroke-linecap="round" stroke-linejoin="round" transform="matrix(1,0,0,1,0,0)"
font-family="Arial" font-size="10.6667" font-weight="400" font-style="normal" 
>
</g>

<g fill="#000000" fill-opacity="1" stroke="#000000" stroke-opacity="1" stroke-width="1" stroke-linecap="square" stroke-linejoin="bevel" transform="matrix(1,0,0,1,0,0)"
font-family="Arial" font-size="10.6667" font-weight="400" font-style="normal" 
>
<path vector-effect="none" fill-rule="evenodd" d="M1256.93,11284.4 C1261.82,11284.4 1265.78,11282.1 1265.78,11277 C1265.78,11273.1 1262.62,11271.5 1258.64,11269.9 C1255.53,11268.6 1251.37,11267.6 1251.37,11264.5 C1251.37,11261.3 1254.71,11259.9 1258.32,11259.9 C1260.15,11259.9 1262.24,11260.4 1265.32,11261.6 L1266.42,11259 C1263.95,11257.9 1261.74,11257.2 1258.4,11257.2 C1253.24,11257.2 1248.23,11259.5 1248.23,11264.7 C1248.23,11269.7 1252.85,11270.9 1256.93,11272.5 C1259.32,11273.5 1262.62,11274.7 1262.62,11277.4 C1262.62,11280.1 1260.26,11281.6 1256.54,11281.6 C1254.79,11281.6 1252.56,11281.1 1250.92,11280.2 L1249.7,11282.6 C1251.87,11283.9 1254.53,11284.4 1256.93,11284.4 M1242.15,11278.8 C1241.01,11278.8 1240.09,11279.7 1240.09,11280.9 C1240.09,11282 1241.01,11282.9 1242.15,11282.9 C1243.28,11282.9 1244.2,11282 1244.2,11280.9 C1244.2,11279.7 1243.28,11278.8 1242.15,11278.8 M1243.67,11275.9 L1243.67,11257.6 L1240.62,11257.6 L1240.62,11275.9 L1243.67,11275.9 M1230.07,11260 C1232.43,11260 1232.51,11261.2 1232.51,11262.7 L1232.51,11284.8 L1235.67,11284.8 L1235.67,11261.5 C1235.67,11259 1234.07,11257.2 1231.6,11257.2 C1229.81,11257.2 1228.56,11257.7 1227.92,11258.1 L1228.56,11260.2 C1229.06,11260.1 1229.35,11260 1230.07,11260 M1214.09,11283.9 L1214.09,11257.6 L1210.93,11257.6 L1210.93,11279.7 L1196.57,11257.6 L1192.59,11257.6 L1192.59,11283.9 L1195.74,11283.9 L1195.74,11261.9 L1210.1,11283.9 L1214.09,11283.9 M1173.82,11275.9 L1179.45,11260.7 L1185.07,11275.9 L1188.37,11275.9 L1180.99,11256.6 L1184.49,11247.7 L1181.31,11247.7 L1170.82,11275.9 L1173.82,11275.9 M1161.07,11260 C1163.43,11260 1163.51,11261.2 1163.51,11262.7 L1163.51,11284.8 L1166.67,11284.8 L1166.67,11261.5 C1166.67,11259 1165.07,11257.2 1162.6,11257.2 C1160.81,11257.2 1159.56,11257.7 1158.92,11258.1 L1159.56,11260.2 C1160.06,11260.1 1160.35,11260 1161.07,11260 M1147.6,11257.2 C1141.95,11257.2 1138.6,11261.2 1138.6,11266.8 C1138.6,11272.6 1141.71,11276.3 1147.46,11276.3 C1153.2,11276.3 1156.49,11272.5 1156.49,11266.7 C1156.49,11261.1 1153.31,11257.2 1147.6,11257.2 M1147.46,11273.8 C1143.73,11273.8 1141.76,11270.5 1141.76,11266.7 C1141.76,11262.9 1143.7,11259.7 1147.46,11259.7 C1151.34,11259.7 1153.34,11262.8 1153.34,11266.7 C1153.34,11270.6 1151.34,11273.8 1147.46,11273.8 M1121.39,11269.3 L1121.39,11257.6 L1118.24,11257.6 L1118.24,11270.1 C1118.24,11274 1120.32,11276.4 1124.24,11276.4 C1126.37,11276.4 1128.57,11275.8 1130.78,11274.5 L1131.46,11275.9 L1133.62,11275.9 L1133.62,11257.6 L1130.48,11257.6 L1130.48,11272.4 C1128.65,11273.3 1126.93,11273.7 1125.39,11273.7 C1122.39,11273.7 1121.39,11272.4 1121.39,11269.3 M1111.31,11261.7 C1112.68,11261.7 1113.62,11260.7 1113.62,11259.4 C1113.62,11258.3 1113.14,11257.6 1112.03,11257.2 C1112.53,11256.2 1113.17,11254.9 1114.04,11253.3 L1112.82,11252.5 C1111.15,11253.9 1108.92,11256.2 1108.92,11259 C1108.92,11260.6 1109.82,11261.7 1111.31,11261.7 M1085.53,11257.2 C1083.85,11257.2 1082.07,11257.5 1080.21,11258.2 L1080.93,11260.4 C1082.07,11260 1083.26,11259.8 1084.46,11259.8 C1088.99,11259.8 1091.34,11262.2 1091.34,11267.1 C1091.34,11271.4 1089.14,11273.7 1084.73,11273.7 C1083.32,11273.7 1082.07,11273.5 1080.93,11273 L1080.18,11275.3 C1081.73,11276 1083.32,11276.3 1084.89,11276.3 C1091.07,11276.3 1094.49,11272.3 1094.49,11266.5 C1094.49,11260.7 1091.31,11257.2 1085.53,11257.2 M1073.51,11264.3 L1073.51,11275.9 L1076.67,11275.9 L1076.67,11263.5 C1076.67,11259.7 1074.49,11257.2 1070.62,11257.2 C1068.65,11257.2 1066.53,11257.8 1064.17,11259 L1063.45,11257.6 L1061.28,11257.6 L1061.28,11275.9 L1064.43,11275.9 L1064.43,11261.2 C1066.29,11260.3 1067.96,11259.9 1069.48,11259.9 C1072.53,11259.9 1073.51,11261.2 1073.51,11264.3 M1049.35,11257.2 C1048.06,11257.2 1046.78,11257.5 1045.37,11258 L1045.98,11260.2 C1046.51,11260 1047.34,11259.8 1048.45,11259.8 C1050.81,11259.8 1051.34,11261.1 1051.34,11263.5 L1051.34,11273.4 L1045.32,11273.4 L1045.32,11275.9 L1051.34,11275.9 L1051.34,11281.1 L1054.48,11280.9 L1054.48,11275.9 L1057.56,11275.9 L1057.56,11273.4 L1054.48,11273.4 L1054.48,11263.3 C1054.48,11259.4 1053.15,11257.2 1049.35,11257.2 M1031.32,11281.8 L1030.07,11279.4 C1028.48,11280.5 1026.73,11281.6 1023.99,11281.6 C1020.79,11281.6 1018.56,11280 1018.56,11276.8 C1018.56,11273.1 1021.53,11269.8 1030.71,11259.6 L1030.71,11257.6 L1015.14,11257.6 L1015.14,11260.3 L1026.31,11260.3 C1017.23,11270.5 1015.4,11273.2 1015.4,11276.8 C1015.4,11281.4 1018.85,11284.4 1023.49,11284.4 C1027.21,11284.4 1028.85,11283.4 1031.32,11281.8 "/>
</g>

<g fill="none" stroke="#000000" stroke-opacity="1" stroke-width="1.51181" stroke-linecap="round" stroke-linejoin="round" transform="matrix(1,0,0,1,0,0)"
font-family="Arial" font-size="10.6667" font-weight="400" font-style="normal" 
>
</g>

<g fill="none" stroke="#000000" stroke-opacity="1" stroke-width="1.51181" stroke-linecap="round" stroke-linejoin="round" transform="matrix(1,0,0,1,0,0)"
font-family="Arial" font-size="10.6667" font-weight="400" font-style="normal" 
>
</g>

<g fill="none" stroke="#000000" stroke-opacity="1" stroke-width="1" stroke-linecap="square" stroke-linejoin="bevel" transform="matrix(1,0,0,1,0,0)"
font-family="Arial" font-size="10.6667" font-weight="400" font-style="normal" 
>
<path vector-effect="none" fill-rule="nonzero" d="M2193.82,17248.1 L2193.82,19970.1 L681.823,17437.1 L681.823,17248.1 L2193.82,17248.1 M605.823,17173.1 L2193.82,17173.1 L2193.82,20117.1 L605.823,17458.1 L605.823,17173.1"/>
</g>

<g fill="none" stroke="#000000" stroke-opacity="1" stroke-width="1.51181" stroke-linecap="round" stroke-linejoin="round" transform="matrix(1,0,0,1,0,0)"
font-family="Arial" font-size="10.6667" font-weight="400" font-style="normal" 
>
</g>

<g fill="none" stroke="#000000" stroke-opacity="1" stroke-width="1.51181" stroke-linecap="round" stroke-linejoin="round" transform="matrix(1,0,0,1,0,0)"
font-family="Arial" font-size="10.6667" font-weight="400" font-style="normal" 
>
</g>

<g fill="#000000" fill-opacity="1" stroke="#000000" stroke-opacity="1" stroke-width="1" stroke-linecap="square" stroke-linejoin="bevel" transform="matrix(1,0,0,1,0,0)"
font-family="Arial" font-size="10.6667" font-weight="400" font-style="normal" 
>
<path vector-effect="none" fill-rule="evenodd" d="M1503.89,17889.2 L1503.89,17860.1 L1498.71,17860.1 L1498.71,17881.8 L1484.73,17860.1 L1478.43,17860.1 L1478.43,17889.2 L1483.59,17889.2 L1483.59,17867.6 L1497.67,17889.2 L1503.89,17889.2 M1467.71,17884.4 L1454.06,17884.4 L1454.06,17889.2 L1472.89,17889.2 L1472.89,17860.1 L1467.71,17860.1 L1467.71,17871.2 L1455.74,17871.2 L1455.74,17875.9 L1467.71,17875.9 L1467.71,17884.4"/>
</g>

<g fill="none" stroke="#000000" stroke-opacity="1" stroke-width="1.51181" stroke-linecap="round" stroke-linejoin="round" transform="matrix(1,0,0,1,0,0)"
font-family="Arial" font-size="10.6667" font-weight="400" font-style="normal" 
>
</g>

<g fill="none" stroke="#000000" stroke-opacity="1" stroke-width="1.51181" stroke-linecap="round" stroke-linejoin="round" transform="matrix(1,0,0,1,0,0)"
font-family="Arial" font-size="10.6667" font-weight="400" font-style="normal" 
>
</g>

<g fill="#000000" fill-opacity="1" stroke="#000000" stroke-opacity="1" stroke-width="1" stroke-linecap="square" stroke-linejoin="bevel" transform="matrix(1,0,0,1,0,0)"
font-family="Arial" font-size="10.6667" font-weight="400" font-style="normal" 
>
<path vector-effect="none" fill-rule="evenodd" d="M1563.17,17837.4 L1563.17,17811.1 L1558.49,17811.1 L1558.49,17830.7 L1545.84,17811.1 L1540.14,17811.1 L1540.14,17837.4 L1544.81,17837.4 L1544.81,17817.9 L1557.54,17837.4 L1563.17,17837.4 M1527.79,17829.8 C1532.99,17829.8 1536.39,17825.6 1536.39,17820.3 C1536.39,17814.4 1532.73,17810.7 1526.57,17810.7 C1524.29,17810.7 1522.14,17811.1 1520.04,17811.9 L1520.84,17815 C1522.4,17814.6 1524.1,17814.4 1525.96,17814.4 C1529.46,17814.4 1531.43,17815.9 1531.71,17818.7 L1519.14,17818.7 L1519.14,17820.5 C1519.14,17826.5 1522.06,17829.8 1527.79,17829.8 M1531.59,17821.9 C1531.48,17824.5 1530.04,17826.2 1527.71,17826.2 C1525.14,17826.2 1523.68,17824.9 1523.68,17821.9 L1531.59,17821.9 M1502.21,17811.8 L1502.89,17815 C1503.57,17814.8 1504.98,17814.5 1506.28,17814.5 C1508.78,17814.5 1509.35,17815.7 1509.35,17817.1 L1509.35,17825.7 L1503.04,17825.7 L1503.04,17829.4 L1509.35,17829.4 L1509.35,17835.1 L1514.03,17835.1 L1514.03,17829.4 L1517.06,17829.4 L1517.06,17825.7 L1514.03,17825.7 L1514.03,17817 C1514.03,17813.8 1513.23,17810.7 1507.42,17810.7 C1505.67,17810.7 1503.49,17811.3 1502.21,17811.8 M1483.49,17833.1 L1471.14,17833.1 L1471.14,17837.4 L1488.17,17837.4 L1488.17,17811.1 L1483.49,17811.1 L1483.49,17821.1 L1472.67,17821.1 L1472.67,17825.4 L1483.49,17825.4 L1483.49,17833.1 M1467.32,17829.4 L1467.32,17811.1 L1462.76,17811.1 L1462.76,17825.2 C1461.81,17825.6 1460.78,17825.8 1459.71,17825.8 C1458.15,17825.8 1456.87,17825.5 1455.76,17824.8 L1455.54,17824.9 L1454.62,17829.1 C1455.68,17829.6 1456.82,17829.8 1458.01,17829.8 C1459.95,17829.8 1461.76,17829.3 1463.48,17828.2 L1464.04,17829.4 L1467.32,17829.4 M1443.89,17810.7 C1438.1,17810.7 1434.31,17814.6 1434.31,17820.4 C1434.31,17826.1 1438.03,17829.8 1443.81,17829.8 C1449.65,17829.8 1453.39,17826.1 1453.39,17820.3 C1453.39,17814.6 1449.65,17810.7 1443.89,17810.7 M1443.89,17826.2 C1440.73,17826.2 1438.98,17823.6 1438.98,17820.3 C1438.98,17816.9 1440.62,17814.4 1443.89,17814.4 C1446.99,17814.4 1448.71,17817 1448.71,17820.3 C1448.71,17823.5 1446.99,17826.2 1443.89,17826.2 M1413.34,17821.6 C1413.34,17826.6 1414.85,17829.8 1420.06,17829.8 C1422.1,17829.8 1424.23,17829.3 1426.37,17828.2 L1427.04,17829.4 L1430.32,17829.4 L1430.32,17811.1 L1425.64,17811.1 L1425.64,17824.9 C1423.78,17825.6 1422.34,17825.9 1421.28,17825.9 C1418.99,17825.9 1418.01,17824.3 1418.01,17822.2 L1418.01,17811.1 L1413.34,17811.1 L1413.34,17821.6 M1395.21,17811.8 L1395.89,17815 C1396.57,17814.8 1397.98,17814.5 1399.28,17814.5 C1401.78,17814.5 1402.35,17815.7 1402.35,17817.1 L1402.35,17825.7 L1396.04,17825.7 L1396.04,17829.4 L1402.35,17829.4 L1402.35,17835.1 L1407.03,17835.1 L1407.03,17829.4 L1410.06,17829.4 L1410.06,17825.7 L1407.03,17825.7 L1407.03,17817 C1407.03,17813.8 1406.23,17810.7 1400.42,17810.7 C1398.67,17810.7 1396.49,17811.3 1395.21,17811.8 "/>
</g>

<g fill="none" stroke="#000000" stroke-opacity="1" stroke-width="1.51181" stroke-linecap="round" stroke-linejoin="round" transform="matrix(1,0,0,1,0,0)"
font-family="Arial" font-size="10.6667" font-weight="400" font-style="normal" 
>
</g>

<g fill="none" stroke="#000000" stroke-opacity="1" stroke-width="1.51181" stroke-linecap="round" stroke-linejoin="round" transform="matrix(1,0,0,1,0,0)"
font-family="Arial" font-size="10.6667" font-weight="400" font-style="normal" 
>
</g>

<g fill="#000000" fill-opacity="1" stroke="#000000" stroke-opacity="1" stroke-width="1" stroke-linecap="square" stroke-linejoin="bevel" transform="matrix(1,0,0,1,0,0)"
font-family="Arial" font-size="10.6667" font-weight="400" font-style="normal" 
>
<path vector-effect="none" fill-rule="evenodd" d="M1646.76,17789 L1646.76,17764.1 L1643.78,17764.1 L1643.78,17785.1 L1630.17,17764.1 L1626.39,17764.1 L1626.39,17789 L1629.37,17789 L1629.37,17768.2 L1642.98,17789 L1646.76,17789 M1613.21,17781.9 C1618.35,17781.9 1621.09,17777.8 1621.09,17772.6 C1621.09,17766.9 1617.99,17763.8 1612.35,17763.8 C1610.48,17763.8 1608.6,17764.1 1606.73,17764.7 L1607.28,17766.9 C1608.6,17766.4 1610.04,17766.2 1611.53,17766.2 C1615.51,17766.2 1618.1,17768.4 1618.1,17772 L1606.2,17772 L1606.01,17772.4 L1606.01,17773.9 C1606.01,17778.8 1608.43,17781.9 1613.21,17781.9 M1608.99,17774.3 L1618.04,17774.3 C1617.68,17777.3 1616.14,17779.6 1612.89,17779.6 C1610.15,17779.6 1608.99,17777.1 1608.99,17774.3 M1596.32,17763.8 C1595.1,17763.8 1593.89,17764 1592.54,17764.6 L1593.12,17766.6 C1593.64,17766.5 1594.42,17766.2 1595.46,17766.2 C1597.7,17766.2 1598.2,17767.4 1598.2,17769.7 L1598.2,17779.1 L1592.51,17779.1 L1592.51,17781.5 L1598.2,17781.5 L1598.2,17786.4 L1601.18,17786.3 L1601.18,17781.5 L1604.1,17781.5 L1604.1,17779.1 L1601.18,17779.1 L1601.18,17769.5 C1601.18,17765.9 1599.93,17763.8 1596.32,17763.8 M1583.32,17763.8 C1582.1,17763.8 1580.89,17764 1579.54,17764.6 L1580.12,17766.6 C1580.64,17766.5 1581.42,17766.2 1582.46,17766.2 C1584.7,17766.2 1585.2,17767.4 1585.2,17769.7 L1585.2,17779.1 L1579.51,17779.1 L1579.51,17781.5 L1585.2,17781.5 L1585.2,17786.4 L1588.18,17786.3 L1588.18,17781.5 L1591.1,17781.5 L1591.1,17779.1 L1588.18,17779.1 L1588.18,17769.5 C1588.18,17765.9 1586.93,17763.8 1583.32,17763.8 M1574.87,17784.3 C1573.78,17784.3 1572.92,17785.1 1572.92,17786.2 C1572.92,17787.3 1573.78,17788.2 1574.87,17788.2 C1575.95,17788.2 1576.81,17787.3 1576.81,17786.2 C1576.81,17785.1 1575.95,17784.3 1574.87,17784.3 M1576.31,17781.5 L1576.31,17764.1 L1573.42,17764.1 L1573.42,17781.5 L1576.31,17781.5 M1556.68,17775.3 L1556.68,17764.1 L1553.68,17764.1 L1553.68,17776 C1553.68,17779.7 1555.67,17781.9 1559.37,17781.9 C1561.39,17781.9 1563.48,17781.4 1565.57,17780.2 L1566.21,17781.5 L1568.26,17781.5 L1568.26,17764.1 L1565.28,17764.1 L1565.28,17778.2 C1563.56,17779 1561.93,17779.4 1560.46,17779.4 C1557.62,17779.4 1556.68,17778.2 1556.68,17775.3 M1543.57,17756.9 C1544.62,17756.9 1546.03,17757.2 1547.76,17757.8 L1548.54,17755.7 C1547.24,17755.1 1545.03,17754.6 1543.18,17754.6 C1537.57,17754.6 1534.43,17757.6 1534.43,17763.3 L1534.43,17781.5 L1536.56,17781.5 L1536.89,17780.6 L1537.74,17781 C1539.04,17781.6 1540.42,17781.9 1541.85,17781.9 C1547.15,17781.9 1550.09,17777.9 1550.09,17772.6 C1550.09,17767.5 1546.85,17763.8 1542.03,17763.8 C1540.48,17763.8 1538.93,17764.1 1537.43,17764.9 L1537.43,17764.5 C1537.43,17759.5 1538.76,17756.9 1543.57,17756.9 M1547.07,17773 C1547.07,17776.8 1545.28,17779.5 1541.49,17779.5 C1540.17,17779.5 1538.79,17779.2 1537.43,17778.6 L1537.43,17767.1 C1538.51,17766.5 1539.84,17766.2 1541.35,17766.2 C1545.14,17766.2 1547.07,17769.2 1547.07,17773 M1527.07,17768.1 C1528.37,17768.1 1529.26,17767.1 1529.26,17765.9 C1529.26,17764.8 1528.79,17764.1 1527.76,17763.8 C1528.23,17762.8 1528.84,17761.6 1529.67,17760.1 L1528.51,17759.4 C1526.93,17760.7 1524.81,17762.9 1524.81,17765.5 C1524.81,17767 1525.67,17768.1 1527.07,17768.1 M1501.6,17763.8 C1500.01,17763.8 1498.32,17764.1 1496.56,17764.8 L1497.24,17766.8 C1498.32,17766.4 1499.45,17766.2 1500.59,17766.2 C1504.87,17766.2 1507.1,17768.5 1507.1,17773.1 C1507.1,17777.2 1505.03,17779.4 1500.84,17779.4 C1499.51,17779.4 1498.32,17779.2 1497.24,17778.7 L1496.53,17780.9 C1497.99,17781.6 1499.51,17781.9 1500.99,17781.9 C1506.85,17781.9 1510.09,17778.1 1510.09,17772.6 C1510.09,17767.1 1507.07,17763.8 1501.6,17763.8 M1490.32,17770.5 L1490.32,17781.5 L1493.31,17781.5 L1493.31,17769.8 C1493.31,17766.1 1491.24,17763.8 1487.57,17763.8 C1485.71,17763.8 1483.7,17764.4 1481.46,17765.5 L1480.78,17764.1 L1478.73,17764.1 L1478.73,17781.5 L1481.71,17781.5 L1481.71,17767.6 C1483.48,17766.7 1485.06,17766.3 1486.49,17766.3 C1489.39,17766.3 1490.32,17767.6 1490.32,17770.5 M1467.32,17763.8 C1466.1,17763.8 1464.89,17764 1463.54,17764.6 L1464.12,17766.6 C1464.64,17766.5 1465.42,17766.2 1466.46,17766.2 C1468.7,17766.2 1469.2,17767.4 1469.2,17769.7 L1469.2,17779.1 L1463.51,17779.1 L1463.51,17781.5 L1469.2,17781.5 L1469.2,17786.4 L1472.18,17786.3 L1472.18,17781.5 L1475.1,17781.5 L1475.1,17779.1 L1472.18,17779.1 L1472.18,17769.5 C1472.18,17765.9 1470.93,17763.8 1467.32,17763.8 M1433.89,17766.7 L1439.9,17766.7 L1439.9,17789 L1443.32,17789 L1449.98,17785.9 L1449.07,17783.4 L1442.89,17786.4 L1442.89,17766.7 L1449.54,17766.7 L1449.54,17764.1 L1433.89,17764.1 L1433.89,17766.7 M1411.67,17763.8 C1406.31,17763.8 1403.14,17767.5 1403.14,17772.9 C1403.14,17778.4 1406.09,17781.9 1411.53,17781.9 C1416.96,17781.9 1420.09,17778.3 1420.09,17772.8 C1420.09,17767.4 1417.07,17763.8 1411.67,17763.8 M1411.53,17779.5 C1407.99,17779.5 1406.14,17776.4 1406.14,17772.8 C1406.14,17769.2 1407.96,17766.2 1411.53,17766.2 C1415.2,17766.2 1417.1,17769.1 1417.1,17772.8 C1417.1,17776.5 1415.2,17779.5 1411.53,17779.5 M1387.68,17775.3 L1387.68,17764.1 L1384.68,17764.1 L1384.68,17776 C1384.68,17779.7 1386.67,17781.9 1390.37,17781.9 C1392.39,17781.9 1394.48,17781.4 1396.57,17780.2 L1397.21,17781.5 L1399.26,17781.5 L1399.26,17764.1 L1396.28,17764.1 L1396.28,17778.2 C1394.56,17779 1392.93,17779.4 1391.46,17779.4 C1388.62,17779.4 1387.68,17778.2 1387.68,17775.3 M1362.71,17788.1 C1361.92,17788.1 1361.01,17787.9 1359.9,17787.6 L1359.43,17789.7 C1360.65,17790.1 1362.14,17790.4 1363.6,17790.4 C1367.32,17790.4 1369.4,17788.6 1369.4,17784.4 L1369.4,17781.5 L1371.92,17781.5 L1371.92,17779.2 L1369.4,17779.2 L1369.4,17764.1 L1366.42,17764.1 L1366.42,17779.2 L1360.7,17779.2 L1360.7,17781.5 L1366.42,17781.5 L1366.42,17784.3 C1366.42,17786.6 1365.34,17788.1 1362.71,17788.1 M1349.67,17763.8 C1344.31,17763.8 1341.14,17767.5 1341.14,17772.9 C1341.14,17778.4 1344.09,17781.9 1349.53,17781.9 C1354.96,17781.9 1358.09,17778.3 1358.09,17772.8 C1358.09,17767.4 1355.07,17763.8 1349.67,17763.8 M1349.53,17779.5 C1345.99,17779.5 1344.14,17776.4 1344.14,17772.8 C1344.14,17769.2 1345.96,17766.2 1349.53,17766.2 C1353.2,17766.2 1355.1,17769.1 1355.1,17772.8 C1355.1,17776.5 1353.2,17779.5 1349.53,17779.5 M1332.01,17766.5 C1334.24,17766.5 1334.32,17767.6 1334.32,17768.9 L1334.32,17790 L1337.31,17790 L1337.31,17767.9 C1337.31,17765.4 1335.79,17763.8 1333.45,17763.8 C1331.76,17763.8 1330.57,17764.3 1329.96,17764.6 L1330.57,17766.6 C1331.04,17766.5 1331.32,17766.5 1332.01,17766.5 M1319.96,17763.8 C1318.31,17763.8 1316.68,17764.3 1315.03,17765.3 L1314.53,17764.1 L1312.43,17764.1 L1312.43,17790 L1315.43,17790 L1315.43,17781.1 C1316.54,17781.6 1317.9,17781.9 1319.53,17781.9 C1324.85,17781.9 1328.09,17778.1 1328.09,17772.7 C1328.09,17767.4 1325.24,17763.8 1319.96,17763.8 M1319.35,17766.3 C1323.17,17766.3 1325.04,17769 1325.04,17772.9 C1325.04,17776.8 1323.2,17779.5 1319.31,17779.5 C1317.84,17779.5 1316.54,17779.2 1315.43,17778.8 L1315.43,17767.3 C1316.68,17766.6 1317.51,17766.3 1319.35,17766.3 "/>
</g>

<g fill="none" stroke="#000000" stroke-opacity="1" stroke-width="1.51181" stroke-linecap="round" stroke-linejoin="round" transform="matrix(1,0,0,1,0,0)"
font-family="Arial" font-size="10.6667" font-weight="400" font-style="normal" 
>
</g>

<g fill="none" stroke="#000000" stroke-opacity="1" stroke-width="1.51181" stroke-linecap="round" stroke-linejoin="round" transform="matrix(1,0,0,1,0,0)"
font-family="Arial" font-size="10.6667" font-weight="400" font-style="normal" 
>
</g>
</g>
</svg>
