<?xml version="1.0" encoding="UTF-8" standalone="no"?>
<svg width="609.6mm" height="5786.17mm"
 viewBox="0 0 2304 21869"
 xmlns="http://www.w3.org/2000/svg" xmlns:xlink="http://www.w3.org/1999/xlink"  version="1.2" baseProfile="tiny">
<title>Valentina. Pattern layout</title>
<defs>
</defs>
<g fill="none" stroke="black" stroke-width="1" fill-rule="evenodd" stroke-linecap="square" stroke-linejoin="bevel" >

<g fill="none" stroke="#000000" stroke-opacity="1" stroke-width="1.51181" stroke-linecap="round" stroke-linejoin="round" transform="matrix(1,0,0,1,0,0)"
font-family="Arial" font-size="10.6667" font-weight="400" font-style="normal" 
>
</g>

<g fill="none" stroke="#000000" stroke-opacity="1" stroke-width="1.51181" stroke-linecap="round" stroke-linejoin="round" transform="matrix(1,0,0,1,0,0)"
font-family="Arial" font-size="10.6667" font-weight="400" font-style="normal" 
>
</g>

<g fill="none" stroke="#000000" stroke-opacity="1" stroke-width="1.51181" stroke-linecap="round" stroke-linejoin="round" transform="matrix(1,0,0,1,0,0)"
font-family="Arial" font-size="10.6667" font-weight="400" font-style="normal" 
>
</g>

<g fill="none" stroke="#000000" stroke-opacity="1" stroke-width="1" stroke-linecap="square" stroke-linejoin="bevel" transform="matrix(1,0,0,1,0,0)"
font-family="Arial" font-size="10.6667" font-weight="400" font-style="normal" 
>
<path vector-effect="none" fill-rule="nonzero" d="M2299,8579 L976,8579 L976,8315 L712,8295 L1317,320 L1581,340 L1581,75 L2299,75 L2299,8579 M2299,0 L2299,8655 L900,8655 L900,8385 L631,8364 L1247,239 L1505,258 L1505,0 L2299,0"/>
</g>

<g fill="none" stroke="#000000" stroke-opacity="1" stroke-width="1.51181" stroke-linecap="round" stroke-linejoin="round" transform="matrix(1,0,0,1,0,0)"
font-family="Arial" font-size="10.6667" font-weight="400" font-style="normal" 
>
</g>

<g fill="none" stroke="#000000" stroke-opacity="1" stroke-width="1.51181" stroke-linecap="round" stroke-linejoin="round" transform="matrix(1,0,0,1,0,0)"
font-family="Arial" font-size="10.6667" font-weight="400" font-style="normal" 
>
</g>

<g fill="#000000" fill-opacity="1" stroke="#000000" stroke-opacity="1" stroke-width="1" stroke-linecap="square" stroke-linejoin="bevel" transform="matrix(1,0,0,1,0,0)"
font-family="Arial" font-size="10.6667" font-weight="400" font-style="normal" 
>
<path vector-effect="none" fill-rule="evenodd" d="M1521,3435.48 L1506.7,3435.48 L1506.7,3440.45 L1526.42,3440.45 L1526.42,3410 L1521,3410 L1521,3421.58 L1508.47,3421.58 L1508.47,3426.55 L1521,3426.55 L1521,3435.48"/>
</g>

<g fill="none" stroke="#000000" stroke-opacity="1" stroke-width="1.51181" stroke-linecap="round" stroke-linejoin="round" transform="matrix(1,0,0,1,0,0)"
font-family="Arial" font-size="10.6667" font-weight="400" font-style="normal" 
>
</g>

<g fill="none" stroke="#000000" stroke-opacity="1" stroke-width="1.51181" stroke-linecap="round" stroke-linejoin="round" transform="matrix(1,0,0,1,0,0)"
font-family="Arial" font-size="10.6667" font-weight="400" font-style="normal" 
>
</g>

<g fill="#000000" fill-opacity="1" stroke="#000000" stroke-opacity="1" stroke-width="1" stroke-linecap="square" stroke-linejoin="bevel" transform="matrix(1,0,0,1,0,0)"
font-family="Arial" font-size="10.6667" font-weight="400" font-style="normal" 
>
<path vector-effect="none" fill-rule="evenodd" d="M1557.78,3382.16 L1544.78,3382.16 L1544.78,3386.67 L1562.7,3386.67 L1562.7,3359 L1557.78,3359 L1557.78,3369.52 L1546.39,3369.52 L1546.39,3374.03 L1557.78,3374.03 L1557.78,3382.16 M1533.66,3362.36 C1535.55,3362.36 1535.91,3363.52 1535.91,3365.41 L1535.91,3387.72 L1540.83,3387.72 L1540.83,3364 C1540.83,3361.28 1539.98,3358.59 1535.91,3358.59 C1533.7,3358.59 1531.58,3359.56 1531.58,3359.56 L1532.38,3362.48 C1532.38,3362.48 1532.98,3362.36 1533.66,3362.36 M1519.98,3358.59 C1513.91,3358.59 1509.91,3362.67 1509.91,3368.72 C1509.91,3374.72 1513.83,3378.67 1519.91,3378.67 C1526.06,3378.67 1529.98,3374.75 1529.98,3368.64 C1529.98,3362.64 1526.06,3358.59 1519.98,3358.59 M1519.98,3374.88 C1516.66,3374.88 1514.83,3372.12 1514.83,3368.64 C1514.83,3365.12 1516.55,3362.44 1519.98,3362.44 C1523.27,3362.44 1525.06,3365.23 1525.06,3368.64 C1525.06,3372 1523.27,3374.88 1519.98,3374.88 M1496.98,3358.59 C1490.91,3358.59 1486.91,3362.67 1486.91,3368.72 C1486.91,3374.72 1490.83,3378.67 1496.91,3378.67 C1503.06,3378.67 1506.98,3374.75 1506.98,3368.64 C1506.98,3362.64 1503.06,3358.59 1496.98,3358.59 M1496.98,3374.88 C1493.66,3374.88 1491.83,3372.12 1491.83,3368.64 C1491.83,3365.12 1493.55,3362.44 1496.98,3362.44 C1500.27,3362.44 1502.06,3365.23 1502.06,3368.64 C1502.06,3372 1500.27,3374.88 1496.98,3374.88 M1482.86,3378.23 L1482.86,3359 L1478.06,3359 L1478.06,3373.8 C1477.06,3374.23 1475.98,3374.48 1474.86,3374.48 C1473.22,3374.48 1471.86,3374.12 1470.7,3373.44 L1470.47,3373.52 L1469.5,3377.92 C1470.62,3378.44 1471.83,3378.67 1473.06,3378.67 C1475.11,3378.67 1477.02,3378.11 1478.83,3377 L1479.42,3378.23 L1482.86,3378.23"/>
</g>

<g fill="none" stroke="#000000" stroke-opacity="1" stroke-width="1.51181" stroke-linecap="round" stroke-linejoin="round" transform="matrix(1,0,0,1,0,0)"
font-family="Arial" font-size="10.6667" font-weight="400" font-style="normal" 
>
</g>

<g fill="none" stroke="#000000" stroke-opacity="1" stroke-width="1.51181" stroke-linecap="round" stroke-linejoin="round" transform="matrix(1,0,0,1,0,0)"
font-family="Arial" font-size="10.6667" font-weight="400" font-style="normal" 
>
</g>

<g fill="#000000" fill-opacity="1" stroke="#000000" stroke-opacity="1" stroke-width="1" stroke-linecap="square" stroke-linejoin="bevel" transform="matrix(1,0,0,1,0,0)"
font-family="Arial" font-size="10.6667" font-weight="400" font-style="normal" 
>
<path vector-effect="none" fill-rule="evenodd" d="M1825.12,3336.3 L1825.12,3333.52 L1816.34,3333.52 L1816.34,3310 L1813.19,3310 L1813.19,3333.52 L1804.38,3333.52 L1804.38,3336.3 L1825.12,3336.3 M1793.36,3328.77 C1798.78,3328.77 1801.67,3324.47 1801.67,3318.92 C1801.67,3312.97 1798.41,3309.62 1792.44,3309.62 C1790.47,3309.62 1788.5,3309.97 1786.52,3310.64 L1787.09,3312.92 C1788.5,3312.44 1790.02,3312.2 1791.56,3312.2 C1795.78,3312.2 1798.52,3314.52 1798.52,3318.28 L1785.95,3318.28 L1785.75,3318.7 L1785.75,3320.38 C1785.75,3325.5 1788.3,3328.77 1793.36,3328.77 M1788.91,3320.8 L1798.45,3320.8 C1798.06,3323.91 1796.44,3326.3 1793.02,3326.3 C1790.12,3326.3 1788.91,3323.75 1788.91,3320.8 M1769.56,3321.78 L1769.56,3310 L1766.42,3310 L1766.42,3322.53 C1766.42,3326.45 1768.5,3328.81 1772.42,3328.81 C1774.55,3328.81 1776.75,3328.2 1778.95,3326.98 L1779.64,3328.31 L1781.8,3328.31 L1781.8,3310 L1778.66,3310 L1778.66,3324.86 C1776.83,3325.73 1775.11,3326.14 1773.56,3326.14 C1770.56,3326.14 1769.56,3324.86 1769.56,3321.78 M1755.53,3309.62 C1754.23,3309.62 1752.95,3309.92 1751.55,3310.45 L1752.16,3312.66 C1752.69,3312.47 1753.52,3312.23 1754.62,3312.23 C1756.98,3312.23 1757.52,3313.5 1757.52,3315.92 L1757.52,3325.81 L1751.5,3325.81 L1751.5,3328.31 L1757.52,3328.31 L1757.52,3333.52 L1760.66,3333.36 L1760.66,3328.31 L1763.73,3328.31 L1763.73,3325.81 L1760.66,3325.81 L1760.66,3315.7 C1760.66,3311.83 1759.33,3309.62 1755.53,3309.62 M1734.11,3333.52 L1722.03,3333.52 L1722.03,3336.3 L1737.27,3336.3 L1737.27,3310 L1734.11,3310 L1734.11,3322.2 L1723.14,3322.2 L1723.14,3324.97 L1734.11,3324.97 L1734.11,3333.52 M1712.25,3312.47 C1714.61,3312.47 1714.69,3313.69 1714.69,3315.09 L1714.69,3337.28 L1717.84,3337.28 L1717.84,3313.98 C1717.84,3311.41 1716.25,3309.62 1713.78,3309.62 C1711.98,3309.62 1710.73,3310.16 1710.09,3310.53 L1710.73,3312.66 C1711.23,3312.55 1711.53,3312.47 1712.25,3312.47 M1698.78,3309.66 C1693.12,3309.66 1689.78,3313.61 1689.78,3319.27 C1689.78,3325.05 1692.89,3328.77 1698.64,3328.77 C1704.38,3328.77 1707.67,3324.97 1707.67,3319.19 C1707.67,3313.5 1704.48,3309.66 1698.78,3309.66 M1698.64,3326.27 C1694.91,3326.27 1692.94,3322.95 1692.94,3319.19 C1692.94,3315.36 1694.88,3312.17 1698.64,3312.17 C1702.52,3312.17 1704.52,3315.28 1704.52,3319.19 C1704.52,3323.03 1702.52,3326.27 1698.64,3326.27 M1676.78,3309.66 C1671.12,3309.66 1667.78,3313.61 1667.78,3319.27 C1667.78,3325.05 1670.89,3328.77 1676.64,3328.77 C1682.38,3328.77 1685.67,3324.97 1685.67,3319.19 C1685.67,3313.5 1682.48,3309.66 1676.78,3309.66 M1676.64,3326.27 C1672.91,3326.27 1670.94,3322.95 1670.94,3319.19 C1670.94,3315.36 1672.88,3312.17 1676.64,3312.17 C1680.52,3312.17 1682.52,3315.28 1682.52,3319.19 C1682.52,3323.03 1680.52,3326.27 1676.64,3326.27 M1654.78,3328.77 C1656.58,3328.77 1658.25,3328.16 1659.84,3326.95 L1660.52,3328.34 L1662.8,3328.34 L1662.8,3310 L1659.66,3310 L1659.66,3324.67 C1658.31,3325.58 1657.03,3326.03 1655.66,3326.03 C1654.67,3326.03 1653.77,3325.81 1652.92,3325.42 L1651.78,3328.23 C1652.7,3328.66 1653.42,3328.77 1654.78,3328.77 M1644.28,3319.88 C1644.28,3326.27 1641.92,3332 1639.23,3336.44 L1641.66,3337.73 C1644.58,3332.95 1647.44,3326.91 1647.44,3319.88 C1647.44,3312.73 1644.62,3306.39 1641.62,3301.45 L1639.23,3303.02 C1641.97,3307.45 1644.28,3313.42 1644.28,3319.88 M1637.12,3336.3 L1637.12,3333.52 L1628.34,3333.52 L1628.34,3310 L1625.19,3310 L1625.19,3333.52 L1616.38,3333.52 L1616.38,3336.3 L1637.12,3336.3 M1594.61,3328.42 C1594.61,3334.05 1598.09,3336.3 1603.91,3336.3 L1612.27,3336.3 L1612.27,3310 L1609.11,3310 L1609.11,3320.83 L1605.89,3320.83 C1599.39,3320.83 1594.61,3322.34 1594.61,3328.42 M1605.62,3323.61 L1609.11,3323.61 L1609.11,3333.52 L1605.62,3333.52 C1601.06,3333.52 1597.8,3332.91 1597.8,3328.62 C1597.8,3324.14 1601.09,3323.61 1605.62,3323.61 M1580.58,3309.62 C1573.48,3309.62 1570.47,3313.08 1570.47,3320.19 L1570.47,3336.3 L1573.62,3336.3 L1573.62,3319.39 C1573.62,3314.86 1575.91,3312.39 1580.58,3312.39 C1585.25,3312.39 1587.53,3314.78 1587.53,3319.39 L1587.53,3336.3 L1590.66,3336.3 L1590.66,3320.19 C1590.66,3313.08 1587.69,3309.62 1580.58,3309.62 M1554.27,3336.3 L1554.27,3310 L1551.11,3310 L1551.11,3332.11 L1536.75,3310 L1532.77,3310 L1532.77,3336.3 L1535.92,3336.3 L1535.92,3314.3 L1550.28,3336.3 L1554.27,3336.3 M1514,3328.31 L1519.62,3313.11 L1525.25,3328.31 L1528.55,3328.31 L1521.17,3309.05 L1524.67,3300.16 L1521.48,3300.16 L1511,3328.31 L1514,3328.31 M1501.25,3312.47 C1503.61,3312.47 1503.69,3313.69 1503.69,3315.09 L1503.69,3337.28 L1506.84,3337.28 L1506.84,3313.98 C1506.84,3311.41 1505.25,3309.62 1502.78,3309.62 C1500.98,3309.62 1499.73,3310.16 1499.09,3310.53 L1499.73,3312.66 C1500.23,3312.55 1500.53,3312.47 1501.25,3312.47 M1487.78,3309.66 C1482.12,3309.66 1478.78,3313.61 1478.78,3319.27 C1478.78,3325.05 1481.89,3328.77 1487.64,3328.77 C1493.38,3328.77 1496.67,3324.97 1496.67,3319.19 C1496.67,3313.5 1493.48,3309.66 1487.78,3309.66 M1487.64,3326.27 C1483.91,3326.27 1481.94,3322.95 1481.94,3319.19 C1481.94,3315.36 1483.88,3312.17 1487.64,3312.17 C1491.52,3312.17 1493.52,3315.28 1493.52,3319.19 C1493.52,3323.03 1491.52,3326.27 1487.64,3326.27 M1461.56,3321.78 L1461.56,3310 L1458.42,3310 L1458.42,3322.53 C1458.42,3326.45 1460.5,3328.81 1464.42,3328.81 C1466.55,3328.81 1468.75,3328.2 1470.95,3326.98 L1471.64,3328.31 L1473.8,3328.31 L1473.8,3310 L1470.66,3310 L1470.66,3324.86 C1468.83,3325.73 1467.11,3326.14 1465.56,3326.14 C1462.56,3326.14 1461.56,3324.86 1461.56,3321.78 M1446.81,3319.69 C1446.81,3326.67 1449.62,3332.95 1452.55,3337.73 L1455.02,3336.44 C1452.28,3331.95 1449.97,3326.19 1449.97,3319.69 C1449.97,3313.98 1451.72,3308.44 1455.02,3303.02 L1452.62,3301.45 C1449.66,3306.31 1446.81,3312.66 1446.81,3319.69 M1437.48,3314.17 C1438.86,3314.17 1439.8,3313.19 1439.8,3311.86 C1439.8,3310.77 1439.31,3310 1438.2,3309.62 C1438.7,3308.59 1439.34,3307.3 1440.22,3305.78 L1439,3304.98 C1437.33,3306.39 1435.09,3308.67 1435.09,3311.44 C1435.09,3313 1436,3314.17 1437.48,3314.17 M1411.7,3309.62 C1410.03,3309.62 1408.25,3309.97 1406.39,3310.69 L1407.11,3312.84 C1408.25,3312.44 1409.44,3312.2 1410.64,3312.2 C1415.17,3312.2 1417.52,3314.59 1417.52,3319.53 C1417.52,3323.83 1415.31,3326.14 1410.91,3326.14 C1409.5,3326.14 1408.25,3325.92 1407.11,3325.42 L1406.36,3327.75 C1407.91,3328.42 1409.5,3328.77 1411.06,3328.77 C1417.25,3328.77 1420.67,3324.78 1420.67,3318.97 C1420.67,3313.16 1417.48,3309.62 1411.7,3309.62 M1399.69,3316.72 L1399.69,3328.31 L1402.84,3328.31 L1402.84,3315.97 C1402.84,3312.09 1400.67,3309.62 1396.8,3309.62 C1394.83,3309.62 1392.7,3310.27 1390.34,3311.48 L1389.62,3310 L1387.45,3310 L1387.45,3328.31 L1390.61,3328.31 L1390.61,3313.64 C1392.47,3312.78 1394.14,3312.31 1395.66,3312.31 C1398.7,3312.31 1399.69,3313.64 1399.69,3316.72 M1375.53,3309.62 C1374.23,3309.62 1372.95,3309.92 1371.55,3310.45 L1372.16,3312.66 C1372.69,3312.47 1373.52,3312.23 1374.62,3312.23 C1376.98,3312.23 1377.52,3313.5 1377.52,3315.92 L1377.52,3325.81 L1371.5,3325.81 L1371.5,3328.31 L1377.52,3328.31 L1377.52,3333.52 L1380.66,3333.36 L1380.66,3328.31 L1383.73,3328.31 L1383.73,3325.81 L1380.66,3325.81 L1380.66,3315.7 C1380.66,3311.83 1379.33,3309.62 1375.53,3309.62 M1340.52,3312.78 L1346.86,3312.78 L1346.86,3336.3 L1350.47,3336.3 L1357.5,3332.95 L1356.55,3330.41 L1350.02,3333.52 L1350.02,3312.78 L1357.05,3312.78 L1357.05,3310 L1340.52,3310 L1340.52,3312.78 M1317.78,3309.66 C1312.12,3309.66 1308.78,3313.61 1308.78,3319.27 C1308.78,3325.05 1311.89,3328.77 1317.64,3328.77 C1323.38,3328.77 1326.67,3324.97 1326.67,3319.19 C1326.67,3313.5 1323.48,3309.66 1317.78,3309.66 M1317.64,3326.27 C1313.91,3326.27 1311.94,3322.95 1311.94,3319.19 C1311.94,3315.36 1313.88,3312.17 1317.64,3312.17 C1321.52,3312.17 1323.52,3315.28 1323.52,3319.19 C1323.52,3323.03 1321.52,3326.27 1317.64,3326.27 M1291.56,3321.78 L1291.56,3310 L1288.42,3310 L1288.42,3322.53 C1288.42,3326.45 1290.5,3328.81 1294.42,3328.81 C1296.55,3328.81 1298.75,3328.2 1300.95,3326.98 L1301.64,3328.31 L1303.8,3328.31 L1303.8,3310 L1300.66,3310 L1300.66,3324.86 C1298.83,3325.73 1297.11,3326.14 1295.56,3326.14 C1292.56,3326.14 1291.56,3324.86 1291.56,3321.78 M1265.83,3335.3 C1264.98,3335.3 1264.03,3335.11 1262.86,3334.77 L1262.36,3337.05 C1263.66,3337.44 1265.22,3337.73 1266.77,3337.73 C1270.69,3337.73 1272.89,3335.8 1272.89,3331.42 L1272.89,3328.31 L1275.55,3328.31 L1275.55,3325.92 L1272.89,3325.92 L1272.89,3310 L1269.73,3310 L1269.73,3325.92 L1263.7,3325.92 L1263.7,3328.31 L1269.73,3328.31 L1269.73,3331.31 C1269.73,3333.75 1268.59,3335.3 1265.83,3335.3 M1252.78,3309.66 C1247.12,3309.66 1243.78,3313.61 1243.78,3319.27 C1243.78,3325.05 1246.89,3328.77 1252.64,3328.77 C1258.38,3328.77 1261.67,3324.97 1261.67,3319.19 C1261.67,3313.5 1258.48,3309.66 1252.78,3309.66 M1252.64,3326.27 C1248.91,3326.27 1246.94,3322.95 1246.94,3319.19 C1246.94,3315.36 1248.88,3312.17 1252.64,3312.17 C1256.52,3312.17 1258.52,3315.28 1258.52,3319.19 C1258.52,3323.03 1256.52,3326.27 1252.64,3326.27 M1233.25,3312.47 C1235.61,3312.47 1235.69,3313.69 1235.69,3315.09 L1235.69,3337.28 L1238.84,3337.28 L1238.84,3313.98 C1238.84,3311.41 1237.25,3309.62 1234.78,3309.62 C1232.98,3309.62 1231.73,3310.16 1231.09,3310.53 L1231.73,3312.66 C1232.23,3312.55 1232.53,3312.47 1233.25,3312.47 M1220.09,3309.62 C1218.34,3309.62 1216.62,3310.16 1214.89,3311.3 L1214.36,3310 L1212.16,3310 L1212.16,3337.28 L1215.3,3337.28 L1215.3,3327.89 C1216.48,3328.47 1217.92,3328.77 1219.64,3328.77 C1225.25,3328.77 1228.67,3324.78 1228.67,3319.08 C1228.67,3313.45 1225.67,3309.62 1220.09,3309.62 M1219.44,3312.28 C1223.47,3312.28 1225.45,3315.17 1225.45,3319.27 C1225.45,3323.34 1223.52,3326.22 1219.41,3326.22 C1217.84,3326.22 1216.48,3325.95 1215.3,3325.47 L1215.3,3313.38 C1216.62,3312.66 1217.5,3312.28 1219.44,3312.28 "/>
</g>

<g fill="none" stroke="#000000" stroke-opacity="1" stroke-width="1.51181" stroke-linecap="round" stroke-linejoin="round" transform="matrix(1,0,0,1,0,0)"
font-family="Arial" font-size="10.6667" font-weight="400" font-style="normal" 
>
</g>

<g fill="none" stroke="#000000" stroke-opacity="1" stroke-width="1.51181" stroke-linecap="round" stroke-linejoin="round" transform="matrix(1,0,0,1,0,0)"
font-family="Arial" font-size="10.6667" font-weight="400" font-style="normal" 
>
</g>

<g fill="none" stroke="#000000" stroke-opacity="1" stroke-width="1" stroke-linecap="square" stroke-linejoin="bevel" transform="matrix(1,0,0,1,0,0)"
font-family="Arial" font-size="10.6667" font-weight="400" font-style="normal" 
>
<path vector-effect="none" fill-rule="nonzero" d="M1554.5,17128.6 L179.495,17128.6 L772.495,12951.6 L839.495,12578.6 L922.495,12112.6 L969.495,11841.6 L1011.5,11598.6 L1048.5,11375.6 L1073.5,11219.6 L1089.5,11118.6 L1104.5,11018.6 L1118.5,10920.6 L1132.5,10822.6 L1145.5,10724.6 L1159.5,10624.6 L1172.5,10523.6 L1191.5,10366.6 L1218.5,10142.6 L1245.5,9896.56 L1275.5,9622.56 L1326.5,9152.56 L1365.5,8775.56 L1554.5,8775.56 L1554.5,17128.6 M1554.5,8662.56 L1554.5,17241.6 L87.4952,17241.6 L698.495,12939.6 L765.495,12565.6 L847.495,12099.6 L895.495,11828.6 L936.495,11585.6 L973.495,11363.6 L998.495,11207.6 L1014.5,11106.6 L1029.5,11007.6 L1043.5,10909.6 L1057.5,10812.6 L1070.5,10714.6 L1084.5,10614.6 L1097.5,10513.6 L1116.5,10357.6 L1143.5,10133.6 L1170.5,9888.56 L1200.5,9614.56 L1250.5,9144.56 L1301.5,8662.56 L1554.5,8662.56"/>
</g>

<g fill="none" stroke="#000000" stroke-opacity="1" stroke-width="1.51181" stroke-linecap="round" stroke-linejoin="round" transform="matrix(1,0,0,1,0,0)"
font-family="Arial" font-size="10.6667" font-weight="400" font-style="normal" 
>
</g>

<g fill="none" stroke="#000000" stroke-opacity="1" stroke-width="1.51181" stroke-linecap="round" stroke-linejoin="round" transform="matrix(1,0,0,1,0,0)"
font-family="Arial" font-size="10.6667" font-weight="400" font-style="normal" 
>
</g>

<g fill="#000000" fill-opacity="1" stroke="#000000" stroke-opacity="1" stroke-width="1" stroke-linecap="square" stroke-linejoin="bevel" transform="matrix(1,0,0,1,0,0)"
font-family="Arial" font-size="10.6667" font-weight="400" font-style="normal" 
>
<path vector-effect="none" fill-rule="evenodd" d="M1404.84,11458.6 L1399.31,11458.6 L1399.31,11470.7 L1394.28,11470.7 L1387.07,11458.6 L1380.73,11458.6 L1388.6,11471.6 C1383.96,11473 1381.62,11476.1 1381.62,11480.5 C1381.62,11486.6 1385.9,11489.7 1394.54,11489.7 L1404.84,11489.7 L1404.84,11458.6 M1387.29,11480.2 C1387.29,11476.1 1391.67,11475.7 1396.53,11475.7 L1399.31,11475.7 L1399.31,11484.6 L1395.12,11484.6 C1390.95,11484.6 1387.29,11484.1 1387.29,11480.2 M1379.2,11474.4 C1379.2,11464.6 1372.67,11458.1 1362.78,11458.1 C1359.93,11458.1 1356.7,11458.8 1353.14,11460.2 L1352.37,11460.5 L1354.18,11465.1 L1354.98,11464.7 C1357.64,11463.7 1359.93,11463.2 1361.78,11463.2 C1368.93,11463.2 1373.67,11467.4 1373.67,11474.4 C1373.67,11480.8 1369.25,11485.2 1362.59,11485.2 C1359.53,11485.2 1358.14,11485 1355.48,11484.1 L1354.62,11483.8 L1352.73,11488.2 L1353.68,11488.6 C1356.51,11489.7 1359.48,11490.3 1362.68,11490.3 C1372.4,11490.3 1379.2,11484.1 1379.2,11474.4 M1348.6,11487.1 L1346.28,11482.7 C1344.15,11484 1342.14,11485.2 1338.76,11485.2 C1335.29,11485.2 1333.21,11483.8 1333.21,11480.7 C1333.21,11477.5 1336.68,11473 1347.62,11462 L1347.62,11458.6 L1327.37,11458.6 L1327.37,11463.4 L1339.48,11463.4 C1329.93,11473.6 1327.68,11476.7 1327.68,11481 C1327.68,11486.6 1332.28,11490.3 1338.17,11490.3 C1343.07,11490.3 1345.56,11488.9 1348.6,11487.1 "/>
</g>

<g fill="none" stroke="#000000" stroke-opacity="1" stroke-width="1.51181" stroke-linecap="round" stroke-linejoin="round" transform="matrix(1,0,0,1,0,0)"
font-family="Arial" font-size="10.6667" font-weight="400" font-style="normal" 
>
</g>

<g fill="none" stroke="#000000" stroke-opacity="1" stroke-width="1.51181" stroke-linecap="round" stroke-linejoin="round" transform="matrix(1,0,0,1,0,0)"
font-family="Arial" font-size="10.6667" font-weight="400" font-style="normal" 
>
</g>

<g fill="#000000" fill-opacity="1" stroke="#000000" stroke-opacity="1" stroke-width="1" stroke-linecap="square" stroke-linejoin="bevel" transform="matrix(1,0,0,1,0,0)"
font-family="Arial" font-size="10.6667" font-weight="400" font-style="normal" 
>
<path vector-effect="none" fill-rule="evenodd" d="M1496.62,11404.6 L1491.59,11404.6 L1491.59,11415.6 L1487,11415.6 L1480.43,11404.6 L1474.65,11404.6 L1481.82,11416.4 C1477.6,11417.8 1475.46,11420.5 1475.46,11424.5 C1475.46,11430.1 1479.37,11432.9 1487.23,11432.9 L1496.62,11432.9 L1496.62,11404.6 M1480.64,11424.3 C1480.64,11420.5 1484.6,11420.2 1489.04,11420.2 L1491.59,11420.2 L1491.59,11428.3 L1487.78,11428.3 C1483.95,11428.3 1480.64,11427.8 1480.64,11424.3 M1462.68,11404.2 C1456.45,11404.2 1452.35,11408.3 1452.35,11414.5 C1452.35,11420.7 1456.37,11424.7 1462.6,11424.7 C1468.92,11424.7 1472.93,11420.7 1472.93,11414.4 C1472.93,11408.3 1468.92,11404.2 1462.68,11404.2 M1462.68,11420.8 C1459.28,11420.8 1457.4,11418 1457.4,11414.4 C1457.4,11410.8 1459.17,11408.1 1462.68,11408.1 C1466.04,11408.1 1467.9,11410.9 1467.9,11414.4 C1467.9,11417.9 1466.04,11420.8 1462.68,11420.8 M1438.68,11404.2 C1432.45,11404.2 1428.35,11408.3 1428.35,11414.5 C1428.35,11420.7 1432.37,11424.7 1438.6,11424.7 C1444.92,11424.7 1448.93,11420.7 1448.93,11414.4 C1448.93,11408.3 1444.92,11404.2 1438.68,11404.2 M1438.68,11420.8 C1435.28,11420.8 1433.4,11418 1433.4,11414.4 C1433.4,11410.8 1435.17,11408.1 1438.68,11408.1 C1442.04,11408.1 1443.9,11410.9 1443.9,11414.4 C1443.9,11417.9 1442.04,11420.8 1438.68,11420.8 M1422.4,11426.9 L1422.4,11424.3 L1425.68,11424.3 L1425.68,11420.3 L1422.4,11420.3 L1422.4,11404.6 L1417.35,11404.6 L1417.35,11420.3 L1410.06,11420.3 L1410.06,11424.3 L1417.35,11424.3 L1417.35,11427.1 C1417.35,11428.9 1415.71,11430.5 1413.14,11430.5 C1411.93,11430.5 1410.64,11430.2 1410.06,11430.1 L1409.23,11429.9 L1408.5,11433.5 L1409.2,11433.7 C1411.6,11434.4 1413.25,11434.5 1414.32,11434.5 C1421.45,11434.5 1422.4,11429.1 1422.4,11426.9 M1396.85,11419 C1396.85,11410.1 1390.92,11404.2 1381.89,11404.2 C1379.31,11404.2 1376.35,11404.8 1373.12,11406.1 L1372.42,11406.4 L1374.06,11410.5 L1374.79,11410.2 C1377.21,11409.2 1379.31,11408.8 1381,11408.8 C1387.51,11408.8 1391.81,11412.6 1391.81,11419 C1391.81,11424.8 1387.79,11428.9 1381.73,11428.9 C1378.93,11428.9 1377.67,11428.7 1375.25,11427.8 L1374.46,11427.6 L1372.75,11431.6 L1373.6,11431.9 C1376.2,11433 1378.9,11433.5 1381.81,11433.5 C1390.67,11433.5 1396.85,11427.8 1396.85,11419 M1359.67,11424.7 C1365.29,11424.7 1368.93,11420.1 1368.93,11414.4 C1368.93,11408 1365,11404.2 1358.35,11404.2 C1355.9,11404.2 1353.56,11404.6 1351.31,11405.4 L1352.17,11408.7 C1353.85,11408.3 1355.7,11408.1 1357.7,11408.1 C1361.48,11408.1 1363.6,11409.7 1363.9,11412.8 L1350.32,11412.8 L1350.32,11414.7 C1350.32,11421.1 1353.48,11424.7 1359.67,11424.7 M1363.78,11416.2 C1363.65,11419 1362.09,11420.8 1359.59,11420.8 C1356.81,11420.8 1355.25,11419.4 1355.25,11416.2 L1363.78,11416.2 M1327.46,11415.9 C1327.46,11421.3 1329.1,11424.7 1334.71,11424.7 C1336.93,11424.7 1339.23,11424.2 1341.53,11423 L1342.26,11424.3 L1345.79,11424.3 L1345.79,11404.6 L1340.75,11404.6 L1340.75,11419.4 C1338.73,11420.1 1337.18,11420.5 1336.03,11420.5 C1333.57,11420.5 1332.51,11418.8 1332.51,11416.5 L1332.51,11404.6 L1327.46,11404.6 L1327.46,11415.9 M1307.65,11405.3 L1308.39,11408.7 C1309.12,11408.5 1310.64,11408.2 1312.03,11408.2 C1314.73,11408.2 1315.35,11409.5 1315.35,11411 L1315.35,11420.3 L1308.54,11420.3 L1308.54,11424.3 L1315.35,11424.3 L1315.35,11430.5 L1320.4,11430.5 L1320.4,11424.3 L1323.68,11424.3 L1323.68,11420.3 L1320.4,11420.3 L1320.4,11410.9 C1320.4,11407.4 1319.53,11404.2 1313.26,11404.2 C1311.37,11404.2 1309.04,11404.7 1307.65,11405.3 M1295.67,11424.7 C1301.29,11424.7 1304.93,11420.1 1304.93,11414.4 C1304.93,11408 1301,11404.2 1294.35,11404.2 C1291.9,11404.2 1289.56,11404.6 1287.31,11405.4 L1288.17,11408.7 C1289.85,11408.3 1291.7,11408.1 1293.7,11408.1 C1297.48,11408.1 1299.6,11409.7 1299.9,11412.8 L1286.32,11412.8 L1286.32,11414.7 C1286.32,11421.1 1289.48,11424.7 1295.67,11424.7 M1299.78,11416.2 C1299.65,11419 1298.09,11420.8 1295.59,11420.8 C1292.81,11420.8 1291.25,11419.4 1291.25,11416.2 L1299.78,11416.2 M1281.79,11424.3 L1281.79,11404.6 L1276.87,11404.6 L1276.87,11419.7 C1275.84,11420.2 1274.73,11420.4 1273.59,11420.4 C1271.9,11420.4 1270.51,11420.1 1269.32,11419.4 L1269.07,11419.4 L1268.09,11423.9 C1269.25,11424.5 1270.48,11424.7 1271.75,11424.7 C1273.84,11424.7 1275.81,11424.2 1277.65,11423 L1278.26,11424.3 L1281.79,11424.3 M1255.32,11430.6 L1253.18,11426.5 C1251.26,11427.8 1249.42,11428.9 1246.34,11428.9 C1243.18,11428.9 1241.31,11427.5 1241.31,11424.8 C1241.31,11421.8 1244.46,11417.8 1254.42,11407.7 L1254.42,11404.6 L1235.96,11404.6 L1235.96,11408.9 L1247,11408.9 C1238.31,11418.2 1236.26,11421.1 1236.26,11425 C1236.26,11430.1 1240.43,11433.5 1245.81,11433.5 C1250.28,11433.5 1252.53,11432.2 1255.32,11430.6 "/>
</g>

<g fill="none" stroke="#000000" stroke-opacity="1" stroke-width="1.51181" stroke-linecap="round" stroke-linejoin="round" transform="matrix(1,0,0,1,0,0)"
font-family="Arial" font-size="10.6667" font-weight="400" font-style="normal" 
>
</g>

<g fill="none" stroke="#000000" stroke-opacity="1" stroke-width="1.51181" stroke-linecap="round" stroke-linejoin="round" transform="matrix(1,0,0,1,0,0)"
font-family="Arial" font-size="10.6667" font-weight="400" font-style="normal" 
>
</g>

<g fill="#000000" fill-opacity="1" stroke="#000000" stroke-opacity="1" stroke-width="1" stroke-linecap="square" stroke-linejoin="bevel" transform="matrix(1,0,0,1,0,0)"
font-family="Arial" font-size="10.6667" font-weight="400" font-style="normal" 
>
<path vector-effect="none" fill-rule="evenodd" d="M1486.79,11382.1 C1491.82,11382.1 1495.89,11379.7 1495.89,11374.6 C1495.89,11370.5 1492.65,11368.8 1488.54,11367.2 C1485.35,11365.9 1481.1,11364.9 1481.1,11361.7 C1481.1,11358.4 1484.53,11357 1488.25,11357 C1490.1,11357 1492.26,11357.5 1495.42,11358.7 L1496.54,11356 C1494.01,11354.9 1491.75,11354.2 1488.32,11354.2 C1483.01,11354.2 1477.87,11356.5 1477.87,11361.9 C1477.87,11367 1482.62,11368.2 1486.79,11369.9 C1489.25,11370.9 1492.65,11372.1 1492.65,11374.9 C1492.65,11377.7 1490.23,11379.2 1486.4,11379.2 C1484.6,11379.2 1482.31,11378.7 1480.64,11377.8 L1479.39,11380.2 C1481.6,11381.5 1484.34,11382.1 1486.79,11382.1 M1471.2,11376.4 C1470.04,11376.4 1469.1,11377.3 1469.1,11378.5 C1469.1,11379.7 1470.04,11380.6 1471.2,11380.6 C1472.37,11380.6 1473.31,11379.7 1473.31,11378.5 C1473.31,11377.3 1472.37,11376.4 1471.2,11376.4 M1472.76,11373.4 L1472.76,11354.6 L1469.65,11354.6 L1469.65,11373.4 L1472.76,11373.4 M1458.03,11357.1 C1460.45,11357.1 1460.53,11358.3 1460.53,11359.8 L1460.53,11382.6 L1463.76,11382.6 L1463.76,11358.7 C1463.76,11356 1462.12,11354.2 1459.59,11354.2 C1457.76,11354.2 1456.48,11354.7 1455.81,11355.1 L1456.48,11357.3 C1456.98,11357.2 1457.29,11357.1 1458.03,11357.1 M1441.18,11381.5 L1441.18,11354.6 L1437.95,11354.6 L1437.95,11377.3 L1423.2,11354.6 L1419.1,11354.6 L1419.1,11381.5 L1422.34,11381.5 L1422.34,11359 L1437.09,11381.5 L1441.18,11381.5 M1399.59,11373.4 L1405.35,11357.8 L1411.12,11373.4 L1414.53,11373.4 L1406.95,11353.6 L1410.54,11344.5 L1407.26,11344.5 L1396.5,11373.4 L1399.59,11373.4 M1387.03,11357.1 C1389.45,11357.1 1389.53,11358.3 1389.53,11359.8 L1389.53,11382.6 L1392.76,11382.6 L1392.76,11358.7 C1392.76,11356 1391.12,11354.2 1388.59,11354.2 C1386.76,11354.2 1385.48,11354.7 1384.81,11355.1 L1385.48,11357.3 C1385.98,11357.2 1386.29,11357.1 1387.03,11357.1 M1373.5,11354.2 C1367.68,11354.2 1364.26,11358.3 1364.26,11364.1 C1364.26,11370 1367.45,11373.8 1373.34,11373.8 C1379.23,11373.8 1382.62,11369.9 1382.62,11364 C1382.62,11358.2 1379.35,11354.2 1373.5,11354.2 M1373.34,11371.2 C1369.51,11371.2 1367.5,11367.9 1367.5,11364 C1367.5,11360.1 1369.48,11356.8 1373.34,11356.8 C1377.32,11356.8 1379.39,11360 1379.39,11364 C1379.39,11367.9 1377.32,11371.2 1373.34,11371.2 M1347.17,11366.7 L1347.17,11354.6 L1343.93,11354.6 L1343.93,11367.4 C1343.93,11371.4 1346.07,11373.9 1350.09,11373.9 C1352.28,11373.9 1354.54,11373.2 1356.81,11372 L1357.5,11373.4 L1359.73,11373.4 L1359.73,11354.6 L1356.5,11354.6 L1356.5,11369.8 C1354.62,11370.7 1352.85,11371.1 1351.26,11371.1 C1348.18,11371.1 1347.17,11369.8 1347.17,11366.7 M1336.35,11358.9 C1337.75,11358.9 1338.73,11357.8 1338.73,11356.5 C1338.73,11355.3 1338.21,11354.6 1337.09,11354.2 C1337.59,11353.1 1338.26,11351.8 1339.15,11350.2 L1337.9,11349.4 C1336.2,11350.9 1333.89,11353.2 1333.89,11356 C1333.89,11357.6 1334.82,11358.9 1336.35,11358.9 M1309.42,11354.2 C1307.7,11354.2 1305.87,11354.5 1303.96,11355.3 L1304.7,11357.5 C1305.87,11357.1 1307.07,11356.8 1308.32,11356.8 C1312.96,11356.8 1315.39,11359.3 1315.39,11364.4 C1315.39,11368.8 1313.12,11371.1 1308.6,11371.1 C1307.15,11371.1 1305.87,11370.9 1304.7,11370.4 L1303.92,11372.8 C1305.51,11373.5 1307.15,11373.8 1308.76,11373.8 C1315.12,11373.8 1318.62,11369.7 1318.62,11363.8 C1318.62,11357.8 1315.35,11354.2 1309.42,11354.2 M1296.53,11361.5 L1296.53,11373.4 L1299.76,11373.4 L1299.76,11360.7 C1299.76,11356.7 1297.54,11354.2 1293.56,11354.2 C1291.54,11354.2 1289.35,11354.8 1286.93,11356.1 L1286.2,11354.6 L1283.96,11354.6 L1283.96,11373.4 L1287.21,11373.4 L1287.21,11358.3 C1289.12,11357.4 1290.84,11356.9 1292.4,11356.9 C1295.51,11356.9 1296.53,11358.3 1296.53,11361.5 M1272.29,11354.2 C1270.96,11354.2 1269.64,11354.5 1268.2,11355 L1268.82,11357.3 C1269.37,11357.1 1270.23,11356.9 1271.35,11356.9 C1273.78,11356.9 1274.32,11358.2 1274.32,11360.6 L1274.32,11370.8 L1268.15,11370.8 L1268.15,11373.4 L1274.32,11373.4 L1274.32,11378.7 L1277.56,11378.5 L1277.56,11373.4 L1280.71,11373.4 L1280.71,11370.8 L1277.56,11370.8 L1277.56,11360.4 C1277.56,11356.4 1276.2,11354.2 1272.29,11354.2 M1253.42,11379.4 L1252.12,11377 C1250.5,11378.1 1248.7,11379.2 1245.89,11379.2 C1242.6,11379.2 1240.31,11377.6 1240.31,11374.3 C1240.31,11370.5 1243.35,11367.1 1252.79,11356.7 L1252.79,11354.6 L1236.79,11354.6 L1236.79,11357.4 L1248.26,11357.4 C1238.95,11367.9 1237.07,11370.6 1237.07,11374.3 C1237.07,11379 1240.62,11382.1 1245.39,11382.1 C1249.2,11382.1 1250.89,11381 1253.42,11379.4 "/>
</g>

<g fill="none" stroke="#000000" stroke-opacity="1" stroke-width="1.51181" stroke-linecap="round" stroke-linejoin="round" transform="matrix(1,0,0,1,0,0)"
font-family="Arial" font-size="10.6667" font-weight="400" font-style="normal" 
>
</g>

<g fill="none" stroke="#000000" stroke-opacity="1" stroke-width="1.51181" stroke-linecap="round" stroke-linejoin="round" transform="matrix(1,0,0,1,0,0)"
font-family="Arial" font-size="10.6667" font-weight="400" font-style="normal" 
>
</g>

<g fill="none" stroke="#000000" stroke-opacity="1" stroke-width="1" stroke-linecap="square" stroke-linejoin="bevel" transform="matrix(1,0,0,1,0,0)"
font-family="Arial" font-size="10.6667" font-weight="400" font-style="normal" 
>
<path vector-effect="none" fill-rule="nonzero" d="M1085.56,2268.38 L181.157,2199.81 L195.445,2011.35 L1214.08,573.242 L1085.56,2268.38 M1225.19,426.663 L1079.82,2344.16 L99.6288,2269.85 L121.25,1984.66 L1225.19,426.663"/>
</g>

<g fill="none" stroke="#000000" stroke-opacity="1" stroke-width="1.51181" stroke-linecap="round" stroke-linejoin="round" transform="matrix(1,0,0,1,0,0)"
font-family="Arial" font-size="10.6667" font-weight="400" font-style="normal" 
>
</g>

<g fill="none" stroke="#000000" stroke-opacity="1" stroke-width="1.51181" stroke-linecap="round" stroke-linejoin="round" transform="matrix(1,0,0,1,0,0)"
font-family="Arial" font-size="10.6667" font-weight="400" font-style="normal" 
>
</g>

<g fill="#000000" fill-opacity="1" stroke="#000000" stroke-opacity="1" stroke-width="1" stroke-linecap="square" stroke-linejoin="bevel" transform="matrix(1,0,0,1,0,0)"
font-family="Arial" font-size="10.6667" font-weight="400" font-style="normal" 
>
<path vector-effect="none" fill-rule="evenodd" d="M767.859,2059.37 L769.795,2033.83 L765.261,2033.49 L763.818,2052.53 L752.968,2032.56 L747.437,2032.14 L745.501,2057.68 L750.035,2058.02 L751.47,2039.09 L762.406,2058.96 L767.859,2059.37 M722.778,2049.23 C722.442,2053.66 725.808,2056.18 731.167,2056.59 L739.939,2057.25 L741.875,2031.72 L733.727,2031.1 C729.411,2030.77 726.366,2031.25 724.562,2032.52 C722.757,2033.79 721.749,2035.32 721.603,2037.23 C721.338,2040.74 723.466,2043.45 726.409,2044.32 C724.096,2045.07 722.945,2047.02 722.778,2049.23 M732.325,2052.48 C729.147,2052.24 727.082,2051.56 727.256,2049.27 C727.44,2046.84 729.711,2046.45 732.765,2046.68 L736.161,2046.94 L735.722,2052.73 L732.325,2052.48 M733.407,2042.55 C729.465,2042.25 725.89,2041.46 726.12,2038.42 C726.382,2034.96 730.014,2035.02 733.955,2035.32 L737.025,2035.55 L736.477,2042.78 L733.407,2042.55"/>
</g>

<g fill="none" stroke="#000000" stroke-opacity="1" stroke-width="1.51181" stroke-linecap="round" stroke-linejoin="round" transform="matrix(1,0,0,1,0,0)"
font-family="Arial" font-size="10.6667" font-weight="400" font-style="normal" 
>
</g>

<g fill="none" stroke="#000000" stroke-opacity="1" stroke-width="1.51181" stroke-linecap="round" stroke-linejoin="round" transform="matrix(1,0,0,1,0,0)"
font-family="Arial" font-size="10.6667" font-weight="400" font-style="normal" 
>
</g>

<g fill="#000000" fill-opacity="1" stroke="#000000" stroke-opacity="1" stroke-width="1" stroke-linecap="square" stroke-linejoin="bevel" transform="matrix(1,0,0,1,0,0)"
font-family="Arial" font-size="10.6667" font-weight="400" font-style="normal" 
>
<path vector-effect="none" fill-rule="evenodd" d="M814.899,2018.04 L816.626,1995.26 L812.575,1994.96 L811.288,2011.94 L801.622,1994.13 L796.683,1993.75 L794.956,2016.53 L799.007,2016.84 L800.288,1999.95 L810.038,2017.67 L814.899,2018.04 M784.082,2009.08 C788.601,2009.42 791.809,2005.97 792.156,2001.39 C792.544,1996.26 789.619,1992.89 784.291,1992.48 C782.312,1992.33 780.415,1992.55 778.545,1993.04 L779.042,1995.78 C780.406,1995.56 781.898,1995.51 783.519,1995.64 C786.541,1995.87 788.161,1997.24 788.208,1999.72 L777.317,1998.9 L777.199,2000.45 C776.808,2005.61 779.112,2008.7 784.082,2009.08 M787.902,2002.52 C787.622,2004.76 786.266,2006.11 784.256,2005.96 C782.013,2005.79 780.854,2004.54 781.046,2002 L787.902,2002.52 M763.486,1991.8 L763.867,1994.63 C764.47,1994.52 765.708,1994.32 766.83,1994.4 C768.996,1994.57 769.411,1995.7 769.319,1996.91 L768.753,2004.37 L763.285,2003.96 L763.045,2007.12 L768.514,2007.54 L768.137,2012.51 L772.188,2012.81 L772.565,2007.84 L775.198,2008.04 L775.437,2004.88 L772.804,2004.68 L773.378,1997.11 C773.59,1994.32 773.088,1991.63 768.056,1991.25 C766.545,1991.14 764.641,1991.45 763.486,1991.8 M733.773,2005.89 C733.473,2009.85 736.483,2012.1 741.251,2012.46 L749.088,2013.05 L750.815,1990.27 L743.539,1989.72 C739.691,1989.43 736.979,1989.85 735.373,1990.98 C733.766,1992.13 732.865,1993.47 732.736,1995.19 C732.498,1998.32 734.398,2000.75 737.02,2001.51 C734.948,2002.17 733.922,2003.93 733.773,2005.89 M742.297,2008.79 C739.461,2008.58 737.627,2007.97 737.782,2005.93 C737.946,2003.76 739.962,2003.41 742.689,2003.62 L745.712,2003.85 L745.319,2009.02 L742.297,2008.79 M743.266,1999.94 C739.745,1999.67 736.555,1998.96 736.76,1996.26 C736.995,1993.16 740.234,1993.22 743.755,1993.48 L746.482,1993.69 L745.993,2000.14 L743.266,1999.94 M716.203,1997.48 C715.855,2002.06 718.053,2004.07 722.992,2004.45 C724.379,2004.55 726.182,2004.33 728.402,2003.78 L727.989,2000.95 C726.466,2001.4 725.088,2001.6 723.842,2001.5 C720.851,2001.28 720.046,2000.53 720.258,1997.72 L723.526,1997.81 C727.234,1997.89 730.333,1996.7 730.6,1993.18 C730.829,1990.15 728.42,1988.25 725.257,1988.01 C723.387,1987.87 721.807,1988.25 720.473,1989.1 L720.106,1987.95 L716.943,1987.71 L716.203,1997.48 M720.723,1991.6 C721.62,1991.13 722.6,1990.82 724.049,1990.93 C725.497,1991.04 726.634,1991.75 726.527,1993.17 C726.435,1994.38 725.353,1995 723.274,1994.94 L720.47,1994.93 L720.723,1991.6 M709.331,1995.11 C709.096,1998.21 707.227,2000.12 704.002,1999.87 C702.055,1999.73 701.329,1999.37 699.729,1998.58 L698.407,2001.13 C700.285,2002.19 701.663,2002.83 704.42,2003.04 C709.531,2003.43 712.998,2000.48 713.382,1995.41 C713.756,1990.47 710.674,1986.9 705.672,1986.52 C703.008,1986.32 701.218,1986.78 699.432,1987.6 L700.357,1990.29 C702.058,1989.76 702.828,1989.52 704.776,1989.67 C707.876,1989.9 709.555,1992.15 709.331,1995.11 M690.239,2009.45 L694.274,2009.76 L696.066,1986.12 L692.03,1985.82 L690.239,2009.45 M684.271,2001.15 L691.039,1994.55 L685.113,1985.29 L680.408,1984.94 L686.319,1994.19 L679.566,2000.79 L684.271,2001.15"/>
</g>

<g fill="none" stroke="#000000" stroke-opacity="1" stroke-width="1.51181" stroke-linecap="round" stroke-linejoin="round" transform="matrix(1,0,0,1,0,0)"
font-family="Arial" font-size="10.6667" font-weight="400" font-style="normal" 
>
</g>

<g fill="none" stroke="#000000" stroke-opacity="1" stroke-width="1.51181" stroke-linecap="round" stroke-linejoin="round" transform="matrix(1,0,0,1,0,0)"
font-family="Arial" font-size="10.6667" font-weight="400" font-style="normal" 
>
</g>

<g fill="#000000" fill-opacity="1" stroke="#000000" stroke-opacity="1" stroke-width="1" stroke-linecap="square" stroke-linejoin="bevel" transform="matrix(1,0,0,1,0,0)"
font-family="Arial" font-size="10.6667" font-weight="400" font-style="normal" 
>
<path vector-effect="none" fill-rule="evenodd" d="M893.982,1982.53 L895.604,1961.14 L893.049,1960.94 L891.684,1978.94 L881.363,1960.06 L878.107,1959.81 L876.485,1981.2 L879.056,1981.4 L880.413,1963.5 L890.741,1982.28 L893.982,1982.53 M865.888,1974.24 C870.312,1974.58 872.93,1971.26 873.272,1966.75 C873.64,1961.9 871.182,1958.97 866.337,1958.61 C864.716,1958.48 863.09,1958.64 861.443,1959.08 L861.77,1960.97 C862.938,1960.65 864.198,1960.56 865.46,1960.65 C868.888,1960.91 870.973,1962.97 870.74,1966.04 L860.504,1965.26 L860.324,1965.58 L860.22,1966.95 C859.903,1971.12 861.774,1973.93 865.888,1974.24 M862.764,1967.49 L870.523,1968.07 C870.02,1970.57 868.548,1972.42 865.76,1972.21 C863.407,1972.03 862.582,1969.88 862.764,1967.49 M852.081,1957.52 C851.021,1957.44 849.958,1957.61 848.772,1957.96 L849.135,1959.79 C849.583,1959.67 850.283,1959.53 851.171,1959.6 C853.087,1959.75 853.446,1960.81 853.296,1962.79 L852.686,1970.83 L847.794,1970.46 L847.64,1972.48 L852.532,1972.85 L852.211,1977.09 L854.791,1977.16 L855.103,1973.05 L857.596,1973.24 L857.75,1971.21 L855.257,1971.02 L855.88,1962.8 C856.12,1959.63 855.165,1957.76 852.081,1957.52 M841.112,1956.69 C840.053,1956.61 838.99,1956.78 837.804,1957.13 L838.167,1958.96 C838.615,1958.84 839.314,1958.7 840.202,1958.77 C842.119,1958.92 842.477,1959.98 842.327,1961.96 L841.718,1970 L836.825,1969.62 L836.672,1971.65 L841.564,1972.02 L841.243,1976.26 L843.823,1976.33 L844.135,1972.22 L846.628,1972.4 L846.781,1970.38 L844.288,1970.19 L844.912,1961.96 C845.152,1958.8 844.197,1956.93 841.112,1956.69 M832.703,1973.78 C831.768,1973.71 830.979,1974.4 830.909,1975.32 C830.838,1976.25 831.514,1977.06 832.449,1977.13 C833.368,1977.2 834.172,1976.51 834.243,1975.57 C834.313,1974.65 833.622,1973.85 832.703,1973.78 M834.117,1971.46 L835.246,1956.56 L832.769,1956.37 L831.639,1971.27 L834.117,1971.46 M817.552,1964.86 L818.279,1955.27 L815.708,1955.08 L814.934,1965.29 C814.693,1968.46 816.262,1970.51 819.44,1970.75 C821.17,1970.88 822.998,1970.53 824.865,1969.67 L825.345,1970.79 L827.105,1970.92 L828.235,1956.03 L825.664,1955.83 L824.747,1967.93 C823.213,1968.53 821.801,1968.75 820.524,1968.65 C818.093,1968.47 817.362,1967.37 817.552,1964.86 M806.876,1948.19 C807.764,1948.26 808.96,1948.6 810.4,1949.24 L811.206,1947.5 C810.137,1946.92 808.259,1946.27 806.685,1946.15 C801.855,1945.79 798.976,1948.22 798.609,1953.06 L797.425,1968.67 L799.248,1968.81 L799.571,1968.07 L800.29,1968.5 C801.373,1969.1 802.523,1969.44 803.753,1969.53 C808.303,1969.88 811.105,1966.61 811.45,1962.06 C811.779,1957.71 809.235,1954.28 805.09,1953.96 C803.766,1953.86 802.416,1954.1 801.055,1954.69 L801.086,1954.28 C801.409,1950.02 802.731,1947.88 806.876,1948.19 M808.822,1962.2 C808.572,1965.49 806.853,1967.71 803.597,1967.47 C802.459,1967.38 801.31,1967.04 800.164,1966.44 L800.912,1956.58 C801.89,1956.09 803.048,1955.89 804.357,1955.99 C807.598,1956.24 809.07,1958.93 808.822,1962.2 M792.189,1956.71 C793.295,1956.8 794.135,1956.06 794.217,1954.97 C794.285,1954.08 793.927,1953.43 793.062,1953.05 C793.53,1952.25 794.125,1951.23 794.935,1950.06 L793.987,1949.33 C792.545,1950.36 790.581,1952.09 790.411,1954.34 C790.314,1955.61 790.99,1956.62 792.189,1956.71 M771.811,1951.44 C770.455,1951.34 768.985,1951.51 767.429,1951.98 L767.872,1953.79 C768.833,1953.52 769.797,1953.4 770.795,1953.48 C774.472,1953.76 776.24,1955.85 775.935,1959.87 C775.671,1963.36 773.736,1965.11 770.153,1964.84 C769,1964.75 768.001,1964.48 767.096,1964.02 L766.345,1965.86 C767.566,1966.5 768.838,1966.88 770.116,1966.98 C775.148,1967.36 778.183,1964.33 778.542,1959.6 C778.9,1954.87 776.516,1951.8 771.811,1951.44 M761.464,1956.47 L760.749,1965.89 L763.32,1966.09 L764.08,1956.05 C764.32,1952.89 762.712,1950.75 759.565,1950.51 C757.944,1950.39 756.175,1950.79 754.184,1951.62 L753.699,1950.38 L751.922,1950.24 L750.793,1965.14 L753.364,1965.33 L754.268,1953.41 C755.833,1952.81 757.233,1952.54 758.463,1952.64 C760.941,1952.82 761.653,1953.97 761.464,1956.47 M742.395,1949.21 C741.336,1949.13 740.273,1949.3 739.087,1949.65 L739.45,1951.48 C739.898,1951.35 740.598,1951.22 741.486,1951.29 C743.402,1951.43 743.76,1952.49 743.61,1954.47 L743.001,1962.51 L738.109,1962.14 L737.955,1964.17 L742.847,1964.54 L742.526,1968.77 L745.106,1968.84 L745.418,1964.73 L747.911,1964.92 L748.064,1962.89 L745.572,1962.71 L746.195,1954.48 C746.435,1951.32 745.48,1949.44 742.395,1949.21 M714.281,1949.66 L719.453,1950.05 L718.003,1969.19 L720.932,1969.41 L726.855,1967.13 L726.249,1965 L720.729,1967.12 L722.008,1950.25 L727.726,1950.68 L727.898,1948.42 L714.452,1947.4 L714.281,1949.66 M696.088,1945.73 C691.492,1945.38 688.521,1948.4 688.173,1953 C687.816,1957.7 690.126,1960.92 694.785,1961.27 C699.459,1961.62 702.388,1958.74 702.745,1954.04 C703.096,1949.41 700.731,1946.08 696.088,1945.73 M694.94,1959.23 C691.917,1959 690.515,1956.2 690.748,1953.13 C690.984,1950.01 692.755,1947.53 695.809,1947.76 C698.972,1948 700.415,1950.66 700.174,1953.84 C699.937,1956.97 698.102,1959.47 694.94,1959.23 M673.965,1953.97 L674.691,1944.39 L672.12,1944.19 L671.347,1954.4 C671.106,1957.58 672.674,1959.62 675.852,1959.86 C677.582,1960 679.41,1959.65 681.278,1958.79 L681.757,1959.9 L683.518,1960.04 L684.647,1945.14 L682.076,1944.95 L681.159,1957.04 C679.625,1957.64 678.213,1957.87 676.936,1957.77 C674.505,1957.58 673.774,1956.48 673.965,1953.97 M651.66,1963.36 C650.99,1963.31 650.223,1963.09 649.293,1962.74 L648.748,1964.56 C649.768,1964.95 651.027,1965.3 652.289,1965.4 C655.467,1965.64 657.379,1964.18 657.649,1960.63 L657.841,1958.09 L660.007,1958.26 L660.155,1956.31 L657.989,1956.14 L658.97,1943.2 L656.415,1943 L655.434,1955.95 L650.51,1955.58 L650.363,1957.52 L655.286,1957.9 L655.101,1960.34 C654.951,1962.32 653.919,1963.53 651.66,1963.36 M642.243,1941.65 C637.647,1941.3 634.676,1944.32 634.327,1948.91 C633.97,1953.62 636.281,1956.83 640.939,1957.19 C645.614,1957.54 648.543,1954.66 648.9,1949.95 C649.25,1945.33 646.886,1942 642.243,1941.65 M641.094,1955.15 C638.072,1954.92 636.67,1952.11 636.903,1949.05 C637.139,1945.93 638.91,1943.45 641.964,1943.68 C645.126,1943.92 646.57,1946.58 646.329,1949.76 C646.091,1952.89 644.257,1955.39 641.094,1955.15 M626.131,1942.73 C628.047,1942.87 628.035,1943.86 627.948,1945.01 L626.578,1963.07 L629.149,1963.27 L630.587,1944.3 C630.746,1942.2 629.563,1940.65 627.553,1940.5 C626.089,1940.39 625.043,1940.75 624.489,1941.02 L624.888,1942.79 C625.3,1942.73 625.554,1942.68 626.131,1942.73 M615.572,1939.59 C614.154,1939.49 612.734,1939.82 611.231,1940.63 L610.89,1939.55 L609.098,1939.42 L607.415,1961.62 L609.97,1961.81 L610.549,1954.18 C611.48,1954.7 612.63,1955.04 614.017,1955.15 C618.597,1955.49 621.632,1952.46 621.984,1947.82 C622.33,1943.26 620.121,1939.94 615.572,1939.59 M614.893,1941.72 C618.165,1941.97 619.592,1944.44 619.339,1947.78 C619.087,1951.1 617.337,1953.31 614.002,1953.06 C612.725,1952.96 611.635,1952.66 610.699,1952.2 L611.444,1942.37 C612.58,1941.86 613.304,1941.6 614.893,1941.72 "/>
</g>

<g fill="none" stroke="#000000" stroke-opacity="1" stroke-width="1.51181" stroke-linecap="round" stroke-linejoin="round" transform="matrix(1,0,0,1,0,0)"
font-family="Arial" font-size="10.6667" font-weight="400" font-style="normal" 
>
</g>

<g fill="none" stroke="#000000" stroke-opacity="1" stroke-width="1.51181" stroke-linecap="round" stroke-linejoin="round" transform="matrix(1,0,0,1,0,0)"
font-family="Arial" font-size="10.6667" font-weight="400" font-style="normal" 
>
</g>

<g fill="none" stroke="#000000" stroke-opacity="1" stroke-width="1" stroke-linecap="square" stroke-linejoin="bevel" transform="matrix(1,0,0,1,0,0)"
font-family="Arial" font-size="10.6667" font-weight="400" font-style="normal" 
>
<path vector-effect="none" fill-rule="nonzero" d="M761.766,2403.25 L949.778,2417.09 L351.762,10392.6 L162.75,10378.8 L761.766,2403.25 M81.81,10447.9 L691.695,2322.31 L1030.72,2348.02 L420.833,10473.6 L81.81,10447.9"/>
</g>

<g fill="none" stroke="#000000" stroke-opacity="1" stroke-width="1.51181" stroke-linecap="round" stroke-linejoin="round" transform="matrix(1,0,0,1,0,0)"
font-family="Arial" font-size="10.6667" font-weight="400" font-style="normal" 
>
</g>

<g fill="none" stroke="#000000" stroke-opacity="1" stroke-width="1.51181" stroke-linecap="round" stroke-linejoin="round" transform="matrix(1,0,0,1,0,0)"
font-family="Arial" font-size="10.6667" font-weight="400" font-style="normal" 
>
</g>

<g fill="#000000" fill-opacity="1" stroke="#000000" stroke-opacity="1" stroke-width="1" stroke-linecap="square" stroke-linejoin="bevel" transform="matrix(1,0,0,1,0,0)"
font-family="Arial" font-size="10.6667" font-weight="400" font-style="normal" 
>
<path vector-effect="none" fill-rule="evenodd" d="M253.949,10017.8 L253.971,10042.7 L258.408,10042.7 L258.392,10024.1 L270.393,10042.7 L275.783,10042.7 L275.762,10017.8 L271.34,10017.8 L271.356,10036.2 L259.277,10017.8 L253.949,10017.8 M290.608,10021.3 C293.155,10021.3 294.843,10021.9 296.907,10022.7 L298.372,10018.8 L297.872,10018.6 C295.605,10017.8 293.621,10017.3 290.449,10017.3 C285.449,10017.3 281.06,10019.5 281.064,10024.3 C281.069,10029.4 285.07,10030.7 288.993,10031.9 C291.04,10032.5 294.791,10033.6 294.793,10035.6 C294.795,10038.1 291.765,10039 289.108,10039 C287.311,10039 285.045,10038.5 282.263,10037.4 L281.575,10037.1 L280.079,10041 L280.657,10041.3 C283.455,10042.3 285.299,10043 288.752,10043 C294.409,10043 299.219,10040.9 299.215,10035.6 C299.21,10030.7 295.147,10029.3 291.224,10028.1 C289.317,10027.5 285.503,10026.3 285.502,10024.5 C285.5,10022.2 288.015,10021.3 290.608,10021.3 "/>
</g>

<g fill="none" stroke="#000000" stroke-opacity="1" stroke-width="1.51181" stroke-linecap="round" stroke-linejoin="round" transform="matrix(1,0,0,1,0,0)"
font-family="Arial" font-size="10.6667" font-weight="400" font-style="normal" 
>
</g>

<g fill="none" stroke="#000000" stroke-opacity="1" stroke-width="1.51181" stroke-linecap="round" stroke-linejoin="round" transform="matrix(1,0,0,1,0,0)"
font-family="Arial" font-size="10.6667" font-weight="400" font-style="normal" 
>
</g>

<g fill="#000000" fill-opacity="1" stroke="#000000" stroke-opacity="1" stroke-width="1" stroke-linecap="square" stroke-linejoin="bevel" transform="matrix(1,0,0,1,0,0)"
font-family="Arial" font-size="10.6667" font-weight="400" font-style="normal" 
>
<path vector-effect="none" fill-rule="evenodd" d="M214.206,10061.6 L214.226,10083.7 L218.163,10083.7 L218.149,10067.2 L228.819,10083.7 L233.616,10083.7 L233.597,10061.6 L229.659,10061.6 L229.674,10078 L218.941,10061.6 L214.206,10061.6 M244.431,10068 C240.04,10068 237.199,10071.6 237.203,10076 C237.208,10081 240.273,10084 245.46,10084 C247.382,10084 249.21,10083.7 250.959,10083.1 L250.285,10080.4 C248.973,10080.8 247.536,10080.9 245.973,10080.9 C243.036,10080.9 241.363,10079.7 241.142,10077.3 L251.736,10077.3 L251.734,10075.8 C251.73,10070.8 249.259,10068 244.431,10068 M241.233,10074.6 C241.325,10072.4 242.543,10071 244.496,10071 C246.668,10071 247.887,10072.1 247.889,10074.6 L241.233,10074.6 M266.147,10083.1 L265.566,10080.4 C264.988,10080.6 263.801,10080.9 262.723,10080.9 C260.598,10080.9 260.128,10079.8 260.127,10078.6 L260.121,10071.4 L265.434,10071.4 L265.431,10068.3 L260.118,10068.3 L260.114,10063.5 L256.177,10063.5 L256.181,10068.3 L253.618,10068.3 L253.621,10071.4 L256.184,10071.4 L256.19,10078.7 C256.192,10081.5 256.866,10084 261.757,10084 C263.226,10084 265.054,10083.6 266.147,10083.1 M286.787,10064.7 C289.068,10064.7 290.569,10065.2 292.398,10065.9 L293.707,10062.4 L293.254,10062.3 C291.237,10061.5 289.471,10061.1 286.659,10061.1 C282.206,10061.1 278.301,10063.1 278.305,10067.4 C278.309,10071.8 281.873,10073.1 285.358,10074.1 C287.186,10074.7 290.515,10075.6 290.517,10077.4 C290.519,10079.6 287.832,10080.4 285.457,10080.4 C283.863,10080.4 281.847,10079.9 279.378,10079 L278.768,10078.8 L277.427,10082.2 L277.943,10082.4 C280.444,10083.4 282.07,10084 285.148,10084 C290.163,10084 294.459,10082.1 294.454,10077.4 C294.451,10073 290.825,10071.8 287.339,10070.7 C285.636,10070.2 282.244,10069.1 282.243,10067.6 C282.241,10065.4 284.49,10064.7 286.787,10064.7 M300.039,10066.4 C301.289,10066.4 302.413,10065.3 302.412,10064 C302.41,10062.8 301.284,10061.7 300.034,10061.7 C298.784,10061.7 297.676,10062.8 297.677,10064.1 C297.678,10065.3 298.789,10066.4 300.039,10066.4 M298.118,10068.3 L298.132,10083.7 L301.976,10083.7 L301.962,10068.3 L298.118,10068.3 M305.203,10075.9 C305.207,10080.8 308.241,10084 313.179,10084 C314.585,10084 315.991,10083.6 317.365,10082.8 L317.616,10083.6 L320.444,10083.6 L320.424,10060.7 L316.518,10060.7 L316.525,10068.5 C315.556,10068.1 314.352,10067.9 312.837,10067.9 C308.259,10067.9 305.199,10071.1 305.203,10075.9 M313.848,10080.9 C310.708,10080.9 309.144,10079.3 309.141,10076.1 C309.138,10072.7 310.668,10070.9 313.746,10070.9 C314.793,10070.9 315.73,10071.1 316.527,10071.5 L316.535,10080.2 C315.739,10080.7 314.833,10080.9 313.848,10080.9 M331.431,10067.9 C327.04,10067.9 324.199,10071.5 324.203,10075.9 C324.208,10080.9 327.273,10083.9 332.46,10083.9 C334.382,10083.9 336.21,10083.6 337.959,10083 L337.285,10080.4 C335.973,10080.7 334.536,10080.8 332.973,10080.9 C330.036,10080.9 328.363,10079.6 328.142,10077.2 L338.736,10077.2 L338.734,10075.7 C338.73,10070.7 336.259,10067.9 331.431,10067.9 M328.233,10074.5 C328.325,10072.3 329.543,10070.9 331.496,10070.9 C333.668,10070.9 334.887,10072.1 334.889,10074.5 L328.233,10074.5"/>
</g>

<g fill="none" stroke="#000000" stroke-opacity="1" stroke-width="1.51181" stroke-linecap="round" stroke-linejoin="round" transform="matrix(1,0,0,1,0,0)"
font-family="Arial" font-size="10.6667" font-weight="400" font-style="normal" 
>
</g>

<g fill="none" stroke="#000000" stroke-opacity="1" stroke-width="1.51181" stroke-linecap="round" stroke-linejoin="round" transform="matrix(1,0,0,1,0,0)"
font-family="Arial" font-size="10.6667" font-weight="400" font-style="normal" 
>
</g>

<g fill="#000000" fill-opacity="1" stroke="#000000" stroke-opacity="1" stroke-width="1" stroke-linecap="square" stroke-linejoin="bevel" transform="matrix(1,0,0,1,0,0)"
font-family="Arial" font-size="10.6667" font-weight="400" font-style="normal" 
>
<path vector-effect="none" fill-rule="evenodd" d="M188.054,10102 L188.072,10122.8 L190.572,10122.8 L190.557,10105.3 L201.9,10122.7 L205.057,10122.7 L205.038,10102 L202.554,10102 L202.569,10119.4 L191.21,10102 L188.054,10102 M215.528,10107.9 C211.231,10107.9 208.953,10111.3 208.957,10115.7 C208.961,10120.4 211.541,10123 216.26,10123 C217.822,10123 219.369,10122.8 220.931,10122.2 L220.476,10120.4 C219.367,10120.8 218.18,10121 216.946,10121 C213.618,10121 211.46,10119.2 211.457,10116.2 L221.379,10116.2 L221.535,10115.9 L221.534,10114.5 C221.53,10110.5 219.512,10107.9 215.528,10107.9 M219.034,10114.2 L211.502,10114.2 C211.813,10111.8 213.092,10109.9 215.795,10109.9 C218.077,10109.9 219.031,10111.9 219.034,10114.2 M229.604,10123 C230.619,10123 231.65,10122.8 232.759,10122.4 L232.274,10120.6 C231.852,10120.8 231.196,10121 230.321,10121 C228.461,10121 228.039,10120 228.037,10118 L228.03,10110.2 L232.78,10110.2 L232.778,10108.3 L228.028,10108.3 L228.025,10104.2 L225.54,10104.3 L225.544,10108.3 L223.106,10108.3 L223.108,10110.2 L225.546,10110.2 L225.553,10118.2 C225.555,10121.3 226.604,10123 229.604,10123 M240.604,10123 C241.619,10123 242.65,10122.8 243.759,10122.4 L243.274,10120.6 C242.852,10120.8 242.196,10120.9 241.321,10120.9 C239.461,10120.9 239.039,10119.9 239.037,10118 L239.03,10110.2 L243.78,10110.2 L243.778,10108.3 L239.028,10108.3 L239.025,10104.2 L236.54,10104.3 L236.544,10108.3 L234.106,10108.3 L234.108,10110.2 L236.546,10110.2 L236.553,10118.2 C236.555,10121.3 237.604,10123 240.604,10123 M247.808,10105.9 C248.714,10105.9 249.432,10105.2 249.431,10104.3 C249.43,10103.4 248.711,10102.7 247.805,10102.7 C246.914,10102.7 246.196,10103.4 246.197,10104.3 C246.198,10105.2 246.917,10105.9 247.808,10105.9 M246.606,10108.3 L246.619,10122.7 L249.025,10122.7 L249.013,10108.3 L246.606,10108.3 M263.314,10113.4 L263.322,10122.7 L265.807,10122.7 L265.798,10112.8 C265.795,10109.7 264.137,10107.8 261.059,10107.9 C259.372,10107.9 257.638,10108.3 255.889,10109.3 L255.356,10108.2 L253.638,10108.2 L253.65,10122.7 L256.15,10122.7 L256.14,10111 C257.577,10110.3 258.92,10109.9 260.155,10109.9 C262.53,10109.9 263.312,10111 263.314,10113.4 M274.406,10128.7 C273.531,10128.7 272.359,10128.5 270.921,10127.9 L270.266,10129.7 C271.344,10130.2 273.204,10130.6 274.735,10130.6 C279.407,10130.6 282.014,10128.1 282.01,10123.4 L281.997,10108.2 L280.231,10108.2 L279.966,10109 L279.247,10108.6 C278.169,10108.1 277.028,10107.9 275.825,10107.9 C271.419,10107.9 268.953,10111.2 268.957,10115.6 C268.96,10119.9 271.666,10123 275.682,10123 C276.979,10123 278.26,10122.6 279.525,10122 L279.525,10122.4 C279.529,10126.5 278.421,10128.7 274.406,10128.7 M271.472,10115.3 C271.469,10112.1 272.967,10109.8 276.123,10109.8 C277.233,10109.8 278.374,10110.1 279.515,10110.6 L279.523,10120.2 C278.617,10120.7 277.508,10121 276.258,10121 C273.102,10121 271.475,10118.5 271.472,10115.3 M288.476,10119.4 C287.397,10119.4 286.648,10120.2 286.649,10121.2 C286.65,10122.1 287.041,10122.7 287.916,10123 C287.526,10123.8 287.012,10124.8 286.325,10126 L287.294,10126.6 C288.606,10125.5 290.37,10123.7 290.368,10121.5 C290.367,10120.3 289.647,10119.4 288.476,10119.4 M309.041,10122.9 C310.369,10122.9 311.775,10122.7 313.244,10122.1 L312.68,10120.4 C311.774,10120.7 310.836,10120.9 309.883,10120.9 C306.321,10120.9 304.46,10119 304.456,10115.1 C304.453,10111.7 306.186,10109.9 309.67,10109.9 C310.78,10109.9 311.764,10110.1 312.671,10110.5 L313.263,10108.6 C312.028,10108.1 310.778,10107.8 309.544,10107.8 C304.653,10107.8 301.953,10111 301.957,10115.6 C301.961,10120.2 304.479,10123 309.041,10122.9 M319.114,10117.3 L319.106,10108.2 L316.606,10108.2 L316.615,10117.9 C316.618,10121 318.338,10122.9 321.401,10122.9 C322.947,10122.9 324.635,10122.4 326.493,10121.5 L327.072,10122.6 L328.775,10122.6 L328.763,10108.2 L326.278,10108.2 L326.288,10119.8 C324.82,10120.5 323.492,10120.8 322.289,10120.8 C319.899,10120.8 319.117,10119.8 319.114,10117.3 M337.604,10122.9 C338.619,10122.9 339.65,10122.7 340.759,10122.3 L340.273,10120.5 C339.852,10120.7 339.196,10120.9 338.321,10120.9 C336.461,10120.9 336.039,10119.9 336.037,10117.9 L336.03,10110.1 L340.78,10110.1 L340.778,10108.2 L336.028,10108.2 L336.025,10104.1 L333.54,10104.2 L333.544,10108.2 L331.106,10108.2 L331.108,10110.1 L333.546,10110.1 L333.553,10118.1 C333.555,10121.2 334.604,10122.9 337.604,10122.9 M351.884,10103.5 L352.87,10105.4 C354.134,10104.5 355.509,10103.6 357.665,10103.6 C360.181,10103.6 361.963,10104.9 361.965,10107.4 C361.968,10110.3 359.626,10113 352.368,10121 L352.369,10122.6 L364.682,10122.6 L364.68,10120.4 L355.852,10120.4 C363.016,10112.4 364.452,10110.2 364.45,10107.4 C364.446,10103.8 361.71,10101.4 358.054,10101.4 C355.116,10101.4 353.82,10102.2 351.884,10103.5 "/>
</g>

<g fill="none" stroke="#000000" stroke-opacity="1" stroke-width="1.51181" stroke-linecap="round" stroke-linejoin="round" transform="matrix(1,0,0,1,0,0)"
font-family="Arial" font-size="10.6667" font-weight="400" font-style="normal" 
>
</g>

<g fill="none" stroke="#000000" stroke-opacity="1" stroke-width="1.51181" stroke-linecap="round" stroke-linejoin="round" transform="matrix(1,0,0,1,0,0)"
font-family="Arial" font-size="10.6667" font-weight="400" font-style="normal" 
>
</g>

<g fill="none" stroke="#000000" stroke-opacity="1" stroke-width="1" stroke-linecap="square" stroke-linejoin="bevel" transform="matrix(1,0,0,1,0,0)"
font-family="Arial" font-size="10.6667" font-weight="400" font-style="normal" 
>
<path vector-effect="none" fill-rule="nonzero" d="M1602.75,20244 L550.435,19821.6 L604.599,19599.7 L670.219,19323.6 L708.685,19161.6 L741.495,19016.5 L770.062,18884.1 L790.144,18791.3 L801.741,18731.1 L813.479,18671.8 L824.227,18612.7 L835.116,18554.6 L844.874,18495.6 L854.491,18435.6 L863.966,18374.7 L877.825,18280.8 L897.059,18146.7 L916.292,17998.5 L936.232,17834 L970.598,17551.3 L996.902,17325.3 L1185.7,17324.6 L1602.75,20244 M1290.07,17249.1 L1743.47,20422.9 L453.278,19905.2 L530.353,19582 L596.962,19305.8 L634.581,19144.9 L667.532,19000.8 L696.099,18868.4 L716.181,18775.6 L727.919,18716.4 L739.657,18657.1 L750.546,18599 L760.446,18541 L770.345,18483 L780.103,18424 L789.578,18363.1 L803.579,18270.2 L821.822,18136.3 L841.197,17989 L861.279,17825.6 L895.644,17542.9 L929.444,17249.1 L1290.07,17249.1"/>
</g>

<g fill="none" stroke="#000000" stroke-opacity="1" stroke-width="1.51181" stroke-linecap="round" stroke-linejoin="round" transform="matrix(1,0,0,1,0,0)"
font-family="Arial" font-size="10.6667" font-weight="400" font-style="normal" 
>
</g>

<g fill="none" stroke="#000000" stroke-opacity="1" stroke-width="1.51181" stroke-linecap="round" stroke-linejoin="round" transform="matrix(1,0,0,1,0,0)"
font-family="Arial" font-size="10.6667" font-weight="400" font-style="normal" 
>
</g>

<g fill="#000000" fill-opacity="1" stroke="#000000" stroke-opacity="1" stroke-width="1" stroke-linecap="square" stroke-linejoin="bevel" transform="matrix(1,0,0,1,0,0)"
font-family="Arial" font-size="10.6667" font-weight="400" font-style="normal" 
>
<path vector-effect="none" fill-rule="evenodd" d="M1058.84,18317.6 L1057.97,18311.5 L1044.66,18313.4 L1043.87,18307.8 L1056.05,18298 L1055.05,18291 L1041.98,18301.7 C1039.63,18296.9 1035.94,18294.8 1031.1,18295.5 C1024.31,18296.4 1021.61,18301.6 1022.96,18311.1 L1024.58,18322.5 L1058.84,18317.6 M1032.24,18301.7 C1036.83,18301 1037.87,18305.7 1038.63,18311.1 L1039.07,18314.2 L1029.31,18315.6 L1028.66,18311 C1028,18306.4 1028.01,18302.3 1032.24,18301.7 M1025.07,18285.9 L1022.77,18269.8 L1017.17,18270.6 L1020.34,18292.8 L1054.6,18287.9 L1053.73,18281.8 L1040.71,18283.6 L1038.69,18269.5 L1033.11,18270.3 L1035.12,18284.4 L1025.07,18285.9"/>
</g>

<g fill="none" stroke="#000000" stroke-opacity="1" stroke-width="1.51181" stroke-linecap="round" stroke-linejoin="round" transform="matrix(1,0,0,1,0,0)"
font-family="Arial" font-size="10.6667" font-weight="400" font-style="normal" 
>
</g>

<g fill="none" stroke="#000000" stroke-opacity="1" stroke-width="1.51181" stroke-linecap="round" stroke-linejoin="round" transform="matrix(1,0,0,1,0,0)"
font-family="Arial" font-size="10.6667" font-weight="400" font-style="normal" 
>
</g>

<g fill="#000000" fill-opacity="1" stroke="#000000" stroke-opacity="1" stroke-width="1" stroke-linecap="square" stroke-linejoin="bevel" transform="matrix(1,0,0,1,0,0)"
font-family="Arial" font-size="10.6667" font-weight="400" font-style="normal" 
>
<path vector-effect="none" fill-rule="evenodd" d="M1129.52,18395.1 L1128.72,18389.5 L1116.47,18391.3 L1115.74,18386.2 L1126.95,18377.1 L1126.04,18370.7 L1114.01,18380.6 C1111.84,18376.1 1108.46,18374.2 1103.99,18374.8 C1097.75,18375.7 1095.28,18380.4 1096.53,18389.2 L1098.02,18399.6 L1129.52,18395.1 M1105.04,18380.5 C1109.28,18379.9 1110.22,18384.3 1110.92,18389.2 L1111.32,18392 L1102.35,18393.3 L1101.75,18389.1 C1101.14,18384.8 1101.17,18381.1 1105.04,18380.5 M1124.59,18357.4 C1123.6,18350.5 1118.31,18346.6 1111.45,18347.6 C1104.61,18348.6 1100.73,18353.7 1101.72,18360.6 C1102.72,18367.6 1107.83,18371.4 1114.79,18370.4 C1121.63,18369.4 1125.58,18364.3 1124.59,18357.4 M1106.06,18360.1 C1105.52,18356.3 1108.36,18353.7 1112.32,18353.2 C1116.35,18352.6 1119.67,18354.1 1120.23,18358 C1120.77,18361.8 1117.87,18364.3 1113.99,18364.8 C1110.17,18365.4 1106.6,18363.8 1106.06,18360.1 M1120.78,18330.7 C1119.79,18323.8 1114.5,18319.9 1107.63,18320.8 C1100.79,18321.8 1096.91,18326.9 1097.9,18333.9 C1098.9,18340.9 1104.01,18344.7 1110.97,18343.7 C1117.81,18342.7 1121.77,18337.6 1120.78,18330.7 M1102.25,18333.3 C1101.71,18329.6 1104.55,18327 1108.51,18326.4 C1112.53,18325.9 1115.86,18327.4 1116.41,18331.3 C1116.95,18335 1114.05,18337.5 1110.17,18338.1 C1106.35,18338.6 1102.78,18337.1 1102.25,18333.3 M1092.91,18316.1 L1095.83,18315.7 L1096.35,18319.3 L1100.71,18318.7 L1100.19,18315.1 L1117.73,18312.6 L1116.93,18307 L1099.39,18309.5 L1098.23,18301.4 L1093.87,18302 L1095.03,18310.1 L1091.94,18310.5 C1089.83,18310.8 1087.84,18309.3 1087.43,18306.4 C1087.24,18305.1 1087.36,18303.6 1087.41,18302.9 L1087.49,18302 L1083.41,18301.7 L1083.31,18302.5 C1082.87,18305.3 1083.04,18307.2 1083.21,18308.4 C1084.34,18316.3 1090.49,18316.5 1092.91,18316.1 M1086.09,18279.4 L1083.97,18264.6 L1078.84,18265.4 L1081.75,18285.8 L1113.26,18281.3 L1112.46,18275.7 L1100.49,18277.4 L1098.63,18264.4 L1093.48,18265.1 L1095.34,18278.1 L1086.09,18279.4 M1087.85,18259.8 L1109.75,18256.7 L1108.97,18251.2 L1092.13,18253.6 C1091.45,18252.6 1091.01,18251.4 1090.83,18250.1 C1090.57,18248.2 1090.75,18246.6 1091.33,18245.2 L1091.2,18245 L1086.03,18244.6 C1085.63,18245.9 1085.54,18247.3 1085.74,18248.7 C1086.07,18251.1 1087.04,18253.2 1088.6,18255 L1087.29,18255.9 L1087.85,18259.8 M1106.21,18228.7 C1105.22,18221.8 1099.93,18217.9 1093.06,18218.9 C1086.23,18219.9 1082.35,18225 1083.33,18231.9 C1084.34,18238.9 1089.44,18242.7 1096.41,18241.7 C1103.24,18240.8 1107.2,18235.6 1106.21,18228.7 M1087.68,18231.4 C1087.14,18227.6 1089.98,18225 1093.94,18224.5 C1097.96,18223.9 1101.29,18225.4 1101.85,18229.3 C1102.38,18233.1 1099.49,18235.6 1095.61,18236.1 C1091.78,18236.7 1088.21,18235.1 1087.68,18231.4 M1087.86,18193.6 C1081.9,18194.5 1078.33,18196.8 1079.22,18203.1 C1079.57,18205.5 1080.58,18208 1082.21,18210.3 L1080.92,18211.4 L1081.49,18215.3 L1103.39,18212.2 L1102.59,18206.6 L1086.1,18208.9 C1084.96,18206.8 1084.31,18205.1 1084.13,18203.9 C1083.74,18201.1 1085.43,18199.7 1087.98,18199.3 L1101.28,18197.4 L1100.48,18191.8 L1087.86,18193.6 M1096.69,18170.8 L1092.94,18172.2 C1093.28,18173 1093.93,18174.6 1094.16,18176.2 C1094.58,18179.2 1093.18,18180.1 1091.5,18180.3 L1081.15,18181.8 L1080.07,18174.2 L1075.71,18174.8 L1076.79,18182.4 L1069.9,18183.4 L1070.7,18189 L1077.59,18188 L1078.11,18191.6 L1082.47,18191 L1081.95,18187.4 L1092.44,18185.9 C1096.3,18185.3 1099.8,18183.9 1098.81,18176.9 C1098.51,18174.8 1097.5,18172.3 1096.69,18170.8 "/>
</g>

<g fill="none" stroke="#000000" stroke-opacity="1" stroke-width="1.51181" stroke-linecap="round" stroke-linejoin="round" transform="matrix(1,0,0,1,0,0)"
font-family="Arial" font-size="10.6667" font-weight="400" font-style="normal" 
>
</g>

<g fill="none" stroke="#000000" stroke-opacity="1" stroke-width="1.51181" stroke-linecap="round" stroke-linejoin="round" transform="matrix(1,0,0,1,0,0)"
font-family="Arial" font-size="10.6667" font-weight="400" font-style="normal" 
>
</g>

<g fill="#000000" fill-opacity="1" stroke="#000000" stroke-opacity="1" stroke-width="1" stroke-linecap="square" stroke-linejoin="bevel" transform="matrix(1,0,0,1,0,0)"
font-family="Arial" font-size="10.6667" font-weight="400" font-style="normal" 
>
<path vector-effect="none" fill-rule="evenodd" d="M1158.6,18415.2 C1159.4,18420.8 1162.66,18425 1168.45,18424.2 C1173.02,18423.5 1174.34,18419.7 1175.51,18414.8 C1176.43,18411 1176.93,18406.1 1180.47,18405.6 C1184.17,18405.1 1186.25,18408.7 1186.84,18412.8 C1187.14,18414.9 1186.95,18417.4 1186.07,18421.1 L1189.29,18422 C1190.11,18418.9 1190.57,18416.3 1190.02,18412.5 C1189.18,18406.6 1185.7,18401.2 1179.74,18402 C1174.03,18402.8 1173.43,18408.4 1172.18,18413.3 C1171.44,18416.2 1170.68,18420.2 1167.54,18420.6 C1164.4,18421.1 1162.32,18418.6 1161.71,18414.3 C1161.42,18412.3 1161.62,18409.7 1162.39,18407.7 L1159.5,18406.7 C1158.37,18409.3 1158.21,18412.5 1158.6,18415.2 M1162.46,18396.9 C1162.27,18395.6 1161.07,18394.7 1159.77,18394.8 C1158.46,18395 1157.57,18396.2 1157.76,18397.5 C1157.95,18398.8 1159.13,18399.7 1160.44,18399.5 C1161.74,18399.4 1162.65,18398.2 1162.46,18396.9 M1166.1,18398.1 L1187.1,18395.1 L1186.61,18391.6 L1165.6,18394.6 L1166.1,18398.1 M1181.94,18379.2 C1182.33,18381.9 1180.95,18382.2 1179.34,18382.4 L1153.9,18386.1 L1154.41,18389.7 L1181.11,18385.9 C1184.08,18385.4 1185.86,18383.3 1185.45,18380.5 C1185.16,18378.4 1184.35,18377.1 1183.81,18376.4 L1181.48,18377.5 C1181.68,18378.1 1181.82,18378.4 1181.94,18379.2 M1151.91,18364.1 L1182.06,18359.8 L1181.54,18356.2 L1156.19,18359.8 L1179.19,18339.7 L1178.54,18335.2 L1148.39,18339.5 L1148.91,18343.1 L1174.13,18339.5 L1151.26,18359.5 L1151.91,18364.1 M1154.52,18317.1 L1172.87,18321 L1156.36,18330 L1156.9,18333.8 L1177.78,18322.1 L1188.55,18324.7 L1188.03,18321 L1154.03,18313.6 L1154.52,18317.1 M1170.63,18300 C1171.01,18302.7 1169.64,18303 1168.03,18303.2 L1142.58,18306.9 L1143.1,18310.5 L1169.8,18306.7 C1172.77,18306.3 1174.55,18304.1 1174.14,18301.3 C1173.85,18299.2 1173.04,18297.9 1172.5,18297.2 L1170.16,18298.3 C1170.37,18298.9 1170.51,18299.2 1170.63,18300 M1171.6,18283.9 C1170.68,18277.4 1165.6,18274.2 1159.11,18275.1 C1152.49,18276.1 1148.74,18280.2 1149.68,18286.8 C1150.62,18293.4 1155.5,18296.6 1162.12,18295.6 C1168.67,18294.7 1172.54,18290.4 1171.6,18283.9 M1152.55,18286.4 C1151.94,18282.1 1155.41,18279.3 1159.71,18278.7 C1164.12,18278.1 1168.09,18279.8 1168.7,18284.1 C1169.34,18288.5 1166.11,18291.4 1161.61,18292 C1157.21,18292.6 1153.19,18290.9 1152.55,18286.4 M1153.49,18256.3 L1166.99,18254.3 L1166.47,18250.7 L1152.1,18252.8 C1147.6,18253.4 1145.25,18256.2 1145.89,18260.7 C1146.24,18263.1 1147.3,18265.5 1149.05,18267.9 L1147.63,18268.9 L1147.99,18271.4 L1168.99,18268.4 L1168.48,18264.7 L1151.45,18267.2 C1150.14,18265.2 1149.38,18263.3 1149.13,18261.6 C1148.64,18258.1 1149.96,18256.8 1153.49,18256.3 M1160.42,18242.6 C1160.65,18244.2 1161.93,18245.1 1163.47,18244.9 C1164.73,18244.7 1165.52,18244 1165.77,18242.7 C1167.03,18243.1 1168.62,18243.6 1170.51,18244.4 L1171.22,18242.9 C1169.34,18241.2 1166.36,18239 1163.17,18239.4 C1161.4,18239.7 1160.18,18240.9 1160.42,18242.6 M1161.31,18211.5 C1161.04,18209.6 1160.36,18207.6 1159.22,18205.6 L1156.86,18206.8 C1157.53,18208 1157.99,18209.3 1158.18,18210.7 C1158.92,18215.9 1156.56,18219 1150.9,18219.8 C1145.98,18220.5 1142.96,18218.4 1142.23,18213.3 C1142,18211.7 1142.06,18210.2 1142.45,18208.8 L1139.66,18208.3 C1139.13,18210.2 1139,18212.1 1139.26,18213.9 C1140.27,18221 1145.4,18224.3 1152.06,18223.3 C1158.73,18222.4 1162.26,18218.1 1161.31,18211.5 M1151.15,18198.6 L1137.86,18200.5 L1138.38,18204.1 L1152.55,18202.1 C1156.99,18201.4 1159.46,18198.5 1158.83,18194.1 C1158.5,18191.8 1157.41,18189.5 1155.63,18187 L1157.22,18185.9 L1156.86,18183.4 L1135.86,18186.4 L1136.37,18190.1 L1153.2,18187.7 C1154.5,18189.6 1155.3,18191.5 1155.55,18193.2 C1156.05,18196.7 1154.69,18198.1 1151.15,18198.6 M1155.39,18170 C1155.18,18168.6 1154.63,18167.1 1153.78,18165.6 L1151.36,18166.7 C1151.66,18167.2 1152.06,18168.2 1152.24,18169.4 C1152.62,18172.1 1151.27,18172.9 1148.49,18173.3 L1137.15,18175 L1136.17,18168.1 L1133.29,18168.5 L1134.28,18175.4 L1128.32,18176.2 L1129.01,18179.8 L1134.79,18179 L1135.3,18182.5 L1138.17,18182.1 L1137.67,18178.6 L1149.27,18176.9 C1153.71,18176.3 1156.01,18174.4 1155.39,18170 M1124.18,18153.2 L1126.73,18151.4 C1125.24,18149.7 1123.64,18147.9 1123.19,18144.8 C1122.67,18141.1 1124.17,18138.2 1127.84,18137.7 C1132.06,18137.1 1136.34,18140 1149.52,18148.8 L1151.87,18148.5 L1149.32,18130.7 L1146.14,18131.1 L1147.97,18143.9 C1134.82,18135.2 1131.42,18133.5 1127.32,18134.1 C1122.05,18134.9 1119.18,18139.3 1119.94,18144.6 C1120.55,18148.9 1121.99,18150.6 1124.18,18153.2 "/>
</g>

<g fill="none" stroke="#000000" stroke-opacity="1" stroke-width="1.51181" stroke-linecap="round" stroke-linejoin="round" transform="matrix(1,0,0,1,0,0)"
font-family="Arial" font-size="10.6667" font-weight="400" font-style="normal" 
>
</g>

<g fill="none" stroke="#000000" stroke-opacity="1" stroke-width="1.51181" stroke-linecap="round" stroke-linejoin="round" transform="matrix(1,0,0,1,0,0)"
font-family="Arial" font-size="10.6667" font-weight="400" font-style="normal" 
>
</g>

<g fill="none" stroke="#000000" stroke-opacity="1" stroke-width="1" stroke-linecap="square" stroke-linejoin="bevel" transform="matrix(1,0,0,1,0,0)"
font-family="Arial" font-size="10.6667" font-weight="400" font-style="normal" 
>
<path vector-effect="none" fill-rule="nonzero" d="M1555.33,21687.4 L485.88,20048.1 L2122.05,20704.7 L1555.33,21687.4 M2249.52,20634.1 L1538.79,21868.2 L344.761,20040 L450.007,19912 L2249.52,20634.1"/>
</g>

<g fill="none" stroke="#000000" stroke-opacity="1" stroke-width="1.51181" stroke-linecap="round" stroke-linejoin="round" transform="matrix(1,0,0,1,0,0)"
font-family="Arial" font-size="10.6667" font-weight="400" font-style="normal" 
>
</g>

<g fill="none" stroke="#000000" stroke-opacity="1" stroke-width="1.51181" stroke-linecap="round" stroke-linejoin="round" transform="matrix(1,0,0,1,0,0)"
font-family="Arial" font-size="10.6667" font-weight="400" font-style="normal" 
>
</g>

<g fill="#000000" fill-opacity="1" stroke="#000000" stroke-opacity="1" stroke-width="1" stroke-linecap="square" stroke-linejoin="bevel" transform="matrix(1,0,0,1,0,0)"
font-family="Arial" font-size="10.6667" font-weight="400" font-style="normal" 
>
<path vector-effect="none" fill-rule="evenodd" d="M1583.38,20713.8 L1588.96,20716 L1593.87,20703.8 L1598.96,20705.8 L1601.33,20721 L1607.74,20723.5 L1605.06,20707.2 C1610.34,20707.6 1613.94,20705.5 1615.72,20701 C1618.23,20694.8 1615.15,20690 1606.42,20686.5 L1596,20682.3 L1583.38,20713.8 M1609.89,20699 C1608.2,20703.2 1603.66,20701.7 1598.76,20699.8 L1595.93,20698.6 L1599.53,20689.7 L1603.76,20691.4 C1607.98,20693.1 1611.44,20695.1 1609.89,20699 M1642.32,20710.4 C1644.51,20705 1641.25,20700.4 1634.66,20697.8 L1623.85,20693.5 L1611.22,20724.9 L1621.27,20729 C1626.57,20731.1 1630.61,20731.7 1633.4,20730.8 C1636.18,20729.9 1638.06,20728.4 1639,20726 C1640.74,20721.7 1639.14,20717.4 1635.76,20715.2 C1638.99,20715.2 1641.23,20713.2 1642.32,20710.4 M1631.56,20702.5 C1635.46,20704.1 1637.8,20705.8 1636.67,20708.6 C1635.46,20711.6 1632.46,20711.2 1628.69,20709.7 L1624.5,20708 L1627.37,20700.8 L1631.56,20702.5 M1626.21,20714.6 C1631.08,20716.6 1635.28,20719 1633.78,20722.7 C1632.07,20727 1627.5,20725.5 1622.63,20723.6 L1618.86,20722 L1622.44,20713.1 L1626.21,20714.6"/>
</g>

<g fill="none" stroke="#000000" stroke-opacity="1" stroke-width="1.51181" stroke-linecap="round" stroke-linejoin="round" transform="matrix(1,0,0,1,0,0)"
font-family="Arial" font-size="10.6667" font-weight="400" font-style="normal" 
>
</g>

<g fill="none" stroke="#000000" stroke-opacity="1" stroke-width="1.51181" stroke-linecap="round" stroke-linejoin="round" transform="matrix(1,0,0,1,0,0)"
font-family="Arial" font-size="10.6667" font-weight="400" font-style="normal" 
>
</g>

<g fill="#000000" fill-opacity="1" stroke="#000000" stroke-opacity="1" stroke-width="1" stroke-linecap="square" stroke-linejoin="bevel" transform="matrix(1,0,0,1,0,0)"
font-family="Arial" font-size="10.6667" font-weight="400" font-style="normal" 
>
<path vector-effect="none" fill-rule="evenodd" d="M1492.37,20739.7 L1497.51,20741.8 L1502.02,20730.6 L1506.69,20732.4 L1508.86,20746.4 L1514.75,20748.7 L1512.28,20733.7 C1517.14,20734.1 1520.44,20732.1 1522.09,20728 C1524.38,20722.3 1521.55,20717.9 1513.53,20714.7 L1503.97,20710.8 L1492.37,20739.7 M1516.74,20726.1 C1515.18,20730 1511,20728.7 1506.49,20726.9 L1503.91,20725.8 L1507.21,20717.6 L1511.09,20719.2 C1514.97,20720.7 1518.16,20722.6 1516.74,20726.1 M1526.36,20753.9 C1532.71,20756.4 1538.59,20753.8 1541.12,20747.5 C1543.64,20741.2 1541.21,20735.5 1534.86,20732.9 C1528.43,20730.3 1522.69,20732.8 1520.12,20739.2 C1517.61,20745.5 1520.02,20751.3 1526.36,20753.9 M1533.18,20736.9 C1536.64,20738.3 1537.42,20741.9 1535.96,20745.5 C1534.48,20749.2 1531.56,20751.3 1527.97,20749.8 C1524.54,20748.5 1523.84,20744.8 1525.27,20741.3 C1526.68,20737.7 1529.75,20735.5 1533.18,20736.9 M1550.48,20763.5 C1556.84,20766.1 1562.72,20763.5 1565.25,20757.2 C1567.77,20750.9 1565.34,20745.2 1558.99,20742.6 C1552.56,20740 1546.82,20742.5 1544.25,20748.9 C1541.74,20755.1 1544.15,20761 1550.48,20763.5 M1557.3,20746.5 C1560.77,20747.9 1561.55,20751.6 1560.09,20755.2 C1558.61,20758.9 1555.69,20761 1552.1,20759.5 C1548.67,20758.2 1547.97,20754.5 1549.4,20750.9 C1550.81,20747.4 1553.88,20745.2 1557.3,20746.5 M1576.07,20746.9 L1575,20749.6 L1571.66,20748.2 L1570.06,20752.2 L1573.39,20753.6 L1566.94,20769.7 L1572.07,20771.7 L1578.52,20755.6 L1585.96,20758.6 L1587.57,20754.6 L1580.13,20751.6 L1581.27,20748.8 C1582.05,20746.9 1584.35,20746 1586.99,20747 C1588.19,20747.5 1589.42,20748.3 1589.95,20748.7 L1590.69,20749.2 L1592.9,20745.9 L1592.28,20745.4 C1590.12,20743.7 1588.48,20742.9 1587.39,20742.5 C1580.13,20739.6 1576.96,20744.7 1576.07,20746.9 M1623.02,20767.4 C1625.03,20762.4 1622.05,20758.2 1615.99,20755.8 L1606.06,20751.8 L1594.46,20780.7 L1603.68,20784.4 C1608.57,20786.4 1612.27,20786.9 1614.83,20786.1 C1617.39,20785.3 1619.1,20783.9 1619.98,20781.7 C1621.57,20777.8 1620.1,20773.8 1617,20771.8 C1619.96,20771.7 1622.02,20769.9 1623.02,20767.4 M1613.14,20760.1 C1616.72,20761.6 1618.88,20763.1 1617.84,20765.7 C1616.74,20768.4 1613.97,20768.1 1610.51,20766.7 L1606.66,20765.1 L1609.29,20758.6 L1613.14,20760.1 M1608.24,20771.2 C1612.71,20773 1616.56,20775.3 1615.18,20778.7 C1613.61,20782.6 1609.42,20781.2 1604.95,20779.4 L1601.49,20778 L1604.77,20769.9 L1608.24,20771.2 M1642.75,20785.7 C1645.08,20779.9 1643.06,20776.3 1636.8,20773.8 C1635.04,20773.1 1632.6,20772.7 1629.47,20772.5 L1628.86,20776.3 C1631.03,20776.4 1632.9,20776.7 1634.48,20777.3 C1638.28,20778.8 1639.01,20780.2 1637.59,20783.7 L1633.37,20782.3 C1628.6,20780.6 1624.06,20780.9 1622.27,20785.4 C1620.73,20789.2 1623.08,20792.7 1627.09,20794.3 C1629.47,20795.2 1631.68,20795.4 1633.76,20794.8 L1633.77,20796.5 L1637.78,20798.1 L1642.75,20785.7 M1634.47,20791.5 C1633.11,20791.7 1631.71,20791.7 1629.86,20791 C1628.02,20790.2 1626.85,20788.9 1627.57,20787.1 C1628.19,20785.5 1629.83,20785.1 1632.5,20786.1 L1636.16,20787.3 L1634.47,20791.5 M1651.49,20791.9 C1653.06,20788 1656.26,20786.3 1660.36,20787.9 C1662.83,20788.9 1663.63,20789.7 1665.39,20791.3 L1668.15,20788.6 C1666.16,20786.4 1664.63,20785 1661.12,20783.6 C1654.65,20781 1648.92,20783.4 1646.34,20789.8 C1643.82,20796.1 1646.35,20802 1652.7,20804.6 C1656.08,20805.9 1658.6,20806.1 1661.27,20805.7 L1661.17,20801.8 C1658.74,20801.8 1657.64,20801.8 1655.17,20800.8 C1651.24,20799.3 1649.98,20795.7 1651.49,20791.9 M1682.03,20781 L1676.9,20779 L1664.86,20809 L1670,20811 L1682.03,20781 M1686.36,20794.3 L1674.87,20800.1 L1678.77,20814.5 L1684.74,20816.9 L1680.85,20802.5 L1692.34,20796.7 L1686.36,20794.3"/>
</g>

<g fill="none" stroke="#000000" stroke-opacity="1" stroke-width="1.51181" stroke-linecap="round" stroke-linejoin="round" transform="matrix(1,0,0,1,0,0)"
font-family="Arial" font-size="10.6667" font-weight="400" font-style="normal" 
>
</g>

<g fill="none" stroke="#000000" stroke-opacity="1" stroke-width="1.51181" stroke-linecap="round" stroke-linejoin="round" transform="matrix(1,0,0,1,0,0)"
font-family="Arial" font-size="10.6667" font-weight="400" font-style="normal" 
>
</g>

<g fill="#000000" fill-opacity="1" stroke="#000000" stroke-opacity="1" stroke-width="1" stroke-linecap="square" stroke-linejoin="bevel" transform="matrix(1,0,0,1,0,0)"
font-family="Arial" font-size="10.6667" font-weight="400" font-style="normal" 
>
<path vector-effect="none" fill-rule="evenodd" d="M1454.75,20752.3 C1449.6,20750.2 1444.48,20750.9 1442.35,20756.2 C1440.67,20760.4 1443.32,20763.4 1446.84,20766.8 C1449.57,20769.4 1453.49,20772.2 1452.19,20775.5 C1450.83,20778.9 1446.76,20778.9 1442.97,20777.3 C1441.06,20776.6 1439.05,20775.2 1436.32,20772.6 L1434.06,20775 C1436.19,20777.1 1438.21,20778.8 1441.72,20780.2 C1447.15,20782.4 1453.39,20782.1 1455.59,20776.6 C1457.69,20771.4 1453.31,20768.2 1449.75,20764.7 C1447.65,20762.7 1444.66,20760.1 1445.82,20757.2 C1446.97,20754.3 1450.06,20753.8 1453.97,20755.3 C1455.81,20756.1 1457.95,20757.5 1459.28,20759.2 L1461.55,20757.2 C1459.83,20755 1457.26,20753.3 1454.75,20752.3 M1468.03,20764.4 C1469.22,20764.8 1470.56,20764.3 1471.04,20763.1 C1471.52,20761.9 1470.95,20760.5 1469.76,20760.1 C1468.55,20759.6 1467.21,20760.1 1466.74,20761.3 C1466.25,20762.5 1466.83,20763.9 1468.03,20764.4 M1465.18,20766.8 L1457.47,20786.1 L1460.66,20787.3 L1468.37,20768.1 L1465.18,20766.8 M1472.72,20789.2 C1470.25,20788.2 1470.68,20786.9 1471.27,20785.4 L1480.62,20762.1 L1477.32,20760.8 L1467.5,20785.2 C1466.41,20787.9 1467.32,20790.5 1469.92,20791.5 C1471.79,20792.3 1473.34,20792.3 1474.18,20792.1 L1474.4,20789.6 C1473.82,20789.5 1473.47,20789.5 1472.72,20789.2 M1499.77,20771 L1488.69,20798.6 L1491.99,20799.9 L1501.32,20776.7 L1507.09,20806 L1511.28,20807.7 L1522.36,20780.1 L1519.04,20778.7 L1509.77,20801.8 L1503.96,20772.7 L1499.77,20771 M1538.99,20796.5 L1526.69,20810 L1527.17,20791.7 L1523.71,20790.3 L1523.33,20813.7 L1515.9,20821.5 L1519.27,20822.9 L1542.14,20797.7 L1538.99,20796.5 M1545.11,20818.2 C1542.64,20817.2 1543.07,20815.9 1543.66,20814.4 L1553.01,20791.1 L1549.71,20789.8 L1539.89,20814.3 C1538.8,20817 1539.71,20819.5 1542.31,20820.6 C1544.18,20821.3 1545.73,20821.3 1546.57,20821.2 L1546.78,20818.7 C1546.21,20818.6 1545.86,20818.5 1545.11,20818.2 M1557.65,20826.7 C1563.6,20829.1 1568.77,20826.3 1571.16,20820.4 C1573.6,20814.3 1571.9,20809.1 1565.87,20806.7 C1559.85,20804.3 1554.77,20806.9 1552.34,20812.9 C1549.93,20818.9 1551.66,20824.3 1557.65,20826.7 M1564.81,20809.3 C1568.73,20810.9 1569.41,20815.2 1567.82,20819.1 C1566.21,20823.2 1562.83,20825.7 1558.87,20824.1 C1554.8,20822.5 1554.01,20818.4 1555.66,20814.3 C1557.27,20810.2 1560.74,20807.7 1564.81,20809.3 M1589.47,20824.7 L1584.51,20837 L1587.82,20838.4 L1593.1,20825.2 C1594.75,20821.1 1593.55,20817.7 1589.43,20816.1 C1587.2,20815.2 1584.62,20814.9 1581.81,20815.3 L1581.64,20813.6 L1579.36,20812.7 L1571.65,20831.9 L1574.97,20833.2 L1581.23,20817.6 C1583.51,20817.5 1585.49,20817.7 1587.13,20818.4 C1590.27,20819.7 1590.77,20821.4 1589.47,20824.7 M1597.19,20837 C1595.76,20836.5 1594.34,20837.1 1593.78,20838.5 C1593.31,20839.7 1593.51,20840.7 1594.51,20841.5 C1593.56,20842.4 1592.34,20843.5 1590.78,20844.7 L1591.72,20846.1 C1594.07,20845.3 1597.39,20843.8 1598.56,20840.9 C1599.21,20839.3 1598.76,20837.7 1597.19,20837 M1622.69,20852.8 C1624.44,20853.5 1626.46,20853.9 1628.72,20854 L1628.88,20851.4 C1627.5,20851.3 1626.17,20851.1 1624.9,20850.6 C1620.14,20848.7 1618.68,20845.2 1620.77,20840 C1622.58,20835.5 1625.86,20833.9 1630.49,20835.8 C1631.96,20836.4 1633.19,20837.2 1634.18,20838.2 L1635.95,20836.1 C1634.61,20834.7 1633.06,20833.7 1631.43,20833 C1624.93,20830.4 1619.66,20833.1 1617.2,20839.2 C1614.75,20845.3 1616.61,20850.4 1622.69,20852.8 M1639.01,20850.7 L1643.89,20838.6 L1640.59,20837.2 L1635.38,20850.2 C1633.75,20854.3 1634.97,20857.8 1639.04,20859.4 C1641.12,20860.2 1643.62,20860.5 1646.62,20860.2 L1646.75,20862 L1649.02,20862.9 L1656.74,20843.7 L1653.43,20842.4 L1647.25,20857.8 C1644.93,20857.9 1642.98,20857.7 1641.39,20857 C1638.2,20855.8 1637.71,20854 1639.01,20850.7 M1660.67,20868.1 C1662.03,20868.6 1663.52,20868.9 1665.21,20868.9 L1665.5,20866.3 C1664.87,20866.3 1663.89,20866.2 1662.74,20865.7 C1660.26,20864.7 1660.23,20863.2 1661.25,20860.6 L1665.42,20850.2 L1671.73,20852.8 L1672.78,20850.1 L1666.47,20847.6 L1668.66,20842.1 L1665.29,20841 L1663.16,20846.3 L1659.93,20845 L1658.88,20847.6 L1662.11,20848.9 L1657.85,20859.5 C1656.22,20863.6 1656.68,20866.5 1660.67,20868.1 M1690.77,20850.1 L1691.08,20853.2 C1693.21,20852.7 1695.52,20852.3 1698.4,20853.4 C1701.75,20854.8 1703.41,20857.4 1702.06,20860.8 C1700.52,20864.6 1696,20866.9 1682.05,20873.7 L1681.19,20875.8 L1697.56,20882.4 L1698.73,20879.5 L1687,20874.8 C1700.81,20867.9 1703.87,20865.9 1705.37,20862.1 C1707.31,20857.3 1704.95,20852.7 1700.08,20850.7 C1696.18,20849.1 1694.02,20849.5 1690.77,20850.1 "/>
</g>

<g fill="none" stroke="#000000" stroke-opacity="1" stroke-width="1.51181" stroke-linecap="round" stroke-linejoin="round" transform="matrix(1,0,0,1,0,0)"
font-family="Arial" font-size="10.6667" font-weight="400" font-style="normal" 
>
</g>

<g fill="none" stroke="#000000" stroke-opacity="1" stroke-width="1.51181" stroke-linecap="round" stroke-linejoin="round" transform="matrix(1,0,0,1,0,0)"
font-family="Arial" font-size="10.6667" font-weight="400" font-style="normal" 
>
</g>
</g>
</svg>
