<?xml version="1.0" encoding="UTF-8" standalone="no"?>
<svg width="609.6mm" height="2763.84mm"
 viewBox="0 0 2304 10446"
 xmlns="http://www.w3.org/2000/svg" xmlns:xlink="http://www.w3.org/1999/xlink"  version="1.2" baseProfile="tiny">
<title>Valentina. Pattern layout</title>
<defs>
</defs>
<g fill="none" stroke="black" stroke-width="1" fill-rule="evenodd" stroke-linecap="square" stroke-linejoin="bevel" >

<g fill="none" stroke="#000000" stroke-opacity="1" stroke-width="1.51181" stroke-linecap="round" stroke-linejoin="round" transform="matrix(1,0,0,1,0,0)"
font-family="Arial" font-size="10.6667" font-weight="400" font-style="normal" 
>
</g>

<g fill="none" stroke="#000000" stroke-opacity="1" stroke-width="1.51181" stroke-linecap="round" stroke-linejoin="round" transform="matrix(1,0,0,1,0,0)"
font-family="Arial" font-size="10.6667" font-weight="400" font-style="normal" 
>
</g>

<g fill="none" stroke="#000000" stroke-opacity="1" stroke-width="1.51181" stroke-linecap="round" stroke-linejoin="round" transform="matrix(1,0,0,1,0,0)"
font-family="Arial" font-size="10.6667" font-weight="400" font-style="normal" 
>
</g>

<g fill="none" stroke="#000000" stroke-opacity="1" stroke-width="1" stroke-linecap="square" stroke-linejoin="bevel" transform="matrix(1,0,0,1,0,0)"
font-family="Arial" font-size="10.6667" font-weight="400" font-style="normal" 
>
<path vector-effect="none" fill-rule="nonzero" d="M2299,8410 L924,8410 L1517,4233 L1584,3860 L1667,3394 L1714,3123 L1756,2880 L1793,2657 L1818,2501 L1834,2400 L1849,2300 L1863,2202 L1877,2104 L1890,2006 L1904,1906 L1917,1805 L1936,1648 L1963,1424 L1990,1178 L2020,904 L2071,434 L2110,57 L2299,57 L2299,8410 M2299,0 L2299,8466 L878,8466 L1480,4227 L1547,3853 L1629,3388 L1677,3117 L1719,2873 L1756,2651 L1781,2495 L1796,2394 L1811,2295 L1826,2197 L1839,2099 L1853,2001 L1866,1901 L1879,1800 L1899,1643 L1925,1419 L1953,1174 L1983,900 L2033,430 L2078,0 L2299,0"/>
</g>

<g fill="none" stroke="#000000" stroke-opacity="1" stroke-width="1.51181" stroke-linecap="round" stroke-linejoin="round" transform="matrix(1,0,0,1,0,0)"
font-family="Arial" font-size="10.6667" font-weight="400" font-style="normal" 
>
</g>

<g fill="none" stroke="#000000" stroke-opacity="1" stroke-width="1.51181" stroke-linecap="round" stroke-linejoin="round" transform="matrix(1,0,0,1,0,0)"
font-family="Arial" font-size="10.6667" font-weight="400" font-style="normal" 
>
</g>

<g fill="#000000" fill-opacity="1" stroke="#000000" stroke-opacity="1" stroke-width="1" stroke-linecap="square" stroke-linejoin="bevel" transform="matrix(1,0,0,1,0,0)"
font-family="Arial" font-size="10.6667" font-weight="400" font-style="normal" 
>
<path vector-effect="none" fill-rule="evenodd" d="M2149.34,2740 L2143.81,2740 L2143.81,2752.11 L2138.78,2752.11 L2131.58,2740 L2125.23,2740 L2133.11,2753 C2128.47,2754.48 2126.12,2757.5 2126.12,2761.92 C2126.12,2768.08 2130.41,2771.14 2139.05,2771.14 L2149.34,2771.14 L2149.34,2740 M2131.8,2761.69 C2131.8,2757.5 2136.17,2757.19 2141.03,2757.19 L2143.81,2757.19 L2143.81,2766.05 L2139.62,2766.05 C2135.45,2766.05 2131.8,2765.52 2131.8,2761.69 M2123.7,2755.84 C2123.7,2746.08 2117.17,2739.55 2107.28,2739.55 C2104.44,2739.55 2101.2,2740.27 2097.64,2741.67 L2096.88,2741.98 L2098.69,2746.53 L2099.48,2746.17 C2102.14,2745.12 2104.44,2744.64 2106.28,2744.64 C2113.44,2744.64 2118.17,2748.86 2118.17,2755.84 C2118.17,2762.23 2113.75,2766.69 2107.09,2766.69 C2104.03,2766.69 2102.64,2766.45 2099.98,2765.56 L2099.12,2765.25 L2097.23,2769.66 L2098.19,2770.02 C2101.02,2771.19 2103.98,2771.77 2107.19,2771.77 C2116.91,2771.77 2123.7,2765.52 2123.7,2755.84 M2093.11,2768.58 L2090.78,2764.12 C2088.66,2765.47 2086.64,2766.69 2083.27,2766.69 C2079.8,2766.69 2077.72,2765.2 2077.72,2762.19 C2077.72,2758.91 2081.19,2754.48 2092.12,2743.47 L2092.12,2740 L2071.88,2740 L2071.88,2744.81 L2083.98,2744.81 C2074.44,2755.03 2072.19,2758.17 2072.19,2762.41 C2072.19,2768.08 2076.78,2771.77 2082.67,2771.77 C2087.58,2771.77 2090.06,2770.38 2093.11,2768.58 "/>
</g>

<g fill="none" stroke="#000000" stroke-opacity="1" stroke-width="1.51181" stroke-linecap="round" stroke-linejoin="round" transform="matrix(1,0,0,1,0,0)"
font-family="Arial" font-size="10.6667" font-weight="400" font-style="normal" 
>
</g>

<g fill="none" stroke="#000000" stroke-opacity="1" stroke-width="1.51181" stroke-linecap="round" stroke-linejoin="round" transform="matrix(1,0,0,1,0,0)"
font-family="Arial" font-size="10.6667" font-weight="400" font-style="normal" 
>
</g>

<g fill="#000000" fill-opacity="1" stroke="#000000" stroke-opacity="1" stroke-width="1" stroke-linecap="square" stroke-linejoin="bevel" transform="matrix(1,0,0,1,0,0)"
font-family="Arial" font-size="10.6667" font-weight="400" font-style="normal" 
>
<path vector-effect="none" fill-rule="evenodd" d="M2241.12,2686 L2236.09,2686 L2236.09,2697.03 L2231.5,2697.03 L2224.94,2686 L2219.16,2686 L2226.33,2697.84 C2222.11,2699.2 2219.97,2701.95 2219.97,2705.97 C2219.97,2711.58 2223.88,2714.38 2231.73,2714.38 L2241.12,2714.38 L2241.12,2686 M2225.14,2705.77 C2225.14,2701.95 2229.11,2701.66 2233.55,2701.66 L2236.09,2701.66 L2236.09,2709.73 L2232.28,2709.73 C2228.45,2709.73 2225.14,2709.25 2225.14,2705.77 M2207.19,2685.59 C2200.95,2685.59 2196.86,2689.77 2196.86,2695.97 C2196.86,2702.11 2200.88,2706.17 2207.11,2706.17 C2213.42,2706.17 2217.44,2702.16 2217.44,2695.88 C2217.44,2689.73 2213.42,2685.59 2207.19,2685.59 M2207.19,2702.28 C2203.78,2702.28 2201.91,2699.45 2201.91,2695.88 C2201.91,2692.27 2203.67,2689.53 2207.19,2689.53 C2210.55,2689.53 2212.41,2692.39 2212.41,2695.88 C2212.41,2699.33 2210.55,2702.28 2207.19,2702.28 M2183.19,2685.59 C2176.95,2685.59 2172.86,2689.77 2172.86,2695.97 C2172.86,2702.11 2176.88,2706.17 2183.11,2706.17 C2189.42,2706.17 2193.44,2702.16 2193.44,2695.88 C2193.44,2689.73 2189.42,2685.59 2183.19,2685.59 M2183.19,2702.28 C2179.78,2702.28 2177.91,2699.45 2177.91,2695.88 C2177.91,2692.27 2179.67,2689.53 2183.19,2689.53 C2186.55,2689.53 2188.41,2692.39 2188.41,2695.88 C2188.41,2699.33 2186.55,2702.28 2183.19,2702.28 M2166.91,2708.34 L2166.91,2705.72 L2170.19,2705.72 L2170.19,2701.78 L2166.91,2701.78 L2166.91,2686 L2161.86,2686 L2161.86,2701.78 L2154.56,2701.78 L2154.56,2705.72 L2161.86,2705.72 L2161.86,2708.52 C2161.86,2710.39 2160.22,2711.95 2157.64,2711.95 C2156.44,2711.95 2155.14,2711.67 2154.56,2711.55 L2153.73,2711.34 L2153,2714.91 L2153.7,2715.11 C2156.11,2715.84 2157.75,2715.94 2158.83,2715.94 C2165.95,2715.94 2166.91,2710.52 2166.91,2708.34 M2141.36,2700.44 C2141.36,2691.53 2135.42,2685.59 2126.39,2685.59 C2123.81,2685.59 2120.86,2686.25 2117.62,2687.52 L2116.92,2687.8 L2118.56,2691.94 L2119.3,2691.61 C2121.72,2690.67 2123.81,2690.22 2125.5,2690.22 C2132.02,2690.22 2136.31,2694.08 2136.31,2700.44 C2136.31,2706.25 2132.3,2710.31 2126.23,2710.31 C2123.44,2710.31 2122.17,2710.11 2119.75,2709.28 L2118.97,2709 L2117.25,2713.02 L2118.11,2713.34 C2120.7,2714.41 2123.41,2714.95 2126.31,2714.95 C2135.17,2714.95 2141.36,2709.25 2141.36,2700.44 M2104.17,2706.17 C2109.8,2706.17 2113.44,2701.58 2113.44,2695.88 C2113.44,2689.48 2109.5,2685.59 2102.86,2685.59 C2100.41,2685.59 2098.06,2686.05 2095.81,2686.81 L2096.67,2690.19 C2098.36,2689.77 2100.2,2689.56 2102.2,2689.56 C2105.98,2689.56 2108.11,2691.12 2108.41,2694.2 L2094.83,2694.2 L2094.83,2696.12 C2094.83,2702.56 2097.98,2706.17 2104.17,2706.17 M2108.28,2697.69 C2108.16,2700.47 2106.59,2702.28 2104.09,2702.28 C2101.31,2702.28 2099.75,2700.84 2099.75,2697.69 L2108.28,2697.69 M2071.97,2697.36 C2071.97,2702.73 2073.61,2706.17 2079.22,2706.17 C2081.44,2706.17 2083.73,2705.59 2086.03,2704.45 L2086.77,2705.72 L2090.3,2705.72 L2090.3,2686 L2085.25,2686 L2085.25,2700.84 C2083.23,2701.58 2081.69,2701.95 2080.53,2701.95 C2078.08,2701.95 2077.02,2700.27 2077.02,2697.97 L2077.02,2686 L2071.97,2686 L2071.97,2697.36 M2052.16,2686.7 L2052.89,2690.19 C2053.62,2689.98 2055.14,2689.61 2056.53,2689.61 C2059.23,2689.61 2059.86,2690.97 2059.86,2692.48 L2059.86,2701.78 L2053.05,2701.78 L2053.05,2705.72 L2059.86,2705.72 L2059.86,2711.91 L2064.91,2711.91 L2064.91,2705.72 L2068.19,2705.72 L2068.19,2701.78 L2064.91,2701.78 L2064.91,2692.36 C2064.91,2688.88 2064.03,2685.59 2057.77,2685.59 C2055.88,2685.59 2053.55,2686.16 2052.16,2686.7 M2040.17,2706.17 C2045.8,2706.17 2049.44,2701.58 2049.44,2695.88 C2049.44,2689.48 2045.5,2685.59 2038.86,2685.59 C2036.41,2685.59 2034.06,2686.05 2031.81,2686.81 L2032.67,2690.19 C2034.36,2689.77 2036.2,2689.56 2038.2,2689.56 C2041.98,2689.56 2044.11,2691.12 2044.41,2694.2 L2030.83,2694.2 L2030.83,2696.12 C2030.83,2702.56 2033.98,2706.17 2040.17,2706.17 M2044.28,2697.69 C2044.16,2700.47 2042.59,2702.28 2040.09,2702.28 C2037.31,2702.28 2035.75,2700.84 2035.75,2697.69 L2044.28,2697.69 M2026.3,2705.72 L2026.3,2686 L2021.38,2686 L2021.38,2701.17 C2020.34,2701.62 2019.23,2701.86 2018.09,2701.86 C2016.41,2701.86 2015.02,2701.5 2013.83,2700.8 L2013.58,2700.89 L2012.59,2705.39 C2013.75,2705.92 2014.98,2706.17 2016.25,2706.17 C2018.34,2706.17 2020.31,2705.59 2022.16,2704.45 L2022.77,2705.72 L2026.3,2705.72 M1999.83,2712.03 L1997.69,2707.97 C1995.77,2709.2 1993.92,2710.31 1990.84,2710.31 C1987.69,2710.31 1985.81,2708.95 1985.81,2706.22 C1985.81,2703.22 1988.97,2699.2 1998.92,2689.16 L1998.92,2686 L1980.47,2686 L1980.47,2690.39 L1991.5,2690.39 C1982.81,2699.69 1980.77,2702.56 1980.77,2706.42 C1980.77,2711.58 1984.94,2714.95 1990.31,2714.95 C1994.78,2714.95 1997.03,2713.67 1999.83,2712.03 "/>
</g>

<g fill="none" stroke="#000000" stroke-opacity="1" stroke-width="1.51181" stroke-linecap="round" stroke-linejoin="round" transform="matrix(1,0,0,1,0,0)"
font-family="Arial" font-size="10.6667" font-weight="400" font-style="normal" 
>
</g>

<g fill="none" stroke="#000000" stroke-opacity="1" stroke-width="1.51181" stroke-linecap="round" stroke-linejoin="round" transform="matrix(1,0,0,1,0,0)"
font-family="Arial" font-size="10.6667" font-weight="400" font-style="normal" 
>
</g>

<g fill="#000000" fill-opacity="1" stroke="#000000" stroke-opacity="1" stroke-width="1" stroke-linecap="square" stroke-linejoin="bevel" transform="matrix(1,0,0,1,0,0)"
font-family="Arial" font-size="10.6667" font-weight="400" font-style="normal" 
>
<path vector-effect="none" fill-rule="evenodd" d="M2231.3,2663.53 C2236.33,2663.53 2240.39,2661.19 2240.39,2656 C2240.39,2651.91 2237.16,2650.28 2233.05,2648.64 C2229.86,2647.34 2225.61,2646.3 2225.61,2643.14 C2225.61,2639.83 2229.03,2638.45 2232.75,2638.45 C2234.61,2638.45 2236.77,2638.92 2239.92,2640.17 L2241.05,2637.44 C2238.52,2636.34 2236.25,2635.61 2232.83,2635.61 C2227.52,2635.61 2222.38,2637.98 2222.38,2643.33 C2222.38,2648.44 2227.12,2649.66 2231.3,2651.36 C2233.75,2652.38 2237.16,2653.55 2237.16,2656.36 C2237.16,2659.17 2234.73,2660.69 2230.91,2660.69 C2229.11,2660.69 2226.81,2660.19 2225.14,2659.25 L2223.89,2661.66 C2226.11,2662.98 2228.84,2663.53 2231.3,2663.53 M2215.7,2657.84 C2214.55,2657.84 2213.61,2658.78 2213.61,2659.95 C2213.61,2661.11 2214.55,2662.05 2215.7,2662.05 C2216.88,2662.05 2217.81,2661.11 2217.81,2659.95 C2217.81,2658.78 2216.88,2657.84 2215.7,2657.84 M2217.27,2654.8 L2217.27,2636 L2214.16,2636 L2214.16,2654.8 L2217.27,2654.8 M2202.53,2638.53 C2204.95,2638.53 2205.03,2639.78 2205.03,2641.22 L2205.03,2664 L2208.27,2664 L2208.27,2640.09 C2208.27,2637.44 2206.62,2635.61 2204.09,2635.61 C2202.27,2635.61 2200.98,2636.16 2200.31,2636.55 L2200.98,2638.73 C2201.48,2638.61 2201.8,2638.53 2202.53,2638.53 M2185.69,2662.98 L2185.69,2636 L2182.45,2636 L2182.45,2658.7 L2167.7,2636 L2163.61,2636 L2163.61,2662.98 L2166.84,2662.98 L2166.84,2640.41 L2181.59,2662.98 L2185.69,2662.98 M2144.09,2654.8 L2149.86,2639.2 L2155.62,2654.8 L2159.03,2654.8 L2151.45,2635.03 L2155.05,2625.91 L2151.77,2625.91 L2141,2654.8 L2144.09,2654.8 M2131.53,2638.53 C2133.95,2638.53 2134.03,2639.78 2134.03,2641.22 L2134.03,2664 L2137.27,2664 L2137.27,2640.09 C2137.27,2637.44 2135.62,2635.61 2133.09,2635.61 C2131.27,2635.61 2129.98,2636.16 2129.31,2636.55 L2129.98,2638.73 C2130.48,2638.61 2130.8,2638.53 2131.53,2638.53 M2118,2635.66 C2112.19,2635.66 2108.77,2639.7 2108.77,2645.52 C2108.77,2651.44 2111.95,2655.27 2117.84,2655.27 C2123.73,2655.27 2127.12,2651.36 2127.12,2645.44 C2127.12,2639.59 2123.86,2635.66 2118,2635.66 M2117.84,2652.69 C2114.02,2652.69 2112,2649.3 2112,2645.44 C2112,2641.5 2113.98,2638.22 2117.84,2638.22 C2121.83,2638.22 2123.89,2641.42 2123.89,2645.44 C2123.89,2649.38 2121.83,2652.69 2117.84,2652.69 M2091.67,2648.09 L2091.67,2636 L2088.44,2636 L2088.44,2648.88 C2088.44,2652.89 2090.58,2655.31 2094.59,2655.31 C2096.78,2655.31 2099.05,2654.69 2101.31,2653.44 L2102,2654.8 L2104.23,2654.8 L2104.23,2636 L2101,2636 L2101,2651.25 C2099.12,2652.14 2097.36,2652.58 2095.77,2652.58 C2092.69,2652.58 2091.67,2651.25 2091.67,2648.09 M2080.86,2640.3 C2082.25,2640.3 2083.23,2639.28 2083.23,2637.91 C2083.23,2636.78 2082.72,2636 2081.59,2635.61 C2082.09,2634.56 2082.77,2633.23 2083.66,2631.67 L2082.41,2630.86 C2080.7,2632.3 2078.39,2634.64 2078.39,2637.48 C2078.39,2639.08 2079.33,2640.3 2080.86,2640.3 M2053.92,2635.61 C2052.2,2635.61 2050.38,2635.97 2048.47,2636.7 L2049.2,2638.92 C2050.38,2638.5 2051.58,2638.27 2052.83,2638.27 C2057.47,2638.27 2059.89,2640.72 2059.89,2645.8 C2059.89,2650.2 2057.62,2652.58 2053.11,2652.58 C2051.66,2652.58 2050.38,2652.34 2049.2,2651.83 L2048.42,2654.22 C2050.02,2654.92 2051.66,2655.27 2053.27,2655.27 C2059.62,2655.27 2063.12,2651.17 2063.12,2645.2 C2063.12,2639.23 2059.86,2635.61 2053.92,2635.61 M2041.03,2642.91 L2041.03,2654.8 L2044.27,2654.8 L2044.27,2642.12 C2044.27,2638.14 2042.05,2635.61 2038.06,2635.61 C2036.05,2635.61 2033.86,2636.27 2031.44,2637.52 L2030.7,2636 L2028.47,2636 L2028.47,2654.8 L2031.72,2654.8 L2031.72,2639.75 C2033.62,2638.84 2035.34,2638.38 2036.91,2638.38 C2040.02,2638.38 2041.03,2639.75 2041.03,2642.91 M2016.8,2635.61 C2015.47,2635.61 2014.14,2635.92 2012.7,2636.47 L2013.33,2638.73 C2013.88,2638.53 2014.73,2638.3 2015.86,2638.3 C2018.28,2638.3 2018.83,2639.59 2018.83,2642.08 L2018.83,2652.22 L2012.66,2652.22 L2012.66,2654.8 L2018.83,2654.8 L2018.83,2660.14 L2022.06,2659.98 L2022.06,2654.8 L2025.22,2654.8 L2025.22,2652.22 L2022.06,2652.22 L2022.06,2641.84 C2022.06,2637.88 2020.7,2635.61 2016.8,2635.61 M1997.92,2660.89 L1996.62,2658.42 C1995,2659.52 1993.2,2660.69 1990.39,2660.69 C1987.11,2660.69 1984.81,2659.02 1984.81,2655.73 C1984.81,2651.95 1987.86,2648.56 1997.3,2638.11 L1997.3,2636 L1981.3,2636 L1981.3,2638.84 L1992.77,2638.84 C1983.45,2649.3 1981.58,2652.06 1981.58,2655.73 C1981.58,2660.45 1985.12,2663.53 1989.89,2663.53 C1993.7,2663.53 1995.39,2662.48 1997.92,2660.89 "/>
</g>

<g fill="none" stroke="#000000" stroke-opacity="1" stroke-width="1.51181" stroke-linecap="round" stroke-linejoin="round" transform="matrix(1,0,0,1,0,0)"
font-family="Arial" font-size="10.6667" font-weight="400" font-style="normal" 
>
</g>

<g fill="none" stroke="#000000" stroke-opacity="1" stroke-width="1.51181" stroke-linecap="round" stroke-linejoin="round" transform="matrix(1,0,0,1,0,0)"
font-family="Arial" font-size="10.6667" font-weight="400" font-style="normal" 
>
</g>

<g fill="none" stroke="#000000" stroke-opacity="1" stroke-width="1" stroke-linecap="square" stroke-linejoin="bevel" transform="matrix(1,0,0,1,0,0)"
font-family="Arial" font-size="10.6667" font-weight="400" font-style="normal" 
>
<path vector-effect="none" fill-rule="nonzero" d="M449.412,1513.1 L1956.16,124.173 L1959.94,131.773 L1965.9,148.551 L1971.86,165.328 L1976.55,182.734 L1980.92,201.088 L1984.03,220.071 L1987.77,240.321 L1989.29,260.88 L1991.76,281.758 L1992.64,304.213 L1992.26,327.297 L1991.87,350.38 L1991.17,374.412 L1989.83,400.339 L1987.54,425.946 L1984.94,452.502 L1982.01,480.006 L1977.82,508.138 L1973.31,537.218 L1968.48,567.245 L1962.38,597.902 L1953.7,645.627 L1938.96,711.36 L1922,780.565 L1903.77,853.561 L1882.68,928.763 L1859.99,1008.7 L1835.4,1091.17 L1809.54,1177.42 L1781.45,1267.15 L1751.14,1360.35 L1702.96,1506.62 L1633.73,1715.45 L1557.83,1937.86 L1476.81,2175.42 L1391.65,2428.48 L1346.67,2562.11 L449.412,1513.1 M1346.65,2678.17 L392.973,1564.8 L1985.34,97.0618 L1994.45,117.011 L2001.98,135.374 L2007.31,154.047 L2013.58,173.039 L2017.31,193.288 L2022,213.857 L2025.41,235.054 L2027.56,256.88 L2029.39,279.654 L2029.96,303.056 L2030.52,326.459 L2030.45,351.757 L2029.43,376.736 L2028.09,402.663 L2025.48,429.219 L2022.56,456.722 L2019.31,485.173 L2015.12,513.306 L2010.29,543.333 L2005.46,573.361 L1999.99,605.284 L1990.36,652.691 L1976.26,719.691 L1958.98,789.843 L1939.79,862.52 L1919.33,938.988 L1896.65,1018.93 L1871.74,1102.34 L1845.55,1189.54 L1816.52,1278.95 L1787.15,1372.47 L1738.98,1518.75 L1669.75,1727.57 L1593.84,1949.98 L1512.83,2187.55 L1427.66,2440.6 L1346.65,2678.17"/>
</g>

<g fill="none" stroke="#000000" stroke-opacity="1" stroke-width="1.51181" stroke-linecap="round" stroke-linejoin="round" transform="matrix(1,0,0,1,0,0)"
font-family="Arial" font-size="10.6667" font-weight="400" font-style="normal" 
>
</g>

<g fill="none" stroke="#000000" stroke-opacity="1" stroke-width="1.51181" stroke-linecap="round" stroke-linejoin="round" transform="matrix(1,0,0,1,0,0)"
font-family="Arial" font-size="10.6667" font-weight="400" font-style="normal" 
>
</g>

<g fill="#000000" fill-opacity="1" stroke="#000000" stroke-opacity="1" stroke-width="1" stroke-linecap="square" stroke-linejoin="bevel" transform="matrix(1,0,0,1,0,0)"
font-family="Arial" font-size="10.6667" font-weight="400" font-style="normal" 
>
<path vector-effect="none" fill-rule="evenodd" d="M1254.08,1421.66 L1259.37,1405.95 L1253.92,1404.11 L1246.63,1425.78 L1280.07,1437.03 L1282.07,1431.08 L1269.37,1426.8 L1274,1413.03 L1268.54,1411.19 L1263.9,1424.96 L1254.08,1421.66 M1289,1410.49 L1291,1404.54 L1278,1400.17 L1279.82,1394.76 L1295.43,1391.39 L1297.72,1384.58 L1280.91,1388.33 C1280.99,1382.82 1278.59,1379.21 1273.87,1377.62 C1267.23,1375.39 1262.41,1378.89 1259.29,1388.16 L1255.56,1399.24 L1289,1410.49 M1272.05,1383.8 C1276.54,1385.31 1275.3,1390.11 1273.55,1395.33 L1272.54,1398.33 L1263.02,1395.12 L1264.53,1390.63 C1266.04,1386.13 1267.93,1382.42 1272.05,1383.8 M1298.45,1364.33 L1270.48,1354.92 L1268.53,1360.72 L1269.59,1372.11 L1274.95,1371.8 L1274.12,1362.75 L1296.46,1370.27 L1293.45,1379.22 L1298.91,1381.05 L1306.63,1358.1 L1301.17,1356.26 L1298.45,1364.33"/>
</g>

<g fill="none" stroke="#000000" stroke-opacity="1" stroke-width="1.51181" stroke-linecap="round" stroke-linejoin="round" transform="matrix(1,0,0,1,0,0)"
font-family="Arial" font-size="10.6667" font-weight="400" font-style="normal" 
>
</g>

<g fill="none" stroke="#000000" stroke-opacity="1" stroke-width="1.51181" stroke-linecap="round" stroke-linejoin="round" transform="matrix(1,0,0,1,0,0)"
font-family="Arial" font-size="10.6667" font-weight="400" font-style="normal" 
>
</g>

<g fill="#000000" fill-opacity="1" stroke="#000000" stroke-opacity="1" stroke-width="1" stroke-linecap="square" stroke-linejoin="bevel" transform="matrix(1,0,0,1,0,0)"
font-family="Arial" font-size="10.6667" font-weight="400" font-style="normal" 
>
<path vector-effect="none" fill-rule="evenodd" d="M1281,1537.04 L1285.87,1522.57 L1280.85,1520.88 L1274.14,1540.83 L1304.95,1551.2 L1306.8,1545.72 L1295.08,1541.78 L1299.35,1529.09 L1294.32,1527.39 L1290.05,1540.08 L1281,1537.04 M1291.76,1519.52 L1313.19,1526.73 L1314.98,1521.4 L1298.5,1515.86 C1298.39,1514.57 1298.53,1513.28 1298.94,1512.03 C1299.56,1510.21 1300.47,1508.82 1301.66,1507.79 L1301.66,1507.49 L1297.12,1504.77 C1296.12,1505.82 1295.41,1507.07 1294.94,1508.46 C1294.18,1510.72 1294.08,1513.07 1294.65,1515.5 L1293.04,1515.7 L1291.76,1519.52 M1323.02,1499 C1325.29,1492.23 1322.25,1486.24 1315.52,1483.98 C1308.85,1481.73 1302.96,1484.62 1300.68,1491.38 C1298.38,1498.24 1301.27,1504.08 1308.09,1506.37 C1314.77,1508.62 1320.74,1505.77 1323.02,1499 M1304.89,1492.9 C1306.14,1489.2 1309.89,1488.18 1313.77,1489.49 C1317.69,1490.81 1320.03,1493.72 1318.74,1497.56 C1317.51,1501.2 1313.72,1502.17 1309.93,1500.89 C1306.18,1499.63 1303.66,1496.54 1304.89,1492.9 M1322.22,1459.08 C1316.39,1457.12 1312.04,1457.63 1309.99,1463.74 C1309.18,1466.15 1308.96,1468.85 1309.36,1471.77 L1307.72,1472.1 L1306.43,1475.93 L1327.86,1483.14 L1329.7,1477.67 L1313.57,1472.25 C1313.51,1469.78 1313.68,1467.96 1314.1,1466.72 C1315,1464.04 1317.21,1463.5 1319.71,1464.34 L1332.71,1468.71 L1334.56,1463.23 L1322.22,1459.08 M1340.89,1441.94 L1336.83,1441.46 C1336.78,1442.33 1336.62,1444.11 1336.11,1445.64 C1335.12,1448.57 1333.43,1448.74 1331.79,1448.19 L1321.68,1444.79 L1324.16,1437.4 L1319.88,1435.96 L1317.4,1443.35 L1310.67,1441.08 L1308.83,1446.56 L1315.55,1448.83 L1314.35,1452.39 L1318.63,1453.83 L1319.83,1450.27 L1330.08,1453.71 C1333.86,1454.99 1337.74,1455.25 1340.03,1448.44 C1340.72,1446.38 1340.95,1443.64 1340.89,1441.94 M1347.38,1425.15 L1349.22,1419.67 L1337.24,1415.63 L1338.92,1410.66 L1353.3,1407.55 L1355.41,1401.27 L1339.92,1404.75 C1339.98,1399.66 1337.79,1396.33 1333.42,1394.86 C1327.32,1392.81 1322.87,1396.03 1319.99,1404.59 L1316.56,1414.77 L1347.38,1425.15 M1331.75,1400.55 C1335.9,1401.94 1334.75,1406.37 1333.13,1411.19 L1332.21,1413.94 L1323.42,1410.98 L1324.81,1406.85 C1326.21,1402.71 1327.97,1399.28 1331.75,1400.55 M1333.16,1388 C1333.74,1386.26 1332.71,1384.17 1330.96,1383.58 C1329.23,1383 1327.15,1384.05 1326.57,1385.78 C1325.98,1387.51 1327.01,1389.6 1328.74,1390.19 C1330.49,1390.78 1332.57,1389.73 1333.16,1388 M1334.84,1391.53 L1356.26,1398.74 L1358.06,1393.41 L1336.63,1386.2 L1334.84,1391.53 M1370.12,1382.32 C1369.61,1383.83 1368.63,1385.55 1367.18,1387.38 L1366.57,1388.16 L1370.04,1390.98 L1370.68,1390.24 C1372.42,1388.16 1373.72,1385.76 1374.59,1383.18 C1377.14,1375.61 1374.22,1369.97 1367.28,1367.63 L1345.32,1360.24 L1344.04,1364.03 L1345.17,1364.95 C1343.31,1366.65 1341.98,1368.68 1341.21,1370.96 C1339.07,1377.33 1342.19,1382.8 1348.83,1385.03 C1355.68,1387.34 1361.52,1384.59 1363.83,1377.73 C1364.52,1375.67 1364.47,1374.51 1364.28,1372.72 C1369.76,1374.56 1371.95,1376.88 1370.12,1382.32 M1359.91,1375.37 C1358.44,1379.73 1355.44,1381.15 1350.98,1379.65 C1346.26,1378.06 1344.58,1375.11 1346.02,1370.84 C1346.49,1369.45 1347.17,1368.3 1348.11,1367.28 L1360.09,1371.31 C1360.43,1372.66 1360.38,1373.98 1359.91,1375.37 M1354.9,1345.34 C1355.87,1342.44 1357.74,1342.03 1360.51,1342.96 L1373.56,1347.36 L1375.4,1341.88 L1363.07,1337.72 C1357.23,1335.76 1352.93,1336.14 1350.83,1342.38 C1350.13,1344.48 1349.88,1346.82 1350.05,1349.42 L1338.56,1345.55 L1336.72,1351.01 L1368.7,1361.78 L1370.54,1356.31 L1354.33,1350.86 C1354.22,1348.53 1354.43,1346.72 1354.9,1345.34 M1381.71,1320.62 L1377.65,1320.15 C1377.61,1321.02 1377.45,1322.8 1376.94,1324.33 C1375.95,1327.26 1374.26,1327.43 1372.62,1326.88 L1362.51,1323.47 L1364.99,1316.08 L1360.71,1314.64 L1358.23,1322.03 L1351.5,1319.77 L1349.66,1325.25 L1356.38,1327.51 L1355.18,1331.08 L1359.46,1332.52 L1360.66,1328.95 L1370.91,1332.4 C1374.69,1333.67 1378.57,1333.94 1380.86,1327.13 C1381.55,1325.07 1381.78,1322.33 1381.71,1320.62 M1387.8,1288.38 L1362.02,1279.7 L1360.22,1285.05 L1361.19,1295.55 L1366.14,1295.27 L1365.39,1286.94 L1385.96,1293.86 L1383.19,1302.09 L1388.22,1303.79 L1395.34,1282.64 L1390.3,1280.95 L1387.8,1288.38"/>
</g>

<g fill="none" stroke="#000000" stroke-opacity="1" stroke-width="1.51181" stroke-linecap="round" stroke-linejoin="round" transform="matrix(1,0,0,1,0,0)"
font-family="Arial" font-size="10.6667" font-weight="400" font-style="normal" 
>
</g>

<g fill="none" stroke="#000000" stroke-opacity="1" stroke-width="1.51181" stroke-linecap="round" stroke-linejoin="round" transform="matrix(1,0,0,1,0,0)"
font-family="Arial" font-size="10.6667" font-weight="400" font-style="normal" 
>
</g>

<g fill="#000000" fill-opacity="1" stroke="#000000" stroke-opacity="1" stroke-width="1" stroke-linecap="square" stroke-linejoin="bevel" transform="matrix(1,0,0,1,0,0)"
font-family="Arial" font-size="10.6667" font-weight="400" font-style="normal" 
>
<path vector-effect="none" fill-rule="evenodd" d="M1345.41,1515.19 L1374.92,1525.12 L1376.12,1521.59 L1351.3,1513.23 L1381.54,1505.47 L1383.05,1500.99 L1353.54,1491.05 L1352.34,1494.59 L1377.04,1502.91 L1346.92,1510.72 L1345.41,1515.19 M1366.99,1479 C1364.94,1485.1 1368.67,1489.97 1374.89,1492.06 C1381.59,1494.31 1386.58,1491.91 1388.84,1485.21 C1389.58,1482.99 1389.95,1480.64 1389.92,1478.17 L1387.14,1477.95 C1387.18,1479.71 1386.85,1481.51 1386.26,1483.26 C1384.67,1487.98 1381.03,1490.18 1376.81,1488.76 L1381.56,1474.64 L1381.17,1474.27 L1379.29,1473.64 C1373.53,1471.7 1368.9,1473.32 1366.99,1479 M1377.63,1477.02 L1374.03,1487.73 C1370.68,1486.12 1368.61,1483.38 1369.9,1479.55 C1371,1476.31 1374.3,1475.9 1377.63,1477.02 M1395.39,1465.75 C1395.87,1464.3 1396.02,1462.75 1395.94,1460.96 L1393.24,1460.81 C1393.26,1461.48 1393.2,1462.51 1392.78,1463.74 C1391.89,1466.39 1390.28,1466.51 1387.56,1465.59 L1376.47,1461.86 L1378.74,1455.12 L1375.92,1454.17 L1373.65,1460.91 L1367.8,1458.94 L1366.79,1462.54 L1372.46,1464.45 L1371.3,1467.9 L1374.11,1468.85 L1375.28,1465.4 L1386.62,1469.22 C1390.97,1470.68 1393.95,1470.02 1395.39,1465.75 M1393.87,1453.31 C1393.35,1454.85 1394.1,1456.29 1395.6,1456.79 C1396.83,1457.2 1397.88,1456.93 1398.72,1455.85 C1399.69,1456.78 1400.88,1457.99 1402.27,1459.55 L1403.62,1458.48 C1402.68,1456.07 1400.97,1452.69 1397.86,1451.65 C1396.1,1451.06 1394.43,1451.65 1393.87,1453.31 M1408.83,1425.8 C1409.47,1423.92 1409.75,1421.79 1409.64,1419.43 L1406.94,1419.42 C1406.98,1420.86 1406.79,1422.26 1406.33,1423.62 C1404.62,1428.7 1401.05,1430.45 1395.5,1428.58 C1390.69,1426.96 1388.91,1423.61 1390.58,1418.67 C1391.11,1417.08 1391.83,1415.76 1392.83,1414.67 L1390.51,1412.94 C1389.15,1414.43 1388.16,1416.09 1387.57,1417.84 C1385.23,1424.8 1388.43,1430.14 1394.94,1432.33 C1401.47,1434.53 1406.65,1432.28 1408.83,1425.8 M1405.67,1408.79 L1392.67,1404.42 L1391.48,1407.96 L1405.34,1412.62 C1409.69,1414.09 1413.28,1412.59 1414.74,1408.25 C1415.49,1406.03 1415.57,1403.39 1415.09,1400.29 L1417.03,1400.04 L1417.84,1397.61 L1397.29,1390.69 L1396.1,1394.23 L1412.56,1399.77 C1412.84,1402.19 1412.71,1404.24 1412.14,1405.94 C1410.98,1409.36 1409.14,1409.96 1405.67,1408.79 M1422.5,1385.19 C1422.99,1383.74 1423.13,1382.19 1423.06,1380.4 L1420.35,1380.25 C1420.38,1380.92 1420.31,1381.95 1419.9,1383.18 C1419,1385.83 1417.4,1385.95 1414.67,1385.03 L1403.58,1381.3 L1405.85,1374.56 L1403.03,1373.61 L1400.77,1380.35 L1394.92,1378.38 L1393.9,1381.98 L1399.58,1383.89 L1398.41,1387.34 L1401.23,1388.29 L1402.39,1384.84 L1413.73,1388.66 C1418.09,1390.12 1421.06,1389.46 1422.5,1385.19 M1432.05,1345.1 L1429.66,1352.22 L1403.25,1343.34 L1401.89,1347.39 L1403,1356.54 L1406.21,1356.43 L1405.17,1347.92 L1428.46,1355.76 L1425.81,1363.65 L1428.92,1364.7 L1435.16,1346.15 L1432.05,1345.1"/>
</g>

<g fill="none" stroke="#000000" stroke-opacity="1" stroke-width="1.51181" stroke-linecap="round" stroke-linejoin="round" transform="matrix(1,0,0,1,0,0)"
font-family="Arial" font-size="10.6667" font-weight="400" font-style="normal" 
>
</g>

<g fill="none" stroke="#000000" stroke-opacity="1" stroke-width="1.51181" stroke-linecap="round" stroke-linejoin="round" transform="matrix(1,0,0,1,0,0)"
font-family="Arial" font-size="10.6667" font-weight="400" font-style="normal" 
>
</g>

<g fill="none" stroke="#000000" stroke-opacity="1" stroke-width="1" stroke-linecap="square" stroke-linejoin="bevel" transform="matrix(1,0,0,1,0,0)"
font-family="Arial" font-size="10.6667" font-weight="400" font-style="normal" 
>
<path vector-effect="none" fill-rule="nonzero" d="M557.826,7749.04 L574.701,7747.24 L590.019,7744.18 L605.967,7740.35 L621.764,7735.11 L636.783,7729.25 L651.024,7722.75 L665.115,7714.85 L678.428,7706.32 L692.369,7697.01 L705.383,7685.67 L717.768,7675.1 L730.631,7662.35 L742.717,7648.98 L754.024,7634.97 L765.81,7618.78 L776.189,7602.74 L787.197,7585.93 L797.277,7567.07 L807.984,7547.44 L817.914,7527.19 L827.066,7506.3 L836.068,7484.01 L844.92,7460.31 L854.4,7435.83 L862.324,7410.1 L870.876,7383.58 L878.65,7356.45 L886.275,7327.9 L893.749,7297.95 L900.445,7267.37 L907.77,7236.01 L914.167,7202.62 L921.191,7168.44 L927.438,7133.65 L936.583,7079.34 L948.327,7002.71 L958.844,6921.23 L969.689,6836.16 L979.306,6746.25 L988.473,6652.12 L996.413,6553.14 L1005.31,6449.79 L1012.98,6341.59 L1020.83,6228.4 L1027.44,6110.36 L1035.02,5987.96 L1044.47,5796.37 L1057.88,5521.88 L1064.46,5376.82 L1242.33,5310.93 L827.565,8231.58 L549.388,7749.94 L557.826,7749.04 M528.466,7713.77 L553.779,7711.07 L568.62,7710.2 L582.532,7707.29 L595.667,7703.76 L609.429,7699.45 L621.786,7695.29 L634.621,7688.94 L646.049,7682.75 L657.956,7674.37 L669.235,7666.76 L680.364,7657.76 L692.121,7647.97 L702.95,7636.15 L713.779,7624.33 L724.458,7611.1 L734.359,7597.25 L744.888,7582.61 L754.49,7565.94 L764.091,7549.28 L774.171,7530.42 L782.844,7511.72 L791.996,7490.84 L801.148,7469.95 L809.371,7447.03 L818.223,7423.33 L826.297,7399 L834.221,7373.27 L841.995,7346.13 L849.62,7317.58 L857.244,7289.04 L863.94,7258.46 L870.637,7227.88 L877.811,7195.11 L884.208,7161.72 L890.455,7126.92 L898.972,7073.39 L910.716,6996.76 L921.382,6916.69 L931.599,6832.4 L941.216,6742.49 L950.383,6648.36 L959.101,6550 L967.219,6446.03 L975.038,6339.24 L982.885,6226.05 L989.505,6108.01 L996.453,5986.38 L1006.53,5794.02 L1020.72,5520.15 L1030.25,5309.35 L1334.67,5196.55 L888.624,8337.43 L528.466,7713.77"/>
</g>

<g fill="none" stroke="#000000" stroke-opacity="1" stroke-width="1.51181" stroke-linecap="round" stroke-linejoin="round" transform="matrix(1,0,0,1,0,0)"
font-family="Arial" font-size="10.6667" font-weight="400" font-style="normal" 
>
</g>

<g fill="none" stroke="#000000" stroke-opacity="1" stroke-width="1.51181" stroke-linecap="round" stroke-linejoin="round" transform="matrix(1,0,0,1,0,0)"
font-family="Arial" font-size="10.6667" font-weight="400" font-style="normal" 
>
</g>

<g fill="#000000" fill-opacity="1" stroke="#000000" stroke-opacity="1" stroke-width="1" stroke-linecap="square" stroke-linejoin="bevel" transform="matrix(1,0,0,1,0,0)"
font-family="Arial" font-size="10.6667" font-weight="400" font-style="normal" 
>
<path vector-effect="none" fill-rule="evenodd" d="M778.501,7764.44 L790.135,7773.83 L793.394,7769.8 L777.358,7756.85 L757.364,7781.62 L761.765,7785.17 L769.363,7775.76 L779.562,7783.99 L782.831,7779.95 L772.631,7771.71 L778.501,7764.44 M796.81,7772.56 L776.816,7797.32 L792.961,7810.36 L796.229,7806.31 L784.486,7796.83 L801.211,7776.11 L796.81,7772.56 M813.237,7789.17 L812.23,7794.22 C814.784,7794.52 817.174,7794.84 819.861,7797.01 C822.621,7799.24 823.31,7801.74 821.376,7804.14 C819.266,7806.75 813.669,7808.04 797.9,7809.78 L795.672,7812.54 L811.78,7825.55 L814.872,7821.72 L805.244,7813.95 C819.386,7811.95 823.205,7810.88 825.914,7807.52 C829.556,7803.01 828.284,7797.12 823.591,7793.34 C819.689,7790.18 816.816,7789.71 813.237,7789.17 "/>
</g>

<g fill="none" stroke="#000000" stroke-opacity="1" stroke-width="1.51181" stroke-linecap="round" stroke-linejoin="round" transform="matrix(1,0,0,1,0,0)"
font-family="Arial" font-size="10.6667" font-weight="400" font-style="normal" 
>
</g>

<g fill="none" stroke="#000000" stroke-opacity="1" stroke-width="1.51181" stroke-linecap="round" stroke-linejoin="round" transform="matrix(1,0,0,1,0,0)"
font-family="Arial" font-size="10.6667" font-weight="400" font-style="normal" 
>
</g>

<g fill="#000000" fill-opacity="1" stroke="#000000" stroke-opacity="1" stroke-width="1" stroke-linecap="square" stroke-linejoin="bevel" transform="matrix(1,0,0,1,0,0)"
font-family="Arial" font-size="10.6667" font-weight="400" font-style="normal" 
>
<path vector-effect="none" fill-rule="evenodd" d="M680.046,7758.61 L690.671,7767.19 L693.646,7763.51 L678.996,7751.68 L660.739,7774.29 L664.763,7777.54 L671.703,7768.95 L681.015,7776.46 L683.999,7772.77 L674.687,7765.25 L680.046,7758.61 M691.192,7772.91 L678.501,7788.63 L682.428,7791.8 L692.194,7779.71 C693.293,7780.01 694.338,7780.53 695.25,7781.27 C696.587,7782.35 697.47,7783.54 697.977,7784.86 L698.22,7784.95 L701.904,7781.98 C701.335,7780.82 700.508,7779.83 699.499,7779.02 C697.833,7777.67 695.892,7776.87 693.685,7776.59 L694.013,7775.19 L691.192,7772.91 M698.721,7805.5 C703.693,7809.51 709.653,7808.82 713.638,7803.89 C717.604,7798.98 717.005,7793.15 712.045,7789.15 C707.012,7785.08 701.211,7785.7 697.177,7790.7 C693.221,7795.6 693.761,7801.5 698.721,7805.5 M709.459,7792.2 C712.17,7794.39 711.862,7797.85 709.565,7800.7 C707.239,7803.58 704.062,7804.63 701.253,7802.36 C698.579,7800.2 698.953,7796.73 701.201,7793.95 C703.419,7791.2 706.785,7790.04 709.459,7792.2 M732.327,7817.13 C735.782,7812.85 736.7,7809.05 732.214,7805.43 C730.451,7804.01 728.254,7803 725.682,7802.43 L725.914,7800.95 L723.093,7798.67 L710.402,7814.39 L714.426,7817.64 L723.976,7805.81 C726.062,7806.51 727.537,7807.22 728.449,7807.95 C730.419,7809.54 730.19,7811.57 728.708,7813.4 L721.003,7822.95 L725.015,7826.19 L732.327,7817.13 M740.809,7838.01 L742.463,7834.77 C741.74,7834.45 740.301,7833.77 739.182,7832.87 C737.03,7831.13 737.408,7829.67 738.389,7828.45 L744.377,7821.03 L749.799,7825.41 L752.331,7822.27 L746.909,7817.9 L750.894,7812.96 L746.87,7809.71 L742.885,7814.65 L740.271,7812.54 L737.739,7815.67 L740.353,7817.78 L734.287,7825.3 C732.039,7828.08 730.609,7831.25 735.618,7835.29 C737.114,7836.5 739.359,7837.55 740.809,7838.01 M770.807,7825.81 L752.551,7848.42 L767.298,7860.32 L770.281,7856.63 L759.559,7847.97 L774.832,7829.05 L770.807,7825.81 M789,7851.28 C784.514,7847.66 778.654,7848.97 774.983,7853.52 C770.87,7858.61 771.494,7864.25 776.795,7868.53 C778.752,7870.11 780.907,7871.25 783.206,7872.08 L784.685,7868.86 C783.083,7868.11 781.484,7867.08 779.879,7865.78 C776.864,7863.35 776.176,7860.74 777.927,7858.1 L788.747,7866.84 L789.984,7865.31 C794.126,7860.18 793.936,7855.26 789,7851.28 M780.263,7855.41 C782.156,7853.26 784.554,7852.83 786.548,7854.44 C788.773,7856.24 789.09,7858.38 787.058,7860.9 L780.263,7855.41 M802.15,7859.04 L800.462,7861.13 L797.848,7859.02 L795.315,7862.16 L797.929,7864.27 L787.77,7876.85 L791.794,7880.1 L801.953,7867.52 L807.764,7872.21 L810.297,7869.07 L804.486,7864.38 L806.282,7862.16 C807.499,7860.65 809.801,7860.46 811.856,7862.12 C812.804,7862.89 813.663,7863.96 814.046,7864.43 L814.565,7865.13 L817.446,7862.76 L817.036,7862.15 C815.574,7860 814.32,7858.87 813.469,7858.18 C807.792,7853.6 803.554,7857.3 802.15,7859.04 M812.39,7895.81 L814.045,7892.56 C813.321,7892.24 811.882,7891.56 810.764,7890.66 C808.612,7888.92 808.99,7887.46 809.971,7886.24 L815.958,7878.83 L821.381,7883.2 L823.913,7880.07 L818.491,7875.69 L822.476,7870.75 L818.452,7867.51 L814.467,7872.44 L811.853,7870.33 L809.321,7873.47 L811.934,7875.58 L805.868,7883.09 C803.621,7885.88 802.191,7889.04 807.2,7893.08 C808.695,7894.29 810.941,7895.34 812.39,7895.81 M840.328,7885.01 L839.419,7889.62 C841.758,7889.88 843.936,7890.19 846.38,7892.16 C848.896,7894.19 849.54,7896.48 847.763,7898.68 C845.84,7901.06 840.742,7902.23 826.335,7903.83 L824.303,7906.35 L839.001,7918.22 L841.828,7914.71 L833.038,7907.62 C845.955,7905.8 849.442,7904.84 851.925,7901.76 C855.252,7897.64 854.068,7892.27 849.789,7888.81 C846.227,7885.93 843.613,7885.49 840.328,7885.01 "/>
</g>

<g fill="none" stroke="#000000" stroke-opacity="1" stroke-width="1.51181" stroke-linecap="round" stroke-linejoin="round" transform="matrix(1,0,0,1,0,0)"
font-family="Arial" font-size="10.6667" font-weight="400" font-style="normal" 
>
</g>

<g fill="none" stroke="#000000" stroke-opacity="1" stroke-width="1.51181" stroke-linecap="round" stroke-linejoin="round" transform="matrix(1,0,0,1,0,0)"
font-family="Arial" font-size="10.6667" font-weight="400" font-style="normal" 
>
</g>

<g fill="#000000" fill-opacity="1" stroke="#000000" stroke-opacity="1" stroke-width="1" stroke-linecap="square" stroke-linejoin="bevel" transform="matrix(1,0,0,1,0,0)"
font-family="Arial" font-size="10.6667" font-weight="400" font-style="normal" 
>
<path vector-effect="none" fill-rule="evenodd" d="M670.181,7811.9 L652.798,7833.43 L655.375,7835.51 L670,7817.39 L667.143,7845.01 L670.401,7847.64 L687.784,7826.11 L685.207,7824.03 L670.661,7842.05 L673.439,7814.53 L670.181,7811.9 M693.421,7840.84 C688.972,7837.25 683.776,7838.86 680.105,7843.41 C676.17,7848.28 676.626,7853.19 681.513,7857.13 C683.13,7858.44 684.973,7859.47 687.051,7860.2 L688.091,7857.97 C686.612,7857.43 685.215,7856.63 683.938,7855.6 C680.486,7852.81 679.777,7849.09 682.261,7846.01 L692.57,7854.33 L692.991,7854.11 L694.1,7852.74 C697.486,7848.54 697.567,7844.19 693.421,7840.84 M691.797,7850.32 L683.98,7844 C686.358,7841.71 689.275,7840.83 692.071,7843.09 C694.442,7845 693.761,7847.88 691.797,7850.32 M695.36,7868.31 C696.418,7869.17 697.682,7869.77 699.19,7870.26 L700.144,7868.06 C699.579,7867.86 698.751,7867.5 697.839,7866.76 C695.918,7865.21 696.305,7863.84 697.915,7861.84 L704.452,7853.74 L709.363,7857.71 L711.022,7855.66 L706.111,7851.69 L709.546,7847.43 L706.871,7845.48 L703.533,7849.61 L701.005,7847.57 L699.346,7849.62 L701.874,7851.66 L695.19,7859.94 C692.628,7863.12 692.248,7865.8 695.36,7868.31 M706.042,7870.75 C704.924,7869.85 703.488,7870.04 702.605,7871.13 C701.878,7872.03 701.779,7872.97 702.423,7874.02 C701.345,7874.53 699.956,7875.16 698.25,7875.83 L698.705,7877.28 C701.011,7877.23 704.348,7876.86 706.184,7874.58 C707.214,7873.31 707.258,7871.73 706.042,7870.75 M724.866,7892.14 C726.239,7893.24 727.924,7894.14 729.925,7894.77 L730.774,7892.53 C729.563,7892.11 728.434,7891.52 727.449,7890.73 C723.741,7887.73 723.398,7884.2 726.657,7880.17 C729.503,7876.64 732.846,7876.21 736.457,7879.12 C737.599,7880.05 738.476,7881.07 739.088,7882.23 L741.239,7880.83 C740.414,7879.25 739.327,7877.91 738.05,7876.87 C732.981,7872.78 727.554,7873.78 723.706,7878.55 C719.859,7883.31 720.137,7888.32 724.866,7892.14 M739.5,7894.33 L747.166,7884.84 L744.576,7882.75 L736.41,7892.86 C733.848,7896.03 733.984,7899.5 737.157,7902.06 C738.774,7903.36 740.956,7904.24 743.682,7904.8 L743.296,7906.49 L745.071,7907.93 L757.183,7892.92 L754.594,7890.83 L744.896,7902.85 C742.797,7902.34 741.119,7901.6 739.879,7900.6 C737.387,7898.59 737.468,7896.85 739.5,7894.33 M754.493,7916.06 C755.551,7916.91 756.814,7917.51 758.323,7918 L759.277,7915.8 C758.712,7915.61 757.884,7915.24 756.972,7914.5 C755.051,7912.95 755.438,7911.58 757.048,7909.58 L763.585,7901.49 L768.496,7905.45 L770.155,7903.4 L765.243,7899.43 L768.679,7895.18 L766.003,7893.22 L762.666,7897.35 L760.137,7895.31 L758.479,7897.36 L761.007,7899.41 L754.323,7907.68 C751.761,7910.86 751.381,7913.54 754.493,7916.06 M785.056,7936.45 L779.865,7932.26 L795.412,7913.01 L792.458,7910.62 L784.487,7908.7 L783.577,7911.42 L790.987,7913.19 L777.275,7930.17 L771.525,7925.53 L769.689,7927.8 L783.22,7938.73 L785.056,7936.45"/>
</g>

<g fill="none" stroke="#000000" stroke-opacity="1" stroke-width="1.51181" stroke-linecap="round" stroke-linejoin="round" transform="matrix(1,0,0,1,0,0)"
font-family="Arial" font-size="10.6667" font-weight="400" font-style="normal" 
>
</g>

<g fill="none" stroke="#000000" stroke-opacity="1" stroke-width="1.51181" stroke-linecap="round" stroke-linejoin="round" transform="matrix(1,0,0,1,0,0)"
font-family="Arial" font-size="10.6667" font-weight="400" font-style="normal" 
>
</g>

<g fill="none" stroke="#000000" stroke-opacity="1" stroke-width="1" stroke-linecap="square" stroke-linejoin="bevel" transform="matrix(1,0,0,1,0,0)"
font-family="Arial" font-size="10.6667" font-weight="400" font-style="normal" 
>
<path vector-effect="none" fill-rule="nonzero" d="M528.764,10395.6 L1122.51,8530.65 L1648.37,10213.4 L528.764,10395.6 M1716.49,10240.3 L453.479,10446.4 L1080.57,8473.56 L1164.39,8473.56 L1716.49,10240.3"/>
</g>

<g fill="none" stroke="#000000" stroke-opacity="1" stroke-width="1.51181" stroke-linecap="round" stroke-linejoin="round" transform="matrix(1,0,0,1,0,0)"
font-family="Arial" font-size="10.6667" font-weight="400" font-style="normal" 
>
</g>

<g fill="none" stroke="#000000" stroke-opacity="1" stroke-width="1.51181" stroke-linecap="round" stroke-linejoin="round" transform="matrix(1,0,0,1,0,0)"
font-family="Arial" font-size="10.6667" font-weight="400" font-style="normal" 
>
</g>

<g fill="#000000" fill-opacity="1" stroke="#000000" stroke-opacity="1" stroke-width="1" stroke-linecap="square" stroke-linejoin="bevel" transform="matrix(1,0,0,1,0,0)"
font-family="Arial" font-size="10.6667" font-weight="400" font-style="normal" 
>
<path vector-effect="none" fill-rule="evenodd" d="M1300.77,9801.78 L1302.56,9807.52 L1315.15,9803.59 L1316.79,9808.82 L1306.54,9820.24 L1308.6,9826.83 L1319.56,9814.44 C1322.61,9818.76 1326.51,9820.22 1331.08,9818.79 C1337.5,9816.79 1339.28,9811.35 1336.48,9802.37 L1333.13,9791.66 L1300.77,9801.78 M1329,9812.96 C1324.66,9814.32 1322.92,9809.89 1321.34,9804.84 L1320.43,9801.94 L1329.65,9799.06 L1331.01,9803.41 C1332.36,9807.75 1332.98,9811.72 1329,9812.96 M1340.61,9845.35 C1346.23,9843.59 1347.67,9838.2 1345.56,9831.42 L1342.08,9820.3 L1309.72,9830.41 L1312.95,9840.75 C1314.65,9846.21 1316.73,9849.71 1319.18,9851.32 C1321.63,9852.91 1323.99,9853.4 1326.42,9852.64 C1330.87,9851.26 1333.17,9847.31 1332.78,9843.28 C1334.85,9845.76 1337.81,9846.22 1340.61,9845.35 M1339.94,9832 C1341.2,9836.01 1341.37,9838.89 1338.47,9839.8 C1335.38,9840.76 1333.8,9838.18 1332.59,9834.3 L1331.24,9829.99 L1338.6,9827.69 L1339.94,9832 M1327.18,9835.52 C1328.74,9840.53 1329.52,9845.31 1325.68,9846.51 C1321.28,9847.88 1319.57,9843.39 1318,9838.38 L1316.79,9834.5 L1325.96,9831.64 L1327.18,9835.52"/>
</g>

<g fill="none" stroke="#000000" stroke-opacity="1" stroke-width="1.51181" stroke-linecap="round" stroke-linejoin="round" transform="matrix(1,0,0,1,0,0)"
font-family="Arial" font-size="10.6667" font-weight="400" font-style="normal" 
>
</g>

<g fill="none" stroke="#000000" stroke-opacity="1" stroke-width="1.51181" stroke-linecap="round" stroke-linejoin="round" transform="matrix(1,0,0,1,0,0)"
font-family="Arial" font-size="10.6667" font-weight="400" font-style="normal" 
>
</g>

<g fill="#000000" fill-opacity="1" stroke="#000000" stroke-opacity="1" stroke-width="1" stroke-linecap="square" stroke-linejoin="bevel" transform="matrix(1,0,0,1,0,0)"
font-family="Arial" font-size="10.6667" font-weight="400" font-style="normal" 
>
<path vector-effect="none" fill-rule="evenodd" d="M1223.1,9747.7 L1224.75,9752.98 L1236.31,9749.37 L1237.81,9754.17 L1228.4,9764.66 L1230.3,9770.71 L1240.36,9759.32 C1243.16,9763.3 1246.73,9764.64 1250.95,9763.32 C1256.83,9761.49 1258.48,9756.49 1255.9,9748.24 L1252.83,9738.41 L1223.1,9747.7 M1249.04,9757.98 C1245.04,9759.23 1243.44,9755.15 1241.99,9750.51 L1241.16,9747.85 L1249.62,9745.21 L1250.86,9749.21 C1252.11,9753.19 1252.69,9756.84 1249.04,9757.98 M1233.65,9782.96 C1235.69,9789.49 1241.42,9792.41 1247.9,9790.39 C1254.35,9788.37 1257.28,9782.84 1255.24,9776.31 C1253.18,9769.7 1247.65,9766.79 1241.07,9768.85 C1234.63,9770.86 1231.61,9776.44 1233.65,9782.96 M1251.13,9777.5 C1252.24,9781.06 1249.91,9783.97 1246.16,9785.14 C1242.39,9786.31 1238.93,9785.37 1237.78,9781.67 C1236.68,9778.15 1239.08,9775.29 1242.73,9774.14 C1246.34,9773.02 1250.03,9773.98 1251.13,9777.5 M1241.4,9807.77 C1243.44,9814.31 1249.17,9817.23 1255.66,9815.2 C1262.1,9813.19 1265.04,9807.66 1263,9801.12 C1260.93,9794.52 1255.41,9791.61 1248.83,9793.67 C1242.39,9795.68 1239.37,9801.26 1241.4,9807.77 M1258.88,9802.31 C1260,9805.88 1257.66,9808.78 1253.92,9809.95 C1250.15,9811.13 1246.69,9810.18 1245.53,9806.48 C1244.43,9802.96 1246.83,9800.1 1250.48,9798.96 C1254.09,9797.83 1257.78,9798.79 1258.88,9802.31 M1270.48,9817.07 L1267.72,9817.93 L1266.65,9814.5 L1262.54,9815.79 L1263.61,9819.22 L1247.07,9824.39 L1248.72,9829.67 L1265.26,9824.5 L1267.65,9832.15 L1271.77,9830.86 L1269.37,9823.21 L1272.3,9822.3 C1274.28,9821.68 1276.44,9822.89 1277.29,9825.6 C1277.68,9826.84 1277.81,9828.32 1277.87,9828.96 L1277.92,9829.87 L1281.89,9829.48 L1281.89,9828.68 C1281.87,9825.9 1281.41,9824.17 1281.06,9823.05 C1278.73,9815.57 1272.75,9816.36 1270.48,9817.07 M1284.3,9866.4 C1289.44,9864.79 1290.78,9859.85 1288.83,9853.62 L1285.64,9843.4 L1255.92,9852.69 L1258.88,9862.18 C1260.45,9867.2 1262.36,9870.42 1264.6,9871.9 C1266.86,9873.35 1269.01,9873.81 1271.25,9873.11 C1275.34,9871.83 1277.45,9868.21 1277.09,9864.51 C1278.98,9866.78 1281.71,9867.21 1284.3,9866.4 M1283.66,9854.16 C1284.81,9857.84 1284.98,9860.49 1282.33,9861.32 C1279.5,9862.2 1278.03,9859.83 1276.92,9856.26 L1275.69,9852.31 L1282.43,9850.2 L1283.66,9854.16 M1271.95,9857.39 C1273.39,9861.98 1274.11,9866.37 1270.57,9867.48 C1266.54,9868.74 1264.96,9864.62 1263.53,9860.02 L1262.41,9856.46 L1270.84,9853.82 L1271.95,9857.39 M1282.59,9893.26 C1288.57,9891.39 1290.02,9887.59 1288,9881.15 C1287.44,9879.35 1286.24,9877.17 1284.41,9874.63 L1281.06,9876.58 C1282.4,9878.29 1283.33,9879.93 1283.84,9881.55 C1285.06,9885.46 1284.5,9886.86 1280.86,9888 L1279.31,9883.82 C1277.56,9879.1 1274.48,9875.75 1269.89,9877.19 C1265.94,9878.42 1264.73,9882.43 1266.02,9886.56 C1266.79,9889.01 1268.06,9890.82 1269.82,9892.07 L1268.55,9893.12 L1269.84,9897.24 L1282.59,9893.26 M1272.87,9890.5 C1271.83,9889.59 1270.92,9888.52 1270.33,9886.62 C1269.74,9884.73 1270.08,9882.94 1271.93,9882.36 C1273.51,9881.87 1274.84,9882.91 1275.8,9885.57 L1277.21,9889.14 L1272.87,9890.5 M1283.29,9903.95 C1287.34,9902.69 1290.69,9904.08 1292,9908.3 C1292.8,9910.84 1292.72,9911.94 1292.54,9914.36 L1296.42,9914.75 C1296.84,9911.83 1296.95,9909.77 1295.82,9906.16 C1293.74,9899.51 1288.26,9896.59 1281.64,9898.66 C1275.2,9900.67 1272.21,9906.37 1274.26,9912.9 C1275.34,9916.38 1276.83,9918.42 1278.78,9920.26 L1281.71,9917.74 C1280.17,9915.86 1279.49,9915 1278.7,9912.46 C1277.44,9908.42 1279.43,9905.16 1283.29,9903.95 M1311.03,9920.74 L1309.38,9915.46 L1278.54,9925.1 L1280.19,9930.38 L1311.03,9920.74 M1303.52,9932.47 L1291.75,9927.24 L1283.01,9939.4 L1284.93,9945.55 L1293.67,9933.39 L1305.44,9938.61 L1303.52,9932.47"/>
</g>

<g fill="none" stroke="#000000" stroke-opacity="1" stroke-width="1.51181" stroke-linecap="round" stroke-linejoin="round" transform="matrix(1,0,0,1,0,0)"
font-family="Arial" font-size="10.6667" font-weight="400" font-style="normal" 
>
</g>

<g fill="none" stroke="#000000" stroke-opacity="1" stroke-width="1.51181" stroke-linecap="round" stroke-linejoin="round" transform="matrix(1,0,0,1,0,0)"
font-family="Arial" font-size="10.6667" font-weight="400" font-style="normal" 
>
</g>

<g fill="#000000" fill-opacity="1" stroke="#000000" stroke-opacity="1" stroke-width="1" stroke-linecap="square" stroke-linejoin="bevel" transform="matrix(1,0,0,1,0,0)"
font-family="Arial" font-size="10.6667" font-weight="400" font-style="normal" 
>
<path vector-effect="none" fill-rule="evenodd" d="M1189.61,9726.48 C1187.95,9721.18 1184.16,9717.67 1178.7,9719.38 C1174.39,9720.72 1173.72,9724.68 1173.36,9729.52 C1173.05,9733.3 1173.34,9738.12 1170.02,9739.16 C1166.53,9740.25 1163.95,9737.1 1162.74,9733.2 C1162.12,9731.23 1161.9,9728.81 1162.18,9725.08 L1158.95,9724.79 C1158.63,9727.81 1158.58,9730.44 1159.71,9734.05 C1161.46,9739.64 1165.66,9744.27 1171.28,9742.52 C1176.66,9740.83 1176.36,9735.43 1176.8,9730.48 C1177.06,9727.55 1177.17,9723.6 1180.14,9722.67 C1183.09,9721.75 1185.48,9723.79 1186.74,9727.81 C1187.33,9729.71 1187.55,9732.29 1187.11,9734.36 L1190.07,9734.88 C1190.73,9732.12 1190.41,9729.06 1189.61,9726.48 M1188.63,9744.41 C1189.01,9745.63 1190.31,9746.31 1191.54,9745.92 C1192.77,9745.54 1193.44,9744.25 1193.06,9743.03 C1192.68,9741.79 1191.38,9741.11 1190.16,9741.49 C1188.92,9741.88 1188.25,9743.17 1188.63,9744.41 M1184.91,9743.77 L1165.14,9749.95 L1166.16,9753.23 L1185.94,9747.05 L1184.91,9743.77 M1172.37,9763.73 C1171.58,9761.2 1172.87,9760.7 1174.39,9760.22 L1198.35,9752.73 L1197.29,9749.33 L1172.13,9757.2 C1169.34,9758.07 1167.94,9760.39 1168.77,9763.06 C1169.38,9764.98 1170.38,9766.16 1171.02,9766.73 L1173.1,9765.31 C1172.79,9764.81 1172.62,9764.51 1172.37,9763.73 M1203.57,9773.19 L1175.17,9782.06 L1176.23,9785.46 L1200.13,9778 L1181.09,9800.99 L1182.43,9805.3 L1210.83,9796.42 L1209.76,9793.01 L1186,9800.43 L1204.91,9777.5 L1203.57,9773.19 M1208.64,9819.68 L1190.33,9818.74 L1204.84,9807.53 L1203.72,9803.96 L1185.41,9818.43 L1174.62,9817.64 L1175.7,9821.1 L1209.65,9822.92 L1208.64,9819.68 M1195.64,9838.18 C1194.85,9835.65 1196.13,9835.15 1197.65,9834.67 L1221.62,9827.18 L1220.56,9823.78 L1195.4,9831.65 C1192.61,9832.52 1191.21,9834.84 1192.04,9837.51 C1192.64,9839.43 1193.65,9840.61 1194.28,9841.18 L1196.36,9839.76 C1196.06,9839.26 1195.88,9838.96 1195.64,9838.18 M1197.01,9853.26 C1198.92,9859.37 1204.32,9861.65 1210.43,9859.74 C1216.68,9857.78 1219.64,9853.18 1217.7,9846.97 C1215.77,9840.78 1210.55,9838.48 1204.32,9840.43 C1198.16,9842.36 1195.09,9847.1 1197.01,9853.26 M1215,9847.81 C1216.26,9851.84 1213.35,9855.09 1209.29,9856.36 C1205.15,9857.66 1201.05,9856.64 1199.78,9852.57 C1198.47,9848.38 1201.16,9845.17 1205.38,9843.85 C1209.53,9842.55 1213.69,9843.62 1215,9847.81 M1218.69,9876.64 L1205.97,9880.61 L1207.03,9884.01 L1220.57,9879.78 C1224.81,9878.46 1226.64,9875.41 1225.32,9871.18 C1224.6,9868.88 1223.2,9866.7 1221.14,9864.74 L1222.34,9863.54 L1221.61,9861.2 L1201.84,9867.38 L1202.9,9870.8 L1218.95,9865.78 C1220.5,9867.46 1221.54,9869.16 1222.07,9870.85 C1223.08,9874.09 1222.02,9875.6 1218.69,9876.64 M1214,9890.43 C1213.54,9888.95 1212.14,9888.26 1210.71,9888.71 C1209.52,9889.08 1208.86,9889.87 1208.82,9891.2 C1207.55,9891 1205.94,9890.74 1204.01,9890.31 L1203.55,9891.89 C1205.64,9893.22 1208.86,9894.88 1211.86,9893.95 C1213.53,9893.43 1214.5,9892.04 1214,9890.43 M1217.87,9920.17 C1218.44,9921.98 1219.41,9923.79 1220.83,9925.55 L1222.92,9924.05 C1222.08,9922.95 1221.45,9921.76 1221.04,9920.45 C1219.51,9915.55 1221.3,9912.21 1226.63,9910.54 C1231.27,9909.1 1234.52,9910.68 1236.01,9915.44 C1236.48,9916.96 1236.65,9918.4 1236.5,9919.8 L1239.26,9919.84 C1239.48,9917.92 1239.3,9916.08 1238.77,9914.4 C1236.69,9907.71 1231.23,9905.36 1224.94,9907.33 C1218.66,9909.29 1215.92,9913.93 1217.87,9920.17 M1229.84,9931.48 L1242.35,9927.57 L1241.29,9924.17 L1227.95,9928.34 C1223.76,9929.65 1221.82,9932.81 1223.13,9937 C1223.8,9939.13 1225.22,9941.21 1227.33,9943.35 L1225.97,9944.62 L1226.7,9946.96 L1246.48,9940.78 L1245.42,9937.38 L1229.58,9942.33 C1228.01,9940.61 1226.95,9938.96 1226.44,9937.32 C1225.42,9934.04 1226.51,9932.52 1229.84,9931.48 M1230.08,9959.23 C1230.52,9960.64 1231.28,9961.93 1232.34,9963.26 L1234.52,9961.86 C1234.13,9961.36 1233.59,9960.53 1233.23,9959.35 C1232.43,9956.8 1233.6,9955.79 1236.23,9954.97 L1246.91,9951.63 L1248.93,9958.12 L1251.63,9957.28 L1249.61,9950.79 L1255.23,9949.03 L1254,9945.68 L1248.54,9947.39 L1247.5,9944.06 L1244.81,9944.91 L1245.84,9948.23 L1234.93,9951.64 C1230.74,9952.95 1228.8,9955.13 1230.08,9959.23 M1263.02,9971.2 L1260.85,9973.37 C1262.54,9974.74 1264.37,9976.23 1265.29,9979.2 C1266.37,9982.65 1265.37,9985.61 1261.91,9986.69 C1257.94,9987.93 1253.36,9985.84 1239.26,9979.35 L1237.04,9980.04 L1242.3,9996.88 L1245.3,9995.94 L1241.53,9983.88 C1255.58,9990.24 1259.12,9991.3 1262.97,9990.09 C1267.94,9988.54 1270.02,9983.8 1268.46,9978.79 C1267.2,9974.77 1265.54,9973.34 1263.02,9971.2 "/>
</g>

<g fill="none" stroke="#000000" stroke-opacity="1" stroke-width="1.51181" stroke-linecap="round" stroke-linejoin="round" transform="matrix(1,0,0,1,0,0)"
font-family="Arial" font-size="10.6667" font-weight="400" font-style="normal" 
>
</g>

<g fill="none" stroke="#000000" stroke-opacity="1" stroke-width="1.51181" stroke-linecap="round" stroke-linejoin="round" transform="matrix(1,0,0,1,0,0)"
font-family="Arial" font-size="10.6667" font-weight="400" font-style="normal" 
>
</g>
</g>
</svg>
